<!-- Generator: Adobe Illustrator 24.0.3, SVG Export Plug-In  -->
<svg version="1.1" xmlns="http://www.w3.org/2000/svg" xmlns:xlink="http://www.w3.org/1999/xlink" x="0px" y="0px" width="463.7px"
	 height="415.9px" viewBox="0 0 463.7 415.9" style="enable-background:new 0 0 463.7 415.9;" xml:space="preserve">
<style type="text/css">
	.st0{opacity:0.15;}
	.st1{fill:none;stroke:#000000;}
	.st2{fill:none;}
	.st3{opacity:0.8;}
	.st4{fill:#80C677;}
</style>
<defs>
</defs>
<g class="st0">
	<path class="st1" d="M220.4,299.8c0-40.7,11-71.4,32.9-92c21.9-20.6,51.8-31,89.7-31h71.8v-64.5c0-24.4-5.6-42.2-16.8-53.5
		c-11.2-11.3-28.8-17-52.9-17c-24.4,0-43.1,5.4-56.1,16.1c-13,10.8-19.4,25.3-19.1,43.6v29.2h-33.5v-31c0-26.4,9.6-48,28.8-64.9
		C284.4,18,311,9.5,345.1,9.5c33,0,58.3,7.9,76.1,23.6c17.8,15.8,26.7,42.1,26.7,79.1v209c0,17.5,1.1,33.3,3.4,47.5
		c2.3,14.2,5.6,26,9.9,35.5v5.6h-30.5c-3.7-6.3-6.9-14.3-9.5-24.1c-2.6-9.7-4.2-19.8-4.7-30.1c-7.2,16.3-19.6,30.2-37.4,41.5
		c-17.8,11.3-38.8,17-63.2,17c-30.1,0-53.5-9.2-70.3-27.7C228.8,367.9,220.4,339.1,220.4,299.8z M254.4,300.2
		c0,31.2,5.9,52.8,17.8,64.7c11.9,11.9,28.9,17.8,51,17.8c23.5,0,44.6-7.9,63.4-23.7c18.8-15.8,28.2-34.7,28.2-56.8v-95.9h-67.9
		c-31.2,0-54.5,7.8-69.7,23.4C262,245.5,254.4,269,254.4,300.2z"/>
</g>
<g class="st0">
	<path class="st2" d="M364.5,288c19.9-7,29.9-19.6,29.9-37.6v-0.4l-107.9-1.3c-3.2-0.1-6.1-0.1-8.9,0c-9.4,10.4-14.1,23.9-14.1,40.4
		c0,1.4,0,2.7,0.1,4.1c8.2,3.6,19.9,5.4,35.4,5.4C322.7,298.5,344.6,295,364.5,288z"/>
	<path class="st1" d="M401.4,373.6c-0.8,0.9-1.6,1.8-2.5,2.7c0.6,4.8,1.3,8.8,2.2,12.1c1.9,7.5,5.2,14.6,10.1,21.5h2.6
		c-4.3-7.2-7.5-14.8-9.7-23C403,383,402.1,378.6,401.4,373.6z"/>
	<path class="st1" d="M44.8,290.7c0-39.6,15.8-69.9,47.3-91.2c24.5-16.5,58-26.3,100.5-29.7c-64.9-0.5-113.1,8.8-144.4,28
		c-31.8,19.5-47.7,49.2-47.7,89c0,39.8,15.5,71.2,46.7,94.2c31.1,22.9,77,34.4,137.8,34.4c5.4,0,10.8-0.1,16-0.2
		c-49.1-1.4-87-12.3-113.4-32.5C59,361,44.8,330.3,44.8,290.7z"/>
	<path class="st1" d="M277.6,248.6c2.7,0,5.7,0,8.9,0l107.9,1.3v0.4c0,18.1-10,30.6-29.9,37.6c-19.9,7-41.8,10.5-65.6,10.5
		c-15.4,0-27.2-1.8-35.4-5.4c0.1,3.3,0.5,6.5,0.9,9.4c0,0,0,0,0,0c8.3,7,22.4,10.5,42.1,10.5c22.4,0,43-4.9,61.9-14.6
		c18.9-9.7,28.4-23.8,28.4-42.1v-14.2l-90.7-0.9c-8-0.1-15,0.2-21,1c-0.8,0.3-1.5,0.7-2.2,1.1C281.1,245,279.2,246.8,277.6,248.6z"
		/>
	<path class="st1" d="M397,146.7c0-11.7-4.5-20.8-13.5-27.1c-9-6.3-25.4-9.5-49.2-9.5c-21.2,0-36.6,3-46.2,9
		c-2.5,1.6-4.7,3.4-6.6,5.3c-0.7,1.9-1.2,3.9-1.6,6v4c1.5-1,3.1-2,4.9-2.9c9.2-4.3,24.2-6.5,45.1-6.5c26.1,0,43.4,2.2,51.8,6.7
		c8.5,4.4,12.7,10.4,12.7,17.8v18.5l2.6,0V146.7z"/>
	<path class="st1" d="M86.1,144.6c0-42.7,23.3-77.1,69.9-103.2C202.5,15.3,267.8,2.2,351.8,2.2c42.8,0,79.9,2.8,111.4,8.4V6.8
		c-32.1-4.2-68.9-6.3-110.5-6.3c-96.6,0-171.3,13.8-224,41.3c-52.7,27.5-79.1,64.4-79.1,110.5v6.5L271,160v-5.6l-184.9-0.8V144.6z"
		/>
	<path class="st1" d="M201,415.3c3.8,0.1,7.6,0.2,11.5,0.2c5.7,0,11.2-0.1,16.6-0.3c-3.3-0.1-6.6-0.3-9.8-0.6
		C213.4,414.9,207.3,415.1,201,415.3z"/>
	<path class="st1" d="M271,151.4v3l2.6,0V148l-2.3,0C271.1,149.1,271,150.2,271,151.4z"/>
	<path class="st1" d="M225,170.2c4.6-0.6,9.2-1.1,14-1.6l-7.2-0.1c-13.8-0.1-26.9,0.3-39.2,1.3c1,0,2,0,3.1,0L225,170.2z"/>
	<path class="st1" d="M131,384.5c-25.9-20.6-38.9-50.7-38.9-90.3c0-39.3,15.8-70.2,47.3-92.9c22.3-16,50.9-26.4,85.6-31.1l-29.3-0.3
		c-1,0-2.1,0-3.1,0c-42.6,3.3-76.1,13.2-100.5,29.7c-31.5,21.2-47.3,51.6-47.3,91.2c0,39.6,14.3,70.2,42.8,92
		c26.5,20.2,64.3,31.1,113.4,32.5c6.2-0.1,12.3-0.4,18.3-0.6C182.2,411.8,152.7,401.8,131,384.5z"/>
	<path class="st1" d="M306.2,241.3l90.7,0.9v-6.9l-67.5-0.4c-18.7,0-33.5,2.5-44.2,7.4C291.3,241.5,298.3,241.2,306.2,241.3z"/>
	<path class="st1" d="M274.4,315.9c9.2,7.6,23.1,11.4,41.7,11.4c20.4,0,38.9-6.2,55.7-18.5c16.8-12.3,25.2-27.1,25.2-44.3v-8.2
		c0,18.3-9.5,32.4-28.4,42.1c-18.9,9.7-39.6,14.6-61.9,14.6c-19.8,0-33.8-3.5-42.1-10.5c0,0,0,0,0,0c0,0,0,0,0,0
		C266.8,307.9,270.1,312.3,274.4,315.9z"/>
	<path class="st1" d="M271.2,147.9l-146-0.8v-10.8c0-39.6,20.1-71.4,60.2-95.5c40.1-24.1,96-36.1,167.7-36.1
		c43.4,0,80.1,4,110.1,12.1v-6.2C431.7,5,394.6,2.2,351.8,2.2c-84,0-149.3,13-195.9,39.1c-46.6,26.1-69.9,60.5-69.9,103.2v9
		l184.9,0.8v-3C271,150.2,271.1,149.1,271.2,147.9z"/>
	<path class="st1" d="M384.1,108.6c-8.6-8.2-23.5-12.3-44.7-12.3c-20.1,0-35.1,3.7-45.1,11.2c-6.2,4.6-10.5,10.3-12.8,16.9
		c1.9-2,4.1-3.7,6.6-5.3c9.6-6,25-9,46.2-9c23.8,0,40.2,3.2,49.2,9.5c9,6.3,13.5,15.3,13.5,27.1v-3
		C397,128.5,392.7,116.8,384.1,108.6z"/>
	<path class="st1" d="M402,372.8c-0.2,0.3-0.4,0.5-0.7,0.8c0.8,5,1.7,9.4,2.7,13.3c2.1,8.2,5.4,15.8,9.7,23h1.7
		c-4.6-7.2-8.1-15.2-10.5-24.1C403.8,381.8,402.8,377.4,402,372.8z"/>
	<path class="st1" d="M307.3,169.1h87.1v-0.9L271,167.3c-11.1,0-21.8,0.5-32,1.3l58.9,0.5C301,169.1,304.1,169,307.3,169.1z"/>
	<path class="st1" d="M273.8,140.8c-0.2,1.4-0.2,2.8-0.2,4.2v3l5.6,0v-7.3l-5.3,0C273.8,140.7,273.8,140.7,273.8,140.8z"/>
	<path class="st1" d="M229.1,415.2c4.1,0.2,8.3,0.3,12.6,0.3c5.7,0,11.3-0.1,16.8-0.4c-3.4-0.2-6.8-0.5-10-0.8
		C242.2,414.7,235.7,415,229.1,415.2z"/>
	<path class="st1" d="M273.8,140.8c0,0,0.1-0.1,0.1-0.1l-0.1,0C273.8,140.7,273.8,140.7,273.8,140.8z"/>
	<path class="st1" d="M397,256.4v-14.2h0L397,256.4C397,256.4,397,256.4,397,256.4z"/>
	<path class="st1" d="M279.8,129.9v0.6c0.4-2.1,0.9-4.1,1.6-6c-0.5,0.5-1,1.1-1.4,1.6C279.8,127.4,279.8,128.6,279.8,129.9z"/>
	<path class="st1" d="M397,169.1v-22.4c0,0,0,0,0,0v21.5l-2.6,0v0.9H397z"/>
	<path class="st1" d="M283,243.4c0.7-0.4,1.5-0.7,2.2-1.1c-0.4,0-0.7,0.1-1.1,0.1c-0.2,0.1-0.3,0.2-0.5,0.4
		C283.4,243,283.2,243.2,283,243.4z"/>
	<path class="st1" d="M240.4,413.2c-6.8,0.6-13.8,1.1-21.1,1.4c3.2,0.2,6.5,0.4,9.8,0.6c6.6-0.2,13.1-0.5,19.4-1
		C245.7,413.9,243,413.6,240.4,413.2z"/>
	<path class="st1" d="M273.8,140.8c-1.3,2.2-2.2,4.5-2.6,7.2l2.3,0v-3C273.6,143.5,273.6,142.1,273.8,140.8z"/>
	<path class="st1" d="M273.6,170.8c7.8-0.9,15.9-1.4,24.2-1.6l-58.9-0.5c-4.8,0.4-9.5,0.9-14,1.6L273.6,170.8z"/>
	<path class="st1" d="M406.9,366.7c-1.5,2.1-3.2,4.1-4.9,6.2c0.8,4.6,1.8,8.9,2.9,13c2.4,8.9,5.9,16.9,10.5,24.1h5.4
		c-4.3-6.9-7.7-15.2-10.1-24.9C409.2,378.9,408,372.8,406.9,366.7z"/>
	<path class="st1" d="M329.5,234.9l67.5,0.4v6.9h0v14.2c0,0,0,0,0,0v8.2c0,17.2-8.4,32-25.2,44.3c-16.8,12.3-35.3,18.5-55.7,18.5
		c-18.6,0-32.5-3.8-41.7-11.4c-4.3-3.6-7.6-8-9.9-13.3c2,12,6.7,21.3,14.2,28c10.2,9,24.6,13.5,43.2,13.5c20.6,0,39.3-7.2,56.1-21.7
		c16.8-14.5,25.2-31,25.2-49.7v-46.4H346c-27.8,0-48.4,5.4-61.9,16.2c0.4,0,0.7-0.1,1.1-0.1C296,237.3,310.7,234.9,329.5,234.9z"/>
	<path class="st1" d="M402.8,138.5c0-19.2-4.7-33.7-14.2-43.4c-9.5-9.7-24.4-14.6-44.7-14.6c-20.4,0-36.1,4.2-47.3,12.7
		c-10.3,7.8-15.8,18.8-16.6,33c0.5-0.6,0.9-1.1,1.4-1.6c2.4-6.7,6.6-12.3,12.8-16.9c10-7.5,25.1-11.2,45.1-11.2
		c21.2,0,36.1,4.1,44.7,12.3s12.9,19.9,12.9,35v3c0,0,0,0,0,0v22.4h5.8V138.5z"/>
	<path class="st1" d="M140.5,297.2c0-39,15.1-70.2,45.2-93.5c23.2-18,52.5-28.9,88-32.9l-48.7-0.5c-34.7,4.7-63.2,15-85.6,31.1
		c-31.5,22.6-47.3,53.6-47.3,92.9c0,39.6,13,69.7,38.9,90.3c21.7,17.3,51.2,27.3,88.3,30.1c7.2-0.4,14.2-0.8,21.1-1.4
		c-26.3-4-47.9-13.2-64.9-27.6C152.1,365.6,140.5,336.2,140.5,297.2z"/>
	<path class="st1" d="M165.4,140.2v-13.3c0-36.1,16.6-65.1,49.9-86.9c33.3-21.8,79-32.7,137.2-32.7c45.9,0,82.8,6.6,110.7,19.8V16.9
		c-29.9-8-66.6-12.1-110.1-12.1c-71.7,0-127.6,12-167.7,36.1c-40.1,24.1-60.2,55.9-60.2,95.5v10.8l146,0.8c0.4-2.6,1.2-5,2.6-7.2
		c0,0,0-0.1,0-0.1L165.4,140.2z"/>
	<path class="st1" d="M279.1,138.1v2.6l0.6,0v-6.2c-0.2,0.1-0.4,0.3-0.5,0.4C279.2,135.9,279.1,137,279.1,138.1z"/>
	<path class="st1" d="M258.5,415.1c4.4,0.3,8.9,0.4,13.6,0.4c6.1,0,11.9-0.2,17.6-0.6c-4.6-0.2-9.1-0.6-13.4-1.1
		C270.5,414.3,264.6,414.8,258.5,415.1z"/>
	<path class="st1" d="M263.4,289c0-16.5,4.7-30,14.1-40.4c-0.9,0-1.7,0-2.6,0.1c-9.6,8.1-14.4,19.1-14.4,33.1
		c0,3.7,0.3,7.1,0.8,10.4c0.7,0.3,1.4,0.7,2.1,1C263.5,291.8,263.4,290.4,263.4,289z"/>
	<path class="st1" d="M283,243.4c-2.2,1.1-4.2,2.4-6,3.7c-0.7,0.5-1.3,1-2,1.5c0.8,0,1.7,0,2.6-0.1C279.2,246.8,281.1,245,283,243.4
		z"/>
	<path class="st1" d="M279.3,134.9c0.2-0.1,0.3-0.3,0.5-0.4v-4C279.5,131.9,279.4,133.4,279.3,134.9z"/>
	<path class="st1" d="M263.5,293.1c-0.7-0.3-1.4-0.6-2.1-1c0.6,3.8,1.6,7.3,3,10.4c0,0,0,0,0,0C264,299.6,263.7,296.4,263.5,293.1z"
		/>
	<path class="st1" d="M264.5,302.5C264.5,302.5,264.5,302.6,264.5,302.5C264.5,302.6,264.5,302.5,264.5,302.5
		C264.5,302.5,264.5,302.5,264.5,302.5z"/>
	<path class="st1" d="M275,248.7c-2.2,0.1-4.3,0.2-6.2,0.3c-7.1,10.7-11,24.1-11.7,40.4c0.2,0.2,0.5,0.4,0.7,0.6
		c1.1,0.8,2.3,1.5,3.6,2.2c-0.5-3.2-0.8-6.7-0.8-10.4C260.6,267.7,265.4,256.7,275,248.7z"/>
	<path class="st1" d="M279.3,134.9c-2.3,1.7-4.1,3.6-5.4,5.8l5.3,0v-2.6C279.1,137,279.2,135.9,279.3,134.9z"/>
	<path class="st1" d="M394.4,169.1h-87.1c-3.2,0-6.3,0-9.4,0.1l96.5,0.8V169.1z"/>
	<path class="st1" d="M267.7,412.4c-6.2,0.7-12.6,1.3-19.2,1.8c3.3,0.3,6.6,0.6,10,0.8c6.1-0.3,12-0.7,17.8-1.3
		C273.3,413.4,270.5,413,267.7,412.4z"/>
	<polygon class="st1" points="397,169.9 397,169.1 394.4,169.1 394.4,169.9 	"/>
	<path class="st1" d="M264.5,302.5c-1.4-3.2-2.4-6.6-3-10.4c-1.3-0.7-2.5-1.4-3.6-2.2c-0.3-0.2-0.5-0.4-0.7-0.6
		c-0.1,1.5-0.1,2.9-0.1,4.4C258.9,297,261.4,299.9,264.5,302.5z"/>
	<path class="st1" d="M279.9,126.1c-3.4,4.1-5.4,9-6.1,14.5l0.1,0c1.3-2.2,3.1-4.1,5.4-5.8c0.1-1.5,0.3-3,0.5-4.4v-0.6
		C279.8,128.6,279.8,127.4,279.9,126.1z"/>
	<path class="st1" d="M275,248.7c0.6-0.5,1.3-1,2-1.5c1.8-1.4,3.8-2.6,6-3.7c0.2-0.2,0.4-0.4,0.7-0.6c0.2-0.1,0.3-0.2,0.5-0.4
		c-4.9,0.7-9.1,1.6-12.7,2.9c-0.9,1.2-1.8,2.4-2.6,3.6C270.7,248.8,272.8,248.7,275,248.7z"/>
	<path class="st1" d="M297.9,169.1c-8.4,0.2-16.5,0.7-24.2,1.6l81,0.9h39.7v-1.7L297.9,169.1z"/>
	<path class="st1" d="M248.5,414.2c6.6-0.5,13-1.1,19.2-1.8c-2.3-0.4-4.5-0.9-6.8-1.4c-6.6,0.9-13.5,1.6-20.5,2.2
		C243,413.6,245.7,413.9,248.5,414.2z"/>
	<path class="st1" d="M279.1,237.2c-2.9,2.5-5.4,5.2-7.7,8.1c3.6-1.3,7.8-2.2,12.7-2.9c13.5-10.8,34.1-16.2,61.9-16.2h57.2v46.4
		c0,18.6-8.4,35.2-25.2,49.7c-16.8,14.5-35.5,21.7-56.1,21.7c-18.6,0-33-4.5-43.2-13.5c-7.5-6.7-12.3-16-14.2-28c0,0,0,0,0,0
		c-3-2.6-5.5-5.5-7.5-8.8c0,0.3,0,0.6,0,0.9c0,24.4,5.7,41.8,17,52.2c11.3,10.5,27.4,15.7,48.4,15.7c22.4,0,42.7-7.7,61.1-23.2
		c18.3-15.5,27.5-33.7,27.5-54.6v-66.7h-62.8C316.9,218.1,293.9,224.5,279.1,237.2z"/>
	<path class="st1" d="M185.6,203.7c-30.1,23.4-45.2,54.5-45.2,93.5c0,39,11.7,68.4,35,88.4c17,14.5,38.6,23.7,64.9,27.6
		c7.1-0.6,13.9-1.4,20.5-2.2c-19-4.6-34.8-13-47.5-25.4c-20.2-19.6-30.3-49.1-30.3-88.4c0-39.6,13.3-70.4,40-92.5
		c26.7-22.1,62.6-33.1,107.9-33.1h23.7l-81-0.9C238.1,174.7,208.8,185.7,185.6,203.7z"/>
	<path class="st1" d="M352.5,7.4c-58.2,0-103.9,10.9-137.2,32.7c-33.3,21.8-49.9,50.7-49.9,86.9v13.3l108.4,0.4
		c0.7-5.6,2.7-10.4,6.1-14.5c0.8-14.2,6.4-25.2,16.6-33c11.2-8.5,26.9-12.7,47.3-12.7c20.4,0,35.3,4.9,44.7,14.6
		c9.5,9.7,14.2,24.2,14.2,43.4v30.5H397v0.9l-2.6,0v1.7h16.6v-46.4c0-20.6-5.2-36.2-15.5-46.7c-10.3-10.5-27.1-15.7-50.3-15.7
		c-22.6,0-40.1,4.6-52.2,13.8c-12.2,9.2-18.3,22.4-18.3,39.6v18.5h-71.4v-20.2c0-31.2,13-56.7,38.9-76.3
		c25.9-19.6,61.4-29.5,106.4-29.5c44.1,0,78,9.2,101.5,27.5c4.9,3.8,9.2,8.2,13.1,13v-22C435.3,14,398.4,7.4,352.5,7.4z"/>
	<path class="st1" d="M413.1,357c-1.8,3.3-3.8,6.6-6.1,9.7c1,6.1,2.3,12.2,3.8,18.2c2.4,9.7,5.8,18.1,10.1,24.9h7.3
		c-3.7-6.3-6.8-14.3-9.2-23.9C416.5,376.4,414.5,366.7,413.1,357z"/>
	<path class="st1" d="M357.2,397c-18.6,10.1-41.1,16.1-67.5,17.9c2.5,0.1,5.1,0.2,7.7,0.2c29.8,0,54.5-5.8,74-17.4
		c10.9-6.5,20.1-13.6,27.5-21.3c-0.4-3.2-0.8-6.7-1.1-10.6C388.1,377,374.6,387.5,357.2,397z"/>
	<path class="st1" d="M399.9,363c-0.7,0.9-1.4,1.8-2.2,2.7c0.3,3.9,0.7,7.4,1.1,10.6c0.9-0.9,1.7-1.8,2.5-2.7
		C400.8,370.3,400.4,366.8,399.9,363z"/>
	<path class="st1" d="M401.4,373.6c0.2-0.3,0.4-0.5,0.7-0.8c-0.6-3.3-1.1-6.8-1.6-10.4c-0.1,0.2-0.3,0.4-0.4,0.6
		C400.4,366.8,400.8,370.3,401.4,373.6z"/>
	<path class="st1" d="M406.9,366.7c-0.6-3.8-1.2-7.6-1.6-11.4c-1.5,2.4-3.1,4.8-4.9,7.1c0.5,3.6,1,7.1,1.6,10.4
		C403.8,370.8,405.4,368.8,406.9,366.7z"/>
	<path class="st1" d="M397.8,365.7c-0.2-2.4-0.4-5-0.6-7.7c-10.9,14-28.9,26.8-54,38.5c-18.9,8.9-41.3,14.6-67,17.2
		c4.3,0.5,8.8,0.9,13.4,1.1c26.4-1.8,48.9-7.8,67.5-17.9C374.6,387.5,388.1,377,397.8,365.7z"/>
	<path class="st1" d="M397.8,365.7c0.8-0.9,1.5-1.8,2.2-2.7c-0.3-2.5-0.5-5-0.8-7.7c-0.6,0.9-1.3,1.8-2,2.7
		C397.4,360.7,397.5,363.2,397.8,365.7z"/>
	<path class="st1" d="M400.4,362.4c-0.3-2.5-0.6-5-0.9-7.6c-0.1,0.2-0.2,0.3-0.3,0.5c0.2,2.7,0.5,5.2,0.8,7.7
		C400.1,362.8,400.2,362.6,400.4,362.4z"/>
	<path class="st1" d="M257.1,289.3c0.7-16.2,4.6-29.7,11.7-40.4c-2,0.1-3.9,0.3-5.6,0.5c-7.5,5.5-11.2,13.6-11.2,24.5
		c0,4.5,0.6,8.6,1.7,12.4C254.8,287.4,255.9,288.4,257.1,289.3z"/>
	<path class="st1" d="M333.3,397c-18.7,7.4-40.6,12.5-65.7,15.5c2.8,0.5,5.7,1,8.6,1.3c25.7-2.6,48-8.4,67-17.2
		c25.1-11.7,43-24.6,54-38.5c0-0.4-0.1-0.8-0.1-1.2C384.2,371.9,363,385.3,333.3,397z"/>
	<path class="st1" d="M253.8,286.4c0.8,2.6,1.9,5.1,3.2,7.4c0-1.5,0-3,0.1-4.4C255.9,288.4,254.8,287.4,253.8,286.4z"/>
	<path class="st1" d="M399.2,355.3c0-0.3-0.1-0.6-0.1-0.9c-0.6,0.8-1.3,1.6-2,2.4c0,0.4,0.1,0.8,0.1,1.2
		C397.9,357.1,398.5,356.2,399.2,355.3z"/>
	<path class="st1" d="M271.4,245.3c-2.9,1-5.5,2.3-7.5,3.7c-0.2,0.1-0.4,0.3-0.6,0.5c1.7-0.2,3.5-0.4,5.6-0.5
		C269.6,247.7,270.5,246.5,271.4,245.3z"/>
	<path class="st1" d="M333.3,397c29.7-11.7,50.9-25.1,63.8-40.1c0-0.8-0.1-1.6-0.1-2.4c-14,16.3-38.8,30.6-74.2,42.8
		c-17.9,6.2-38.6,10.8-61.9,13.8c2.2,0.5,4.5,1,6.8,1.4C292.8,409.5,314.7,404.3,333.3,397z"/>
	<path class="st1" d="M263.2,249.5c-4.2,0.5-7.3,1.3-9.5,2.3c-5.2,2.4-7.7,7.1-7.7,14c0,8.3,2.6,15.2,7.7,20.5
		c-1.1-3.8-1.7-7.9-1.7-12.4C252.1,263.1,255.8,255,263.2,249.5z"/>
	<polygon class="st1" points="394.4,172.1 394.4,171.6 354.7,171.6 	"/>
	<path class="st1" d="M450.1,36.2C426.6,17.8,392.7,8.7,348.6,8.7c-45,0-80.5,9.8-106.4,29.5c-25.9,19.6-38.9,45.1-38.9,76.3v20.2
		h71.4v-18.5c0-17.2,6.1-30.4,18.3-39.6c12.2-9.2,29.6-13.8,52.2-13.8c23.2,0,40,5.2,50.3,15.7c10.3,10.5,15.5,26,15.5,46.7v46.4
		h-16.6v0.4l-39.7-0.4H331c-45.3,0-81.3,11-107.9,33.1c-26.7,22.1-40,52.9-40,92.5c0,39.3,10.1,68.7,30.3,88.4
		c12.7,12.4,28.6,20.9,47.5,25.4c23.3-3,44-7.6,61.9-13.8c35.4-12.2,60.1-26.4,74.2-42.8c0,0.8,0.1,1.6,0.1,2.4
		c0.7-0.8,1.4-1.6,2-2.4c0,0.3,0.1,0.6,0.1,0.9c0.1-0.2,0.2-0.3,0.3-0.5c0.3,2.6,0.5,5.1,0.9,7.6c1.8-2.3,3.5-4.7,4.9-7.1
		c0.4,3.8,1,7.6,1.6,11.4c2.3-3.1,4.4-6.4,6.1-9.7c1.4,9.7,3.4,19.4,5.8,29c2.4,9.6,5.5,17.6,9.2,23.9h35V49.2
		C459.3,44.3,454.9,40,450.1,36.2z M410.9,284.7c0,20.9-9.2,39.1-27.5,54.6c-18.3,15.5-38.7,23.2-61.1,23.2
		c-20.9,0-37.1-5.2-48.4-15.7c-11.3-10.5-17-27.9-17-52.2c0-0.3,0-0.6,0-0.9c-1.4-2.3-2.4-4.8-3.2-7.4c-5.2-5.3-7.7-12.2-7.7-20.5
		c0-6.9,2.6-11.5,7.7-14c2.2-1,5.3-1.8,9.5-2.3c0.2-0.2,0.4-0.3,0.6-0.5c2.1-1.4,4.6-2.7,7.5-3.7c2.3-2.9,4.9-5.7,7.7-8.1
		c14.8-12.8,37.8-19.1,69-19.1h62.8V284.7z"/>
</g>
<g class="st3">
	<path class="st4" d="M254.2,302.4c0-40.4,7.7-70.5,23.2-90.3s38.3-29.7,68.4-29.7h58.5V96.8c0-25.5-4.9-43.9-14.8-55
		C379.5,30.6,364.3,25,343.6,25c-21.2,0-37.5,5.9-48.8,17.6c-11.3,11.8-16.8,26.7-16.6,44.7v43.4h-14.2V85.6
		c0-21.8,7-39.6,21.1-53.5c14-13.9,33.5-20.9,58.5-20.9c24.4,0,42.9,6.4,55.5,19.4C411.7,43.5,418,65,418,95.1v238.2
		c0,18.9,1.1,34.3,3.2,46c2.1,11.8,4.7,21.1,7.5,28v2.6h-12.5c-2.9-6-5.3-13.9-7.3-23.7c-2-9.7-3.3-19.6-3.9-29.7
		c-4.6,15.8-14.4,29.1-29.5,40c-15.1,10.9-32,16.3-51,16.3c-22.9,0-40.4-8-52.5-23.9C260.2,373.1,254.2,344.2,254.2,302.4z
		 M267.1,303.2c0,37.8,5.3,63.4,15.9,76.5c10.6,13.2,25.5,19.8,44.7,19.8c19.2,0,36.8-6.8,52.7-20.4c15.9-13.6,23.9-32,23.9-55.3
		V195.3h-57.6c-26.9,0-46.9,9-60,27.1C273.6,240.4,267.1,267.4,267.1,303.2z"/>
</g>
</svg>
