<!-- Generator: Adobe Illustrator 24.0.3, SVG Export Plug-In  -->
<svg version="1.1" xmlns="http://www.w3.org/2000/svg" xmlns:xlink="http://www.w3.org/1999/xlink" x="0px" y="0px" width="474.7px"
	 height="500.3px" viewBox="0 0 474.7 500.3" style="enable-background:new 0 0 474.7 500.3;" xml:space="preserve">
<style type="text/css">
	.st0{opacity:3.000000e-02;}
	.st1{opacity:5.000000e-02;}
	.st2{opacity:0.5;}
	.st3{fill:#81C677;}
</style>
<defs>
</defs>
<g class="st0">
	<path d="M0,123.1h19.7c0.1,0,0.2,0,0.3,0.1c0.1,0,0.1,0.1,0.2,0.2c0,0.1,0.1,0.2,0.1,0.3c0,0.6,0,1.1,0,1.6c0,0.5,0,1,0,1.6H0.5
		c-0.1,0-0.2,0-0.3-0.1c-0.1,0-0.1-0.1-0.2-0.2c0-0.1-0.1-0.2-0.1-0.3c0-0.6,0-1.1,0-1.6C0,124.2,0,123.6,0,123.1z M0,143.7h18.9
		c0.1,0,0.2,0,0.3,0.1c0.1,0,0.1,0.1,0.2,0.2c0,0.1,0.1,0.2,0.1,0.3c0,0.4,0,0.7,0,1.1c0,0.4,0,0.7,0,1.1c0,0.3,0,0.7,0,1.1H0.5
		c-0.1,0-0.2,0-0.3-0.1c-0.1,0-0.1-0.1-0.2-0.2c0-0.1-0.1-0.2-0.1-0.3c0-0.4,0-0.8,0-1.1c0-0.3,0-0.7,0-1.1C0,144.4,0,144,0,143.7z
		 M15.4,111.6c1.1,0,2.1,0.1,3.1,0.2c0.9,0.1,1.7,0.3,2.4,0.4c0.6,0.2,1,0.4,1.2,0.5c0.1,0,0.1,0.1,0.1,0.2c0,0.1,0,0.1,0,0.2
		c0,0.5,0,1.1,0,1.6c0,0.5,0,1.1,0,1.6h-0.7c-0.6-0.3-1.2-0.4-1.9-0.6c-0.7-0.1-1.3-0.2-2.1-0.3c-0.7-0.1-1.5-0.1-2.3-0.1
		c-0.9,0-1.7,0.1-2.3,0.3c-0.6,0.2-1.1,0.5-1.6,0.8c-0.3,0.3-0.6,0.7-0.8,1.1c-0.2,0.4-0.3,0.9-0.4,1.5c-0.1,0.6-0.1,1.3-0.1,2
		c0,1.8,0,3.6,0,5.5c0,1.8,0,3.6,0,5.5s0,3.7,0,5.5s0,3.7,0,5.5c0,0.4,0,0.8,0,1.2c0,0.3,0,0.8,0,1.2l0.2,0.8H5.8c0-1.7,0-3.3,0-5
		c0-1.7,0-3.3,0-5c0-1.7,0-3.3,0-5s0-3.3,0-5c0-1.7,0-3.3,0-5c0-1.7,0.2-3.1,0.7-4.3c0.4-1.2,1.1-2.2,1.9-3.1c0.8-0.8,1.8-1.4,3-1.8
		C12.6,111.8,13.9,111.6,15.4,111.6z"/>
	<path d="M38.6,122c1.6,0,3.1,0.3,4.4,0.8c1.3,0.5,2.5,1.2,3.4,2.1c1,0.9,1.7,2,2.2,3.2c0.5,1.3,0.8,2.6,0.8,4.1v5.2
		c0,2.1-0.5,3.9-1.4,5.5c-0.9,1.6-2.2,2.8-3.8,3.7c-1.6,0.9-3.5,1.3-5.5,1.3c-1.6,0-3.1-0.3-4.4-0.8c-1.3-0.5-2.5-1.2-3.4-2.1
		c-1-0.9-1.7-2-2.2-3.3c-0.5-1.3-0.8-2.6-0.8-4.1v-5.2c0-2.1,0.5-3.9,1.4-5.5c0.9-1.6,2.2-2.8,3.8-3.7C34.8,122.4,36.6,122,38.6,122
		z M38.9,125.9c-1.4,0-2.7,0.3-3.6,0.9c-1,0.6-1.7,1.4-2.3,2.4c-0.5,1-0.8,2.1-0.8,3.4v4.7c0,1,0.2,2,0.5,2.8
		c0.3,0.8,0.8,1.5,1.3,2.1c0.5,0.5,1.2,1,1.9,1.3c0.7,0.3,1.6,0.5,2.5,0.5c1.4,0,2.7-0.3,3.6-0.9c1-0.6,1.7-1.4,2.3-2.4
		c0.5-1,0.8-2.1,0.8-3.4v-4.7c0-1.1-0.1-2.1-0.4-2.9s-0.7-1.6-1.3-2.1c-0.5-0.5-1.1-0.9-1.9-1.2C40.7,126,39.8,125.9,38.9,125.9z"/>
	<path d="M61.4,147.5c-0.4,0-0.9,0-1.3,0s-0.8,0-1.2,0c-0.4,0-0.9,0-1.3,0c-0.1,0-0.2,0-0.2,0c-0.1,0-0.1,0-0.2-0.1
		c0,0-0.1-0.1-0.1-0.2c0-0.1,0-0.1,0-0.2c0-1.7,0-3.3,0-5c0-1.7,0-3.3,0-4.9c0-1.6,0-3.3,0-4.9c0-1.7,0-3.3,0-5c0-1,0-1.9,0-2.7
		c0-0.8,0-1.4,0-2c0.5,0,1,0,1.4,0c0.4,0,0.8,0,1.2,0c0.4,0,0.8,0,1.2,0c0.1,0,0.2,0,0.3,0.1c0.1,0,0.1,0.1,0.2,0.2
		c0,0.1,0.1,0.2,0.1,0.3c0,2.7,0,5.4,0,8.1s0,5.5,0,8.2C61.4,142,61.4,144.7,61.4,147.5z M76.9,147.5c-0.7,0-1.3,0-1.9,0
		c-0.6,0-1.2,0-1.9,0c-0.1,0-0.2,0-0.3-0.1c-0.1,0-0.1-0.1-0.2-0.2c0-0.1-0.1-0.2-0.1-0.3c0-1.9,0-3.8,0-5.7c0-1.9,0-3.8,0-5.7
		c0-1.9,0-3.8,0-5.7c0-1.3-0.3-2.2-0.9-2.8c-0.6-0.6-1.5-0.9-2.6-0.9c-0.7,0-1.3,0.1-2,0.3c-0.7,0.2-1.4,0.5-2.1,0.9
		c-0.7,0.4-1.4,0.9-2.1,1.6c-0.7,0.6-1.4,1.4-2.1,2.3v-4.5h1.4c0.7-0.9,1.5-1.8,2.3-2.5c0.8-0.7,1.7-1.3,2.7-1.6
		c1-0.4,2-0.6,3.1-0.6c1.1,0,2,0.2,2.8,0.5c0.8,0.3,1.5,0.8,2.1,1.5c0.5,0.6,1,1.4,1.3,2.2c0.3,0.9,0.4,1.8,0.4,2.8c0,1.5,0,3,0,4.5
		s0,3,0,4.5c0,1.5,0,3,0,4.6c0,0.8,0,1.6,0,2.4C76.9,145.9,76.9,146.7,76.9,147.5z"/>
	<path d="M84.3,122.5h19.6c0.2,0,0.3,0,0.4,0.1c0.1,0.1,0.1,0.2,0.1,0.4c0,0.4,0,0.7,0,1.1s0,0.7,0,1.1c0,0.4,0,0.7,0,1.2H84.8
		c-0.1,0-0.2,0-0.2,0c-0.1,0-0.1,0-0.2-0.1s-0.1-0.1-0.1-0.2c0-0.1,0-0.1,0-0.2c0-0.4,0-0.8,0-1.2c0-0.4,0-0.7,0-1.1
		C84.3,123.2,84.3,122.8,84.3,122.5z M104.4,143.6c0,0.6,0,1.1,0,1.6c0,0.5,0,1.1,0,1.6c0,0.2,0,0.3-0.1,0.4
		c-0.1,0.1-0.2,0.2-0.4,0.2c-0.1,0-0.3,0-0.6,0c-0.3,0-0.7,0-1.1,0s-0.8,0-1.2,0c-0.4,0-0.8,0-1.1,0c-1.4,0-2.6-0.2-3.8-0.5
		c-1.1-0.3-2.1-0.8-3-1.6c-0.9-0.7-1.5-1.7-2-2.9c-0.5-1.2-0.7-2.7-0.7-4.5c0-1.6,0-3.1,0-4.7c0-1.6,0-3.1,0-4.7c0-1.6,0-3.1,0-4.7
		c0-1.6,0-3.1,0-4.7c0-0.8,0-1.6,0-2.3s0-1.6,0-2.4c0.7,0,1.3,0,1.9,0c0.6,0,1.3,0,1.9,0c0.1,0,0.2,0,0.3,0.1c0.1,0,0.1,0.1,0.2,0.2
		c0,0.1,0.1,0.2,0.1,0.3c0,2.5,0,5,0,7.5c0,2.5,0,5,0,7.6c0,2.5,0,5,0,7.5c0,1.2,0.1,2.1,0.3,2.9c0.2,0.8,0.5,1.4,1,1.8
		c0.4,0.4,0.9,0.7,1.6,0.9c0.7,0.2,1.5,0.3,2.5,0.3c0.6,0,1.2,0,1.8,0c0.6,0,1.2,0,1.8,0H104.4z"/>
	<path d="M114.7,131.3h16.5c0.1,0,0.2,0,0.3,0.1c0.1,0,0.1,0.1,0.2,0.2c0,0.1,0.1,0.2,0.1,0.3c0,0.6,0,1.2,0,1.8c0,0.6,0,1.2,0,1.9
		h-16.5c-0.1,0-0.2,0-0.2,0c-0.1,0-0.1,0-0.2-0.1s-0.1-0.1-0.1-0.2c0-0.1,0-0.1,0-0.2c0-0.7,0-1.3,0-1.9
		C114.7,132.5,114.7,131.9,114.7,131.3z"/>
	<path d="M149.5,126.7h3.6c0.1,0,0.2,0,0.3,0c0.1,0,0.1,0.1,0.2,0.2c0,0.1,0.1,0.2,0.1,0.3c0.3,1.1,0.6,2.3,0.8,3.6
		c0.3,1.3,0.5,2.6,0.8,4c0.3,1.4,0.6,2.9,0.8,4.5c0.3,1.6,0.5,3.2,0.7,5h0.8c0.1-2.1,0.3-4.1,0.4-6c0.2-1.9,0.3-3.7,0.5-5.5
		c0.2-1.8,0.4-3.5,0.6-5.2c0.2-1.7,0.4-3.4,0.6-5.1c0.4,0,0.9,0,1.3,0s0.8,0,1.3,0s0.8,0,1.2,0c0.1,0,0.2,0,0.3,0
		c0.1,0,0.1,0.1,0.2,0.2c0,0.1,0,0.2,0,0.4c-0.3,1.8-0.5,3.7-0.8,5.7c-0.3,2-0.6,4.1-0.9,6.2c-0.3,2.1-0.6,4.2-1,6.3
		c-0.3,2.1-0.7,4.2-1,6.2c-0.4,0-0.8,0-1.2,0c-0.4,0-0.8,0-1.2,0c-0.4,0-0.8,0-1.2,0c-0.4,0-0.8,0-1.1,0c-0.3,0-0.5-0.1-0.6-0.2
		c-0.1-0.2-0.3-0.5-0.4-0.9c-0.2-0.8-0.4-1.6-0.6-2.4c-0.2-0.8-0.4-1.7-0.6-2.7c-0.2-0.9-0.4-1.9-0.6-3c-0.2-1.1-0.4-2.3-0.6-3.5
		c-0.2-1.3-0.3-2.6-0.5-4.1h-0.8c-0.1,1.2-0.3,2.4-0.4,3.5s-0.3,2.1-0.4,3c-0.1,0.9-0.3,1.8-0.4,2.6c-0.2,0.8-0.3,1.7-0.5,2.5
		c-0.2,0.8-0.4,1.7-0.5,2.6s-0.4,1.8-0.7,2.8c-0.6,0-1.1,0-1.7,0c-0.5,0-1.1,0-1.6,0s-1,0-1.5,0c-0.3,0-0.6-0.1-0.7-0.2
		c-0.1-0.2-0.2-0.5-0.3-1.1c-0.2-1.3-0.4-3-0.7-4.8c-0.3-1.9-0.6-3.9-0.9-6c-0.3-2.1-0.6-4.3-0.9-6.5c-0.3-2.2-0.6-4.3-0.9-6.3
		c0.4,0,0.8,0,1.3,0c0.4,0,0.9,0,1.3,0c0.4,0,0.9,0,1.3,0c0.1,0,0.2,0,0.3,0.1c0.1,0,0.1,0.1,0.2,0.2c0.1,0.1,0.1,0.2,0.1,0.3
		c0.1,1.2,0.3,2.6,0.4,4.2c0.2,1.6,0.4,3.4,0.5,5.2c0.2,1.9,0.4,3.8,0.6,5.8c0.2,2,0.3,4,0.5,5.9h0.8c0.3-1.8,0.5-3.4,0.8-5
		c0.3-1.6,0.5-3.1,0.8-4.5c0.3-1.5,0.6-2.9,0.9-4.2C148.8,129.2,149.1,127.9,149.5,126.7z"/>
	<path d="M168.9,143.7h21.2c0.1,0,0.2,0,0.3,0.1c0.1,0,0.1,0.1,0.2,0.2c0,0.1,0.1,0.2,0.1,0.3c0,0.4,0,0.7,0,1.1c0,0.4,0,0.7,0,1.1
		c0,0.4,0,0.7,0,1.1h-21.2c-0.1,0-0.2,0-0.3-0.1c-0.1,0-0.1-0.1-0.2-0.2c0-0.1-0.1-0.2-0.1-0.3c0-0.4,0-0.7,0-1.1c0-0.4,0-0.7,0-1.1
		C168.9,144.4,168.9,144,168.9,143.7z M177.9,144.8V143c0-0.7,0-1.3,0-2s0-1.3,0-2c0-0.8,0-1.7,0-2.5c0-0.8,0-1.7,0-2.5s0-1.7,0-2.5
		c0-0.8,0-1.7,0-2.5c0-0.8,0-1.7,0-2.5h-0.7c-0.8,0-1.6,0-2.4,0c-0.8,0-1.6,0-2.4,0c-0.8,0-1.6,0-2.4,0c-0.1,0-0.2,0-0.3-0.1
		c-0.1,0-0.1-0.1-0.2-0.2c0-0.1-0.1-0.2-0.1-0.3c0-0.6,0-1.1,0-1.6c0-0.5,0-1.1,0-1.6c1.3,0,2.7,0,4,0c1.3,0,2.7,0,4,0
		c1.3,0,2.7,0,4,0c0.1,0,0.2,0,0.3,0.1c0.1,0,0.1,0.1,0.2,0.2c0,0.1,0.1,0.2,0.1,0.3c0,1.5,0,3,0,4.5c0,1.5,0,3,0,4.4
		c0,1.5,0,2.9,0,4.4s0,2.9,0,4.3c0,1.4,0,2.8,0,4.2H177.9z M177.1,111.1c0.4,0,0.9,0,1.3,0c0.5,0,0.9,0,1.4,0c0.5,0,0.9,0,1.4,0
		c0.5,0,0.9,0,1.3,0c0.2,0,0.3,0,0.4,0.1c0.1,0.1,0.1,0.2,0.1,0.4v4.6c-0.4,0-0.9,0-1.3,0c-0.5,0-0.9,0-1.4,0c-0.5,0-0.9,0-1.4,0
		c-0.5,0-0.9,0-1.3,0c-0.2,0-0.3,0-0.4-0.1s-0.1-0.2-0.1-0.4V111.1z"/>
	<path d="M205.2,122c1.1,0,2.1,0.2,3,0.5c0.9,0.3,1.7,0.8,2.4,1.4c0.7,0.6,1.4,1.4,2,2.3h1.4v5.1c-1.1-1.8-2.3-3.1-3.6-4
		c-1.3-0.8-2.6-1.2-4-1.2c-1,0-1.9,0.2-2.7,0.7c-0.8,0.5-1.4,1.1-1.8,2s-0.6,2-0.6,3.3v6c0,1,0.1,1.9,0.4,2.6
		c0.3,0.7,0.6,1.3,1.1,1.8c0.4,0.4,1,0.8,1.6,1c0.6,0.2,1.3,0.3,2.1,0.3c0.9,0,1.8-0.2,2.7-0.5c0.9-0.3,1.7-0.9,2.6-1.6
		c0.8-0.8,1.6-1.7,2.4-3v4.9h-1.4c-0.6,0.9-1.2,1.7-2,2.3c-0.8,0.6-1.6,1.1-2.5,1.5c-0.9,0.3-1.9,0.5-3,0.5c-1.2,0-2.3-0.2-3.3-0.6
		c-1-0.4-1.9-1-2.6-1.8c-0.7-0.8-1.3-1.7-1.7-2.9c-0.4-1.1-0.6-2.4-0.6-3.9v-7.4c0-1.5,0.2-2.8,0.6-3.9c0.4-1.2,1-2.1,1.7-3
		c0.7-0.8,1.6-1.4,2.6-1.9C202.8,122.2,203.9,122,205.2,122z M217,112.2c0.1,0,0.2,0,0.3,0.1c0.1,0,0.1,0.1,0.2,0.2
		c0,0.1,0.1,0.2,0.1,0.3c0,2.4,0,4.9,0,7.4c0,2.5,0,5,0,7.5c0,2.5,0,4.9,0,7.3c0,2.4,0,4.7,0,6.9c0,1.1,0,2.1,0,3c0,1,0,1.8,0,2.6
		c-0.3,0-0.6,0-1,0c-0.3,0-0.7,0-1,0c-0.3,0-0.6,0-0.9,0c-0.3,0-0.6,0-0.9,0c-0.1,0-0.2,0-0.3-0.1c-0.1,0-0.1-0.1-0.2-0.2
		c0-0.1-0.1-0.2-0.1-0.3c0-2.5,0-5,0-7.5c0-2.5,0-5,0-7.5c0-2.5,0-5,0-7.5s0-5,0-7.5c0-0.8,0-1.5,0-2.3c0-0.8,0-1.6,0-2.4
		c0.3,0,0.6,0,0.9,0c0.3,0,0.6,0,0.9,0c0.3,0,0.6,0,1,0S216.7,112.2,217,112.2z"/>
	<path d="M225.3,122.5h19.6c0.2,0,0.3,0,0.4,0.1c0.1,0.1,0.1,0.2,0.1,0.4c0,0.4,0,0.7,0,1.1s0,0.7,0,1.1c0,0.4,0,0.7,0,1.2h-19.6
		c-0.1,0-0.2,0-0.2,0c-0.1,0-0.1,0-0.2-0.1s-0.1-0.1-0.1-0.2c0-0.1,0-0.1,0-0.2c0-0.4,0-0.8,0-1.2c0-0.4,0-0.7,0-1.1
		C225.3,123.2,225.3,122.8,225.3,122.5z M245.4,143.6c0,0.6,0,1.1,0,1.6c0,0.5,0,1.1,0,1.6c0,0.2,0,0.3-0.1,0.4
		c-0.1,0.1-0.2,0.2-0.4,0.2c-0.1,0-0.3,0-0.6,0c-0.3,0-0.7,0-1.1,0s-0.8,0-1.2,0c-0.4,0-0.8,0-1.1,0c-1.4,0-2.6-0.2-3.8-0.5
		c-1.1-0.3-2.1-0.8-3-1.6c-0.9-0.7-1.5-1.7-2-2.9c-0.5-1.2-0.7-2.7-0.7-4.5c0-1.6,0-3.1,0-4.7c0-1.6,0-3.1,0-4.7c0-1.6,0-3.1,0-4.7
		c0-1.6,0-3.1,0-4.7c0-0.8,0-1.6,0-2.3s0-1.6,0-2.4c0.7,0,1.3,0,1.9,0c0.6,0,1.3,0,1.9,0c0.1,0,0.2,0,0.3,0.1c0.1,0,0.1,0.1,0.2,0.2
		c0,0.1,0.1,0.2,0.1,0.3c0,2.5,0,5,0,7.5c0,2.5,0,5,0,7.6c0,2.5,0,5,0,7.5c0,1.2,0.1,2.1,0.3,2.9c0.2,0.8,0.5,1.4,1,1.8
		c0.4,0.4,0.9,0.7,1.6,0.9c0.7,0.2,1.5,0.3,2.5,0.3c0.6,0,1.2,0,1.8,0c0.6,0,1.2,0,1.8,0H245.4z"/>
	<path d="M255,147.5c-0.1,0-0.2,0-0.3-0.1c-0.1,0-0.1-0.1-0.2-0.2c0-0.1-0.1-0.2-0.1-0.3c0-2.5,0-5,0-7.5c0-2.5,0-5,0-7.5
		c0-2.5,0-5,0-7.5c0-2.5,0-5,0-7.5c0-1,0-1.9,0-2.7c0-0.8,0-1.4,0-2c0.5,0,1,0,1.4,0c0.4,0,0.8,0,1.2,0c0.4,0,0.8,0,1.2,0
		c0.1,0,0.2,0,0.3,0.1c0.1,0,0.1,0.1,0.2,0.2c0,0.1,0.1,0.2,0.1,0.3c0,2.9,0,5.8,0,8.7c0,2.9,0,5.8,0,8.7c0,2.9,0,5.8,0,8.7
		c0,2.9,0,5.8,0,8.7c-0.4,0-0.9,0-1.3,0s-0.8,0-1.2,0C255.9,147.5,255.5,147.5,255,147.5z M258.1,131.1v-4.5h1.4
		c0.6-0.7,1.1-1.3,1.7-1.9c0.6-0.6,1.2-1.1,1.9-1.5c0.7-0.4,1.4-0.7,2.1-1c0.8-0.2,1.5-0.3,2.3-0.3c1.1,0,2,0.2,2.8,0.5
		c0.8,0.3,1.5,0.8,2.1,1.5c0.5,0.6,1,1.4,1.3,2.2c0.3,0.9,0.4,1.8,0.4,2.8c0,1.5,0,3,0,4.5s0,3,0,4.5c0,1.5,0,3,0,4.6
		c0,0.8,0,1.6,0,2.4c0,0.8,0,1.6,0,2.4c-0.7,0-1.3,0-1.9,0c-0.6,0-1.2,0-1.9,0c-0.1,0-0.2,0-0.3-0.1c-0.1,0-0.1-0.1-0.2-0.2
		c0-0.1-0.1-0.2-0.1-0.3c0-1.9,0-3.8,0-5.7c0-1.9,0-3.8,0-5.7c0-1.9,0-3.8,0-5.7c0-1.3-0.3-2.2-0.9-2.8c-0.6-0.6-1.5-0.9-2.6-0.9
		c-0.7,0-1.3,0.1-2,0.3c-0.7,0.2-1.4,0.5-2.1,0.9c-0.7,0.4-1.4,0.9-2.1,1.6C259.6,129.5,258.8,130.2,258.1,131.1z"/>
	<path d="M296.1,129.3c-0.7,0-1.4,0-2.2,0c-0.8,0-1.6,0-2.4,0c-0.8,0-1.6,0-2.2,0c-0.1,0-0.2,0-0.3-0.1c-0.1,0-0.1-0.1-0.2-0.2
		c0-0.1-0.1-0.2-0.1-0.3v-6.7c0.6,0,1.4,0,2.2,0c0.8,0,1.6,0,2.4,0c0.8,0,1.5,0,2.2,0c0.1,0,0.2,0,0.3,0.1c0.1,0,0.1,0.1,0.2,0.2
		c0,0.1,0.1,0.2,0.1,0.3V129.3z M296.1,147.8c-0.7,0-1.4,0-2.2,0c-0.8,0-1.6,0-2.4,0c-0.8,0-1.6,0-2.2,0c-0.1,0-0.2,0-0.3-0.1
		c-0.1,0-0.1-0.1-0.2-0.2c0-0.1-0.1-0.2-0.1-0.3v-6.7c0.6,0,1.4,0,2.2,0c0.8,0,1.6,0,2.4,0c0.8,0,1.5,0,2.2,0c0.1,0,0.2,0,0.3,0.1
		c0.1,0,0.1,0.1,0.2,0.2c0,0.1,0.1,0.2,0.1,0.3V147.8z"/>
	<path d="M348.7,113.6c1.8,0,3.3,0.2,4.7,0.6c1.3,0.4,2.4,0.9,3.3,1.6c0.9,0.7,1.5,1.5,2,2.5c0.4,1,0.6,2.1,0.6,3.2v1
		c0,1.1-0.1,2.1-0.4,3.1c-0.3,0.9-0.7,1.8-1.4,2.6c-0.7,0.8-1.6,1.6-2.7,2.5c-1.1,0.9-2.6,1.9-4.3,3c-1.8,1.2-3.3,2.2-4.4,3.1
		c-1.1,0.9-2,1.7-2.6,2.5c-0.6,0.8-1,1.7-1.2,2.6c-0.2,0.9-0.3,2-0.3,3.2l-1.3-0.9h3.2l-2.6,0.4c0.7-0.3,1.4-0.5,2.1-0.6
		c0.7-0.2,1.4-0.3,2.3-0.4c0.8-0.1,1.9-0.1,3.1-0.1h10.6c0.2,0,0.3,0,0.4,0.1c0.1,0.1,0.1,0.2,0.1,0.4c0,0.1,0,0.3,0,0.5
		c0,0.2,0,0.5,0,0.8c0,0.3,0,0.6,0,0.9c0,0.3,0,0.6,0,0.8c0,0.2,0,0.4,0,0.5c-0.1,0-0.5,0-1.3,0c-0.8,0-1.9,0-3.1,0
		c-1.3,0-2.7,0-4.2,0s-3,0-4.5,0s-2.9,0-4.1,0c-1.3,0-2.3,0-3.1,0c-0.8,0-1.3,0-1.3,0c-0.1,0-0.2,0-0.3-0.1c-0.1,0-0.1-0.1-0.2-0.2
		c0-0.1-0.1-0.2-0.1-0.3v-2.7c0-2,0.3-3.7,1-5.2c0.7-1.5,1.8-2.9,3.2-4.3c1.5-1.4,3.5-2.8,5.9-4.3c1.6-1,2.8-1.9,3.7-2.6
		c0.9-0.7,1.6-1.3,2.1-1.9c0.5-0.6,0.8-1.1,0.9-1.7c0.1-0.5,0.2-1.1,0.2-1.8v-0.4c0-0.6-0.1-1.2-0.3-1.7c-0.2-0.5-0.4-0.9-0.8-1.3
		c-0.4-0.5-1-0.8-1.9-1.1c-0.9-0.2-2.1-0.4-3.6-0.4c-1.8,0-3.4,0.3-4.8,0.8c-1.4,0.5-2.8,1.4-4.2,2.6h-0.7c0-0.1,0-0.3,0-0.6
		c0-0.3,0-0.5,0-0.9s0-0.6,0-0.9c0-0.3,0-0.6,0-0.8c0-0.2,0-0.4,0-0.5c0-0.2,0-0.3,0.1-0.4c0-0.1,0.1-0.2,0.2-0.3
		c0.9-0.8,2.1-1.5,3.8-2.2C344.5,113.9,346.4,113.6,348.7,113.6z"/>
	<path d="M367,143.4c0.1,0,0.5,0,1.3,0s1.8,0,3.1,0c1.2,0,2.6,0,4,0c1.4,0,2.9,0,4.3,0s2.8,0,4,0s2.2,0,3,0c0.8,0,1.2,0,1.2,0
		c0.2,0,0.3,0,0.4,0.1c0.1,0.1,0.1,0.2,0.1,0.4c0,0.1,0,0.4,0,0.7c0,0.3,0,0.7,0,1.1s0,0.7,0,1.1s0,0.6,0,0.7c-0.1,0-0.5,0-1.3,0
		s-1.8,0-3,0c-1.2,0-2.6,0-4,0s-2.9,0-4.3,0c-1.4,0-2.8,0-4,0c-1.2,0-2.2,0-3,0c-0.8,0-1.2,0-1.3,0c-0.1,0-0.2,0-0.2,0
		c0,0-0.1-0.1-0.2-0.1c0-0.1-0.1-0.1-0.1-0.2c0-0.1,0-0.1,0-0.2c0-0.1,0-0.3,0-0.5c0-0.2,0-0.5,0-0.8c0-0.3,0-0.6,0-0.9
		c0-0.3,0-0.6,0-0.8C367,143.7,367,143.5,367,143.4z M376,114.1c0.2,0,0.4,0,0.7,0c0.3,0,0.6,0,1,0s0.7,0,1.1,0c0.4,0,0.7,0,1,0
		c0.3,0,0.5,0,0.6,0c0.1,0,0.2,0,0.3,0.1c0.1,0,0.1,0.1,0.2,0.2c0,0.1,0.1,0.2,0.1,0.3c0,0.1,0,0.7,0,1.7c0,1.1,0,2.4,0,4.1
		c0,1.7,0,3.5,0,5.5c0,2,0,4,0,6.1s0,4,0,5.8s0,3.3,0,4.6c0,1.3,0,2.1,0,2.5h-4.6l0.3-1.1c0-0.3,0-0.6,0-1.1c0-0.5,0-0.9,0-1.4
		c0-0.5,0-0.8,0-1.1c0-0.3,0-0.9,0-1.7c0-0.9,0-2,0-3.3c0-1.3,0-2.7,0-4.2c0-1.5,0-3,0-4.5c0-1.5,0-2.9,0-4.3c0-1.3,0-2.4,0-3.3
		c0-0.9,0-1.5,0-1.8l0.8,1.1H375l1.4-1c-0.5,0.8-1,1.6-1.4,2.2c-0.4,0.6-0.9,1.1-1.4,1.6c-0.5,0.5-1.2,1.1-1.9,1.7
		c-0.7,0.6-1.3,1.2-1.8,1.6c-0.5,0.4-0.9,0.8-1.2,1c-0.3,0.2-0.5,0.3-0.7,0.3c-0.1,0-0.2,0-0.2-0.1c-0.1,0-0.1-0.1-0.1-0.2
		c0-0.1,0-0.2,0-0.3v-4c0.7-0.6,1.4-1.2,2.1-1.8c0.7-0.6,1.4-1.2,2.1-1.8c0.5-0.4,1-0.8,1.5-1.2c0.5-0.4,1-0.8,1.5-1.2
		C375.2,114.8,375.6,114.4,376,114.1z"/>
	<path d="M396.9,114.6h4.4l-0.3,1.3c-0.1,0.3-0.1,0.8-0.2,1.2c0,0.5-0.1,1.1-0.2,2c-0.1,1.1-0.2,2.3-0.4,3.7
		c-0.2,1.4-0.3,2.7-0.5,4.1c-0.2,1.3-0.3,2.5-0.4,3.6l-0.7-1.2h2.9l-2.8,1.1c1.1-1,2.3-1.7,3.6-2c1.3-0.4,2.8-0.6,4.6-0.6
		c1.5,0,2.9,0.2,4,0.6c1.1,0.4,2.1,0.9,2.9,1.7c0.8,0.7,1.4,1.6,1.8,2.7c0.4,1.1,0.6,2.3,0.6,3.7v2.2c0,1.4-0.3,2.8-0.8,3.9
		c-0.5,1.2-1.3,2.2-2.3,3.1c-1,0.9-2.2,1.5-3.6,2s-3.1,0.7-4.9,0.7c-1.6,0-3-0.1-4.3-0.3s-2.4-0.5-3.4-0.9s-1.7-0.7-2.2-1.2
		c-0.1-0.1-0.2-0.2-0.2-0.2c0-0.1,0-0.2,0-0.3c0-0.1,0-0.3,0-0.6c0-0.3,0-0.6,0-0.9c0-0.3,0-0.7,0-1s0-0.6,0-0.9c0-0.3,0-0.5,0-0.6
		h0.8c1.4,0.9,2.8,1.6,4.2,2c1.4,0.4,3.1,0.6,5.1,0.6c2.4,0,4.2-0.5,5.4-1.6c1.2-1.1,1.8-2.5,1.8-4.3V137c0-1.2-0.2-2.2-0.6-3
		c-0.4-0.8-1.1-1.4-2-1.9c-0.9-0.5-2.1-0.7-3.6-0.7c-1.2,0-2.3,0.1-3.4,0.4c-1.1,0.2-2.2,0.6-3.2,1h-3.6c-0.2,0-0.3-0.1-0.4-0.2
		c-0.1-0.1-0.1-0.3-0.1-0.5c0.1-0.5,0.1-1.2,0.3-2.2c0.1-1,0.2-2.1,0.4-3.4c0.1-1.3,0.3-2.6,0.4-4s0.3-2.8,0.4-4.2
		C396.7,117,396.8,115.7,396.9,114.6z M396.9,114.6c0.1,0,0.5,0,1.2,0c0.7,0,1.5,0,2.6,0c1,0,2.1,0,3.3,0c1.2,0,2.4,0,3.6,0
		c1.2,0,2.3,0,3.4,0s1.9,0,2.5,0c0.6,0,1,0,1,0c0.2,0,0.3,0,0.4,0.1c0.1,0.1,0.1,0.2,0.1,0.4c0,0.1,0,0.3,0,0.5c0,0.2,0,0.5,0,0.7
		c0,0.3,0,0.5,0,0.8c0,0.3,0,0.5,0,0.8c0,0.2,0,0.4,0,0.5c-0.1,0-0.5,0-1.2,0c-0.7,0-1.6,0-2.8,0s-2.3,0-3.5,0c-1.2,0-2.4,0-3.5,0
		s-2.1,0-2.8,0s-1.2,0-1.3,0c-0.6,0-1.2-0.1-1.6-0.4c-0.5-0.3-0.8-0.6-1-1c-0.2-0.4-0.4-0.9-0.4-1.4c0-0.2,0-0.4,0-0.5
		C396.9,115,396.9,114.8,396.9,114.6z"/>
	<path d="M431.3,156.9c-0.8,0-1.6,0-2.3,0c-0.7,0-1.3,0-1.8,0c0.3-1.5,0.6-2.9,0.9-4.4c0.3-1.4,0.6-2.9,0.8-4.3
		c0.3-1.5,0.5-2.9,0.8-4.4c0.3-1.5,0.6-2.9,0.8-4.3c0.9,0,1.7,0,2.4,0s1.3,0,2,0c0.6,0,1.3,0,2.1,0c0.1,0,0.2,0,0.3,0.1
		c0.1,0.1,0.1,0.1,0.1,0.2c0,0.1,0,0.2-0.1,0.3c-0.4,1.3-0.9,2.6-1.4,3.9c-0.5,1.3-1,2.7-1.4,4.1c-0.5,1.4-1,2.8-1.5,4.2
		c-0.5,1.4-1,2.8-1.5,4.1c0,0.2-0.1,0.3-0.2,0.3S431.4,156.9,431.3,156.9z M437.1,129.3c-0.7,0-1.4,0-2.2,0s-1.6,0-2.4,0
		c-0.8,0-1.6,0-2.2,0c-0.1,0-0.2,0-0.3-0.1s-0.1-0.1-0.2-0.2c0-0.1-0.1-0.2-0.1-0.3v-6.7c0.6,0,1.4,0,2.2,0s1.6,0,2.4,0s1.5,0,2.2,0
		c0.1,0,0.2,0,0.3,0.1c0.1,0,0.1,0.1,0.2,0.2c0,0.1,0.1,0.2,0.1,0.3V129.3z"/>
	<path d="M0,179.5h19.7c0.1,0,0.2,0,0.3,0.1c0.1,0,0.1,0.1,0.2,0.2c0,0.1,0.1,0.2,0.1,0.3c0,0.6,0,1.1,0,1.6c0,0.5,0,1,0,1.6H0.5
		c-0.1,0-0.2,0-0.3-0.1c-0.1,0-0.1-0.1-0.2-0.2c0-0.1-0.1-0.2-0.1-0.3c0-0.6,0-1.1,0-1.6C0,180.6,0,180,0,179.5z M0,200.1h18.9
		c0.1,0,0.2,0,0.3,0.1c0.1,0,0.1,0.1,0.2,0.2c0,0.1,0.1,0.2,0.1,0.3c0,0.4,0,0.7,0,1.1c0,0.4,0,0.7,0,1.1c0,0.3,0,0.7,0,1.1H0.5
		c-0.1,0-0.2,0-0.3-0.1c-0.1,0-0.1-0.1-0.2-0.2c0-0.1-0.1-0.2-0.1-0.3c0-0.4,0-0.8,0-1.1c0-0.3,0-0.7,0-1.1C0,200.8,0,200.4,0,200.1
		z M15.4,168c1.1,0,2.1,0.1,3.1,0.2c0.9,0.1,1.7,0.3,2.4,0.4c0.6,0.2,1,0.4,1.2,0.5c0.1,0,0.1,0.1,0.1,0.2c0,0.1,0,0.1,0,0.2
		c0,0.5,0,1.1,0,1.6c0,0.5,0,1.1,0,1.6h-0.7c-0.6-0.3-1.2-0.4-1.9-0.6c-0.7-0.1-1.3-0.2-2.1-0.3c-0.7-0.1-1.5-0.1-2.3-0.1
		c-0.9,0-1.7,0.1-2.3,0.3c-0.6,0.2-1.1,0.5-1.6,0.8c-0.3,0.3-0.6,0.7-0.8,1.1c-0.2,0.4-0.3,0.9-0.4,1.5c-0.1,0.6-0.1,1.3-0.1,2
		c0,1.8,0,3.6,0,5.5c0,1.8,0,3.6,0,5.5s0,3.7,0,5.5s0,3.7,0,5.5c0,0.4,0,0.8,0,1.2c0,0.3,0,0.8,0,1.2l0.2,0.8H5.8c0-1.7,0-3.3,0-5
		c0-1.7,0-3.3,0-5c0-1.7,0-3.3,0-5s0-3.3,0-5c0-1.7,0-3.3,0-5c0-1.7,0.2-3.1,0.7-4.3c0.4-1.2,1.1-2.2,1.9-3.1c0.8-0.8,1.8-1.4,3-1.8
		C12.6,168.2,13.9,168,15.4,168z"/>
	<path d="M38.6,178.4c1.6,0,3.1,0.3,4.4,0.8c1.3,0.5,2.5,1.2,3.4,2.1c1,0.9,1.7,2,2.2,3.2c0.5,1.3,0.8,2.6,0.8,4.1v5.2
		c0,2.1-0.5,3.9-1.4,5.5c-0.9,1.6-2.2,2.8-3.8,3.7c-1.6,0.9-3.5,1.3-5.5,1.3c-1.6,0-3.1-0.3-4.4-0.8c-1.3-0.5-2.5-1.2-3.4-2.1
		c-1-0.9-1.7-2-2.2-3.3c-0.5-1.3-0.8-2.6-0.8-4.1v-5.2c0-2.1,0.5-3.9,1.4-5.5c0.9-1.6,2.2-2.8,3.8-3.7
		C34.8,178.8,36.6,178.4,38.6,178.4z M38.9,182.3c-1.4,0-2.7,0.3-3.6,0.9c-1,0.6-1.7,1.4-2.3,2.4c-0.5,1-0.8,2.1-0.8,3.4v4.7
		c0,1,0.2,2,0.5,2.8c0.3,0.8,0.8,1.5,1.3,2.1c0.5,0.5,1.2,1,1.9,1.3c0.7,0.3,1.6,0.5,2.5,0.5c1.4,0,2.7-0.3,3.6-0.9
		c1-0.6,1.7-1.4,2.3-2.4c0.5-1,0.8-2.1,0.8-3.4V189c0-1.1-0.1-2.1-0.4-2.9s-0.7-1.6-1.3-2.1c-0.5-0.5-1.1-0.9-1.9-1.2
		C40.7,182.4,39.8,182.3,38.9,182.3z"/>
	<path d="M61.4,203.9c-0.4,0-0.9,0-1.3,0s-0.8,0-1.2,0c-0.4,0-0.9,0-1.3,0c-0.1,0-0.2,0-0.2,0c-0.1,0-0.1,0-0.2-0.1
		c0,0-0.1-0.1-0.1-0.2c0-0.1,0-0.1,0-0.2c0-1.7,0-3.3,0-5c0-1.7,0-3.3,0-4.9c0-1.6,0-3.3,0-4.9c0-1.7,0-3.3,0-5c0-1,0-1.9,0-2.7
		c0-0.8,0-1.4,0-2c0.5,0,1,0,1.4,0c0.4,0,0.8,0,1.2,0c0.4,0,0.8,0,1.2,0c0.1,0,0.2,0,0.3,0.1c0.1,0,0.1,0.1,0.2,0.2
		c0,0.1,0.1,0.2,0.1,0.3c0,2.7,0,5.4,0,8.1s0,5.5,0,8.2C61.4,198.4,61.4,201.1,61.4,203.9z M76.9,203.9c-0.7,0-1.3,0-1.9,0
		c-0.6,0-1.2,0-1.9,0c-0.1,0-0.2,0-0.3-0.1c-0.1,0-0.1-0.1-0.2-0.2c0-0.1-0.1-0.2-0.1-0.3c0-1.9,0-3.8,0-5.7c0-1.9,0-3.8,0-5.7
		c0-1.9,0-3.8,0-5.7c0-1.3-0.3-2.2-0.9-2.8c-0.6-0.6-1.5-0.9-2.6-0.9c-0.7,0-1.3,0.1-2,0.3c-0.7,0.2-1.4,0.5-2.1,0.9
		c-0.7,0.4-1.4,0.9-2.1,1.6c-0.7,0.6-1.4,1.4-2.1,2.3v-4.5h1.4c0.7-0.9,1.5-1.8,2.3-2.5c0.8-0.7,1.7-1.3,2.7-1.6
		c1-0.4,2-0.6,3.1-0.6c1.1,0,2,0.2,2.8,0.5c0.8,0.3,1.5,0.8,2.1,1.5c0.5,0.6,1,1.4,1.3,2.2c0.3,0.9,0.4,1.8,0.4,2.8c0,1.5,0,3,0,4.5
		s0,3,0,4.5c0,1.5,0,3,0,4.6c0,0.8,0,1.6,0,2.4C76.9,202.3,76.9,203.1,76.9,203.9z"/>
	<path d="M84.3,178.9h19.6c0.2,0,0.3,0,0.4,0.1c0.1,0.1,0.1,0.2,0.1,0.4c0,0.4,0,0.7,0,1.1s0,0.7,0,1.1c0,0.4,0,0.7,0,1.2H84.8
		c-0.1,0-0.2,0-0.2,0c-0.1,0-0.1,0-0.2-0.1s-0.1-0.1-0.1-0.2c0-0.1,0-0.1,0-0.2c0-0.4,0-0.8,0-1.2c0-0.4,0-0.7,0-1.1
		C84.3,179.6,84.3,179.2,84.3,178.9z M104.4,200c0,0.6,0,1.1,0,1.6c0,0.5,0,1.1,0,1.6c0,0.2,0,0.3-0.1,0.4c-0.1,0.1-0.2,0.2-0.4,0.2
		c-0.1,0-0.3,0-0.6,0c-0.3,0-0.7,0-1.1,0s-0.8,0-1.2,0c-0.4,0-0.8,0-1.1,0c-1.4,0-2.6-0.2-3.8-0.5c-1.1-0.3-2.1-0.8-3-1.6
		c-0.9-0.7-1.5-1.7-2-2.9c-0.5-1.2-0.7-2.7-0.7-4.5c0-1.6,0-3.1,0-4.7c0-1.6,0-3.1,0-4.7c0-1.6,0-3.1,0-4.7c0-1.6,0-3.1,0-4.7
		c0-0.8,0-1.6,0-2.3s0-1.6,0-2.4c0.7,0,1.3,0,1.9,0c0.6,0,1.3,0,1.9,0c0.1,0,0.2,0,0.3,0.1c0.1,0,0.1,0.1,0.2,0.2
		c0,0.1,0.1,0.2,0.1,0.3c0,2.5,0,5,0,7.5c0,2.5,0,5,0,7.6c0,2.5,0,5,0,7.5c0,1.2,0.1,2.1,0.3,2.9c0.2,0.8,0.5,1.4,1,1.8
		c0.4,0.4,0.9,0.7,1.6,0.9c0.7,0.2,1.5,0.3,2.5,0.3c0.6,0,1.2,0,1.8,0c0.6,0,1.2,0,1.8,0H104.4z"/>
	<path d="M114.7,187.7h16.5c0.1,0,0.2,0,0.3,0.1c0.1,0,0.1,0.1,0.2,0.2c0,0.1,0.1,0.2,0.1,0.3c0,0.6,0,1.2,0,1.8c0,0.6,0,1.2,0,1.9
		h-16.5c-0.1,0-0.2,0-0.2,0c-0.1,0-0.1,0-0.2-0.1s-0.1-0.1-0.1-0.2c0-0.1,0-0.1,0-0.2c0-0.7,0-1.3,0-1.9
		C114.7,188.9,114.7,188.3,114.7,187.7z"/>
	<path d="M151.1,200.3c2.3,0,3.9-0.3,4.9-1c1-0.7,1.5-1.6,1.5-2.7c0-0.6-0.1-1.1-0.3-1.5c-0.2-0.4-0.6-0.8-1.3-1.1
		c-0.6-0.3-1.5-0.6-2.7-0.8l-4.7-0.9c-1.5-0.3-2.8-0.7-3.8-1.3c-1-0.5-1.7-1.2-2.2-2c-0.5-0.8-0.7-1.8-0.7-2.9c0-1.1,0.2-2.1,0.7-3
		c0.5-0.9,1.1-1.7,2-2.4c0.9-0.7,2-1.2,3.3-1.6s2.8-0.6,4.5-0.6c1.4,0,2.6,0.1,3.7,0.3c1.1,0.2,2,0.4,2.7,0.7
		c0.7,0.2,1.1,0.4,1.2,0.6c0.1,0,0.1,0.1,0.1,0.1c0,0.1,0,0.1,0,0.1c0,0,0,0.1,0,0.2c0,0.6,0,1.1,0,1.7s0,1.1,0,1.7h-0.7
		c-0.8-0.3-1.6-0.6-2.3-0.8c-0.7-0.2-1.4-0.3-2.2-0.4c-0.8-0.1-1.7-0.2-2.7-0.2c-1.3,0-2.4,0.1-3.3,0.4c-0.9,0.3-1.6,0.7-2,1.2
		c-0.5,0.5-0.7,1.2-0.7,1.9c0,0.5,0.1,1,0.3,1.4s0.6,0.7,1.2,1c0.6,0.3,1.4,0.5,2.5,0.7l4.7,0.9c1.7,0.3,3,0.8,4,1.4
		c1,0.6,1.7,1.3,2.2,2.2c0.4,0.9,0.7,1.9,0.7,3.1c0,1.6-0.4,3-1.2,4.1c-0.8,1.1-2.1,2-3.7,2.6c-1.6,0.6-3.6,0.9-5.9,0.9
		c-1.2,0-2.4-0.1-3.4-0.2c-1.1-0.2-2-0.3-2.9-0.6c-0.9-0.2-1.6-0.5-2.1-0.8c-0.5-0.3-0.9-0.5-1.2-0.8c-0.1-0.1-0.1-0.1-0.1-0.1
		c0,0,0-0.1,0-0.2c0-0.6,0-1.3,0-1.9c0-0.6,0-1.2,0-1.8h0.7c0.7,0.4,1.3,0.8,2,1c0.7,0.3,1.4,0.5,2.1,0.7c0.7,0.2,1.5,0.4,2.3,0.4
		C149.1,200.2,150,200.3,151.1,200.3z"/>
	<path d="M168.9,178.9h19.6c0.2,0,0.3,0,0.4,0.1c0.1,0.1,0.1,0.2,0.1,0.4c0,0.4,0,0.7,0,1.1s0,0.7,0,1.1c0,0.4,0,0.7,0,1.2h-19.6
		c-0.1,0-0.2,0-0.2,0c-0.1,0-0.1,0-0.2-0.1s-0.1-0.1-0.1-0.2c0-0.1,0-0.1,0-0.2c0-0.4,0-0.8,0-1.2c0-0.4,0-0.7,0-1.1
		C168.9,179.6,168.9,179.2,168.9,178.9z M189,200c0,0.6,0,1.1,0,1.6c0,0.5,0,1.1,0,1.6c0,0.2,0,0.3-0.1,0.4
		c-0.1,0.1-0.2,0.2-0.4,0.2c-0.1,0-0.3,0-0.6,0c-0.3,0-0.7,0-1.1,0s-0.8,0-1.2,0c-0.4,0-0.8,0-1.1,0c-1.4,0-2.6-0.2-3.8-0.5
		c-1.1-0.3-2.1-0.8-3-1.6c-0.9-0.7-1.5-1.7-2-2.9c-0.5-1.2-0.7-2.7-0.7-4.5c0-1.6,0-3.1,0-4.7c0-1.6,0-3.1,0-4.7c0-1.6,0-3.1,0-4.7
		c0-1.6,0-3.1,0-4.7c0-0.8,0-1.6,0-2.3s0-1.6,0-2.4c0.7,0,1.3,0,1.9,0c0.6,0,1.3,0,1.9,0c0.1,0,0.2,0,0.3,0.1c0.1,0,0.1,0.1,0.2,0.2
		c0,0.1,0.1,0.2,0.1,0.3c0,2.5,0,5,0,7.5c0,2.5,0,5,0,7.6c0,2.5,0,5,0,7.5c0,1.2,0.1,2.1,0.3,2.9c0.2,0.8,0.5,1.4,1,1.8
		c0.4,0.4,0.9,0.7,1.6,0.9c0.7,0.2,1.5,0.3,2.5,0.3c0.6,0,1.2,0,1.8,0c0.6,0,1.2,0,1.8,0H189z"/>
	<path d="M197.1,200.1h18.6c0.1,0,0.2,0,0.3,0.1c0.1,0,0.1,0.1,0.2,0.2c0,0.1,0.1,0.2,0.1,0.3c0,0.4,0,0.7,0,1.1c0,0.4,0,0.7,0,1.1
		c0,0.4,0,0.7,0,1.1h-18.6c-0.2,0-0.3,0-0.4-0.1c-0.1-0.1-0.1-0.2-0.1-0.4c0-0.4,0-0.7,0-1.1c0-0.4,0-0.7,0-1.1
		C197.1,200.8,197.1,200.4,197.1,200.1z M203.2,201.6v-2.2c0-0.5,0-1,0-1.5c0-0.5,0-1,0-1.5c0-0.5,0-1,0-1.5c0-1.3,0-2.7,0-4.1
		s0-2.7,0-4.1c0-1.4,0-2.7,0-4.1h-0.7c-0.8,0-1.5,0-2.3,0s-1.5,0-2.2,0c-0.2,0-0.3,0-0.4-0.1c-0.1-0.1-0.1-0.2-0.1-0.4
		c0-0.6,0-1.1,0-1.6c0-0.5,0-1.1,0-1.6c0.4,0,0.8,0,1.2,0c0.5,0,0.9,0,1.4,0c0.5,0,1,0,1.5,0c0.5,0,1,0,1.5,0s1,0,1.6,0
		c0.5,0,1.1,0,1.5,0c0.2,0.7,0.4,1.3,0.5,1.8c0.1,0.5,0.2,1,0.3,1.5c0.1,0.5,0.2,1.1,0.4,1.8c0,1.5,0,3,0,4.4c0,1.5,0,3,0,4.5
		c0,1.5,0,3,0,4.5s0,3,0,4.4L203.2,201.6z M206.5,183.3h1.5c1-1.5,2.2-2.7,3.5-3.5c1.4-0.9,3-1.3,4.8-1.3c0.8,0,1.5,0.1,2,0.2
		c0.5,0.1,0.8,0.3,0.9,0.4c0.1,0.1,0.1,0.1,0.1,0.2c0,0.1,0,0.2,0,0.4c0,0.6,0,1.3,0,1.9c0,0.6,0,1.3,0,1.9h-0.8
		c-0.5-0.2-1.1-0.3-1.6-0.4c-0.5-0.1-1.1-0.1-1.7-0.1c-0.9,0-1.9,0.1-2.8,0.4c-0.9,0.3-1.9,0.7-2.8,1.4c-0.9,0.6-1.9,1.5-2.9,2.7
		L206.5,183.3z"/>
	<path d="M236.2,178.4c1.8,0,3.5,0.4,5.1,1.2c1.5,0.8,2.8,1.9,3.7,3.5c0.9,1.6,1.4,3.5,1.4,5.9v3.4c0,0.1,0,0.2-0.1,0.3
		c0,0.1-0.1,0.1-0.2,0.2c-0.1,0-0.2,0.1-0.3,0.1h-12.2c-0.5,0-1.1,0-1.6,0c-0.5,0-1.1,0-1.6,0h-1.4l-0.6-3.1h13.6c0-0.2,0-0.3,0-0.5
		c0-0.2,0-0.3,0-0.5c0-1.2-0.1-2.3-0.4-3.2c-0.3-0.9-0.7-1.6-1.2-2.2c-0.5-0.5-1.1-0.8-1.8-1.1c-0.7-0.2-1.5-0.4-2.4-0.4
		c-2,0-3.6,0.5-4.7,1.6c-1.1,1.1-1.6,2.8-1.6,5.3v4.9c0,1,0.1,1.9,0.4,2.7c0.3,0.8,0.7,1.5,1.2,2c0.6,0.6,1.4,1.1,2.5,1.4
		c1,0.3,2.2,0.4,3.5,0.4c1.2,0,2.2-0.1,3.1-0.2c0.9-0.1,1.7-0.3,2.4-0.6c0.8-0.3,1.5-0.6,2.3-0.9h0.7c0,0.5,0,1,0,1.6
		c0,0.5,0,1.1,0,1.6c0,0.1,0,0.1,0,0.2c0,0.1-0.1,0.1-0.1,0.2c-0.3,0.3-0.9,0.6-1.7,0.9c-0.8,0.3-1.8,0.6-3,0.8
		c-1.2,0.2-2.4,0.3-3.8,0.3c-1.8,0-3.4-0.2-4.9-0.7s-2.7-1.1-3.7-2c-1-0.9-1.8-2-2.3-3.3c-0.5-1.3-0.8-2.8-0.8-4.5v-4.9
		c0-1.8,0.3-3.4,0.8-4.7c0.5-1.3,1.3-2.5,2.3-3.3c1-0.9,2.1-1.5,3.4-2C233.3,178.6,234.7,178.4,236.2,178.4z"/>
	<path d="M253.5,178.9h19.6c0.2,0,0.3,0,0.4,0.1c0.1,0.1,0.1,0.2,0.1,0.4c0,0.4,0,0.7,0,1.1s0,0.7,0,1.1c0,0.4,0,0.7,0,1.2H254
		c-0.1,0-0.2,0-0.2,0c-0.1,0-0.1,0-0.2-0.1s-0.1-0.1-0.1-0.2c0-0.1,0-0.1,0-0.2c0-0.4,0-0.8,0-1.2c0-0.4,0-0.7,0-1.1
		C253.5,179.6,253.5,179.2,253.5,178.9z M273.6,200c0,0.6,0,1.1,0,1.6c0,0.5,0,1.1,0,1.6c0,0.2,0,0.3-0.1,0.4
		c-0.1,0.1-0.2,0.2-0.4,0.2c-0.1,0-0.3,0-0.6,0c-0.3,0-0.7,0-1.1,0s-0.8,0-1.2,0c-0.4,0-0.8,0-1.1,0c-1.4,0-2.6-0.2-3.8-0.5
		c-1.1-0.3-2.1-0.8-3-1.6c-0.9-0.7-1.5-1.7-2-2.9c-0.5-1.2-0.7-2.7-0.7-4.5c0-1.6,0-3.1,0-4.7c0-1.6,0-3.1,0-4.7c0-1.6,0-3.1,0-4.7
		c0-1.6,0-3.1,0-4.7c0-0.8,0-1.6,0-2.3s0-1.6,0-2.4c0.7,0,1.3,0,1.9,0c0.6,0,1.3,0,1.9,0c0.1,0,0.2,0,0.3,0.1c0.1,0,0.1,0.1,0.2,0.2
		c0,0.1,0.1,0.2,0.1,0.3c0,2.5,0,5,0,7.5c0,2.5,0,5,0,7.6c0,2.5,0,5,0,7.5c0,1.2,0.1,2.1,0.3,2.9c0.2,0.8,0.5,1.4,1,1.8
		c0.4,0.4,0.9,0.7,1.6,0.9c0.7,0.2,1.5,0.3,2.5,0.3c0.6,0,1.2,0,1.8,0c0.6,0,1.2,0,1.8,0H273.6z"/>
	<path d="M294.1,178.4c1.4,0,2.7,0.1,3.7,0.4s2,0.5,2.7,0.8c0.7,0.3,1.2,0.6,1.5,0.8c0.1,0.1,0.1,0.2,0.2,0.2c0,0.1,0,0.2,0,0.3
		c0,0.6,0,1.1,0,1.7s0,1.1,0,1.7h-0.7c-1.1-0.6-2.2-1.1-3.3-1.4c-1.1-0.3-2.4-0.5-3.9-0.5c-1.7,0-3.1,0.3-4.2,0.8
		c-1.1,0.5-1.9,1.3-2.5,2.4c-0.5,1.1-0.8,2.5-0.8,4.1v3.5c0,1.2,0.1,2.2,0.4,3.1c0.3,0.9,0.8,1.6,1.4,2.3c0.6,0.6,1.3,1,2.3,1.3
		c0.9,0.3,2,0.5,3.3,0.5c1,0,1.9-0.1,2.7-0.2c0.8-0.1,1.6-0.4,2.3-0.7c0.7-0.3,1.5-0.6,2.3-1h0.7c0,0.6,0,1.2,0,1.7s0,1.1,0,1.7
		c0,0.1,0,0.1,0,0.2c0,0.1-0.1,0.1-0.1,0.2c-0.3,0.3-0.9,0.7-1.6,1c-0.8,0.3-1.7,0.6-2.8,0.8c-1.1,0.2-2.3,0.3-3.7,0.3
		c-1.8,0-3.4-0.3-4.8-0.8c-1.4-0.5-2.6-1.2-3.6-2.2c-1-0.9-1.8-2.1-2.3-3.4s-0.8-2.8-0.8-4.5v-4.2c0-2.4,0.5-4.3,1.5-6
		c1-1.6,2.3-2.9,4.1-3.7C289.7,178.8,291.7,178.4,294.1,178.4z"/>
	<path d="M311.4,203.9c-0.1,0-0.2,0-0.3-0.1c-0.1,0-0.1-0.1-0.2-0.2c0-0.1-0.1-0.2-0.1-0.3c0-2.5,0-5,0-7.5c0-2.5,0-5,0-7.5
		c0-2.5,0-5,0-7.5c0-2.5,0-5,0-7.5c0-1,0-1.9,0-2.7c0-0.8,0-1.4,0-2c0.5,0,1,0,1.4,0c0.4,0,0.8,0,1.2,0c0.4,0,0.8,0,1.2,0
		c0.1,0,0.2,0,0.3,0.1c0.1,0,0.1,0.1,0.2,0.2c0,0.1,0.1,0.2,0.1,0.3c0,2.9,0,5.8,0,8.7c0,2.9,0,5.8,0,8.7c0,2.9,0,5.8,0,8.7
		c0,2.9,0,5.8,0,8.7c-0.4,0-0.9,0-1.3,0s-0.8,0-1.2,0C312.3,203.9,311.9,203.9,311.4,203.9z M314.5,187.5v-4.5h1.4
		c0.6-0.7,1.1-1.3,1.7-1.9c0.6-0.6,1.2-1.1,1.9-1.5c0.7-0.4,1.4-0.7,2.1-1c0.8-0.2,1.5-0.3,2.3-0.3c1.1,0,2,0.2,2.8,0.5
		c0.8,0.3,1.5,0.8,2.1,1.5c0.5,0.6,1,1.4,1.3,2.2c0.3,0.9,0.4,1.8,0.4,2.8c0,1.5,0,3,0,4.5s0,3,0,4.5c0,1.5,0,3,0,4.6
		c0,0.8,0,1.6,0,2.4c0,0.8,0,1.6,0,2.4c-0.7,0-1.3,0-1.9,0c-0.6,0-1.2,0-1.9,0c-0.1,0-0.2,0-0.3-0.1c-0.1,0-0.1-0.1-0.2-0.2
		c0-0.1-0.1-0.2-0.1-0.3c0-1.9,0-3.8,0-5.7c0-1.9,0-3.8,0-5.7c0-1.9,0-3.8,0-5.7c0-1.3-0.3-2.2-0.9-2.8c-0.6-0.6-1.5-0.9-2.6-0.9
		c-0.7,0-1.3,0.1-2,0.3c-0.7,0.2-1.4,0.5-2.1,0.9c-0.7,0.4-1.4,0.9-2.1,1.6C316,185.9,315.2,186.6,314.5,187.5z"/>
	<path d="M352.5,185.7c-0.7,0-1.4,0-2.2,0c-0.8,0-1.6,0-2.4,0c-0.8,0-1.6,0-2.2,0c-0.1,0-0.2,0-0.3-0.1c-0.1,0-0.1-0.1-0.2-0.2
		c0-0.1-0.1-0.2-0.1-0.3v-6.7c0.6,0,1.4,0,2.2,0c0.8,0,1.6,0,2.4,0c0.8,0,1.5,0,2.2,0c0.1,0,0.2,0,0.3,0.1c0.1,0,0.1,0.1,0.2,0.2
		c0,0.1,0.1,0.2,0.1,0.3V185.7z M352.5,204.2c-0.7,0-1.4,0-2.2,0c-0.8,0-1.6,0-2.4,0c-0.8,0-1.6,0-2.2,0c-0.1,0-0.2,0-0.3-0.1
		c-0.1,0-0.1-0.1-0.2-0.2c0-0.1-0.1-0.2-0.1-0.3V197c0.6,0,1.4,0,2.2,0c0.8,0,1.6,0,2.4,0c0.8,0,1.5,0,2.2,0c0.1,0,0.2,0,0.3,0.1
		c0.1,0,0.1,0.1,0.2,0.2c0,0.1,0.1,0.2,0.1,0.3V204.2z"/>
	<path d="M405.1,203.9c-0.1,0-0.3,0-0.6,0c-0.3,0-0.5,0-0.9,0s-0.7,0-1,0s-0.6,0-0.9,0c-0.3,0-0.4,0-0.6,0c-0.2,0-0.3,0-0.4-0.1
		c-0.1-0.1-0.1-0.2-0.1-0.4c0-0.1,0.1-0.5,0.4-1.1c0.2-0.6,0.6-1.6,1.1-2.8c0.5-1.3,1.2-3,2.1-5.1c0.9-2.1,1.9-4.8,3.2-7.9
		c0.4-1,0.9-2.1,1.3-3.1c0.4-1,0.9-2,1.4-3c0.5-1,1-2,1.6-3.1c0.6-1,1.2-2.1,1.9-3.3l-1.2,2.7v-3.2l1.7,1.3c-1.2,0-2.4,0.1-3.4,0.1
		c-1.1,0-2.1,0.1-3.1,0.1s-1.9,0-2.8,0h-7.7c-0.3,0-0.5-0.1-0.8-0.2c-0.3-0.1-0.6-0.3-0.8-0.6c-0.3-0.3-0.5-0.6-0.7-0.9
		c-0.2-0.3-0.3-0.7-0.4-1.1c-0.1-0.4-0.2-0.8-0.2-1.2h21.9c0.1,0,0.2,0,0.3,0.1c0.1,0,0.1,0.1,0.2,0.2c0,0.1,0.1,0.2,0.1,0.3v3.2
		c0,0-0.1,0.3-0.3,0.8c-0.2,0.5-0.5,1.3-0.8,2.2c-0.3,0.9-0.8,1.9-1.2,3.1c-0.5,1.2-1,2.4-1.5,3.8c-0.5,1.3-1.1,2.7-1.7,4.2
		c-0.5,1.1-0.9,2.3-1.4,3.5c-0.5,1.2-1,2.4-1.5,3.6c-0.5,1.3-1,2.5-1.6,3.9C406.2,201.1,405.7,202.4,405.1,203.9z M394.3,171
		c0.3,0,0.7,0,1.1,0.1c0.4,0,0.8,0.1,1.2,0.3c0.4,0.1,0.7,0.3,1,0.5c0.3,0.2,0.5,0.4,0.7,0.7c0.2,0.3,0.3,0.5,0.3,0.8
		c0,0.4,0,0.9,0,1.5s0,1.2,0,1.9c0,0.7,0,1.3,0,2c0,0.6,0,1.2,0,1.6s0,0.7,0,0.7c-0.1,0-0.3,0-0.6,0c-0.3,0-0.5,0-0.8,0
		c-0.3,0-0.6,0-1,0s-0.6,0-0.9,0c-0.3,0-0.4,0-0.5,0c-0.2,0-0.3,0-0.4-0.1c-0.1-0.1-0.1-0.2-0.1-0.4c0-0.1,0-0.5,0-1.1
		c0-0.6,0-1.3,0-2.2c0-0.8,0-1.7,0-2.6c0-0.9,0-1.6,0-2.3S394.3,171.2,394.3,171z"/>
	<path d="M425.1,171h4.4l-0.3,1.3c-0.1,0.3-0.1,0.8-0.2,1.2c0,0.5-0.1,1.1-0.2,2c-0.1,1.1-0.2,2.3-0.4,3.7c-0.2,1.4-0.3,2.7-0.5,4.1
		c-0.2,1.3-0.3,2.5-0.4,3.6l-0.7-1.2h2.9l-2.8,1.1c1.1-1,2.3-1.7,3.6-2c1.3-0.4,2.8-0.6,4.6-0.6c1.5,0,2.9,0.2,4,0.6
		c1.1,0.4,2.1,0.9,2.9,1.7c0.8,0.7,1.4,1.6,1.8,2.7c0.4,1.1,0.6,2.3,0.6,3.7v2.2c0,1.4-0.3,2.8-0.8,3.9c-0.5,1.2-1.3,2.2-2.3,3.1
		c-1,0.9-2.2,1.5-3.6,2s-3.1,0.7-4.9,0.7c-1.6,0-3-0.1-4.3-0.3s-2.4-0.5-3.4-0.9s-1.7-0.7-2.2-1.2c-0.1-0.1-0.2-0.2-0.2-0.2
		c0-0.1,0-0.2,0-0.3c0-0.1,0-0.3,0-0.6c0-0.3,0-0.6,0-0.9c0-0.3,0-0.7,0-1s0-0.6,0-0.9c0-0.3,0-0.5,0-0.6h0.8c1.4,0.9,2.8,1.6,4.2,2
		c1.4,0.4,3.1,0.6,5.1,0.6c2.4,0,4.2-0.5,5.4-1.6c1.2-1.1,1.8-2.5,1.8-4.3v-1.3c0-1.2-0.2-2.2-0.6-3c-0.4-0.8-1.1-1.4-2-1.9
		c-0.9-0.5-2.1-0.7-3.6-0.7c-1.2,0-2.3,0.1-3.4,0.4c-1.1,0.2-2.2,0.6-3.2,1h-3.6c-0.2,0-0.3-0.1-0.4-0.2c-0.1-0.1-0.1-0.3-0.1-0.5
		c0.1-0.5,0.1-1.2,0.3-2.2c0.1-1,0.2-2.1,0.4-3.4c0.1-1.3,0.3-2.6,0.4-4c0.1-1.4,0.3-2.8,0.4-4.2C424.8,173.4,425,172.1,425.1,171z
		 M425.1,171c0.1,0,0.5,0,1.2,0c0.7,0,1.5,0,2.6,0c1,0,2.1,0,3.3,0c1.2,0,2.4,0,3.6,0c1.2,0,2.3,0,3.4,0s1.9,0,2.5,0c0.6,0,1,0,1,0
		c0.2,0,0.3,0,0.4,0.1c0.1,0.1,0.1,0.2,0.1,0.4c0,0.1,0,0.3,0,0.5c0,0.2,0,0.5,0,0.7c0,0.3,0,0.5,0,0.8c0,0.3,0,0.5,0,0.8
		c0,0.2,0,0.4,0,0.5c-0.1,0-0.5,0-1.2,0c-0.7,0-1.6,0-2.8,0s-2.3,0-3.5,0c-1.2,0-2.4,0-3.5,0s-2.1,0-2.8,0s-1.2,0-1.3,0
		c-0.6,0-1.2-0.1-1.6-0.4c-0.5-0.3-0.8-0.6-1-1c-0.2-0.4-0.4-0.9-0.4-1.4c0-0.2,0-0.4,0-0.5C425.1,171.4,425.1,171.2,425.1,171z"/>
	<path d="M458.5,190c-0.3,0.5-0.5,1.1-0.8,1.9c-0.3,0.8-0.6,1.6-1,2.5s-0.7,1.8-1.1,2.8c-0.4,1-0.7,1.9-1.1,2.8
		c-0.3,0.9-0.7,1.7-1,2.5c-0.3,0.8-0.6,1.4-0.8,1.9c-0.1,0-0.3,0-0.7,0s-0.8,0-1.2,0c-0.4,0-0.8,0-1.2,0c-0.3,0-0.6,0-0.7,0
		c-0.2,0-0.3-0.1-0.4-0.2c-0.1-0.1-0.1-0.3,0-0.4c0.2-0.5,0.5-1.1,0.8-1.8c0.3-0.7,0.7-1.5,1-2.3c0.4-0.8,0.8-1.7,1.1-2.6
		c0.4-0.9,0.7-1.8,1.1-2.6c0.4-0.8,0.7-1.6,1-2.3c0.3-0.7,0.6-1.3,0.8-1.8c0.1-0.2,0.1-0.3,0.2-0.3c0.1,0,0.2,0,0.3,0s0.4,0,0.7,0
		s0.7,0,1.1,0s0.8,0,1.1,0S458.4,190,458.5,190z M455.7,170.5c1.5,0,2.8,0.3,3.9,0.9c1,0.6,1.8,1.4,2.4,2.4c0.5,1,0.8,2.2,0.8,3.6
		v2.7c0,1.3-0.3,2.5-0.8,3.5c-0.5,1.1-1.3,1.9-2.4,2.5c-1.1,0.6-2.3,0.9-3.9,0.9c-2.3,0-4-0.6-5.2-2c-1.2-1.3-1.8-3-1.8-5v-2.7
		c0-1.3,0.3-2.5,0.8-3.6c0.5-1,1.4-1.8,2.4-2.4C453,170.8,454.2,170.5,455.7,170.5z M452,179.8c0,0.8,0.1,1.4,0.3,1.9
		c0.2,0.5,0.4,1,0.8,1.4c0.3,0.3,0.7,0.5,1.2,0.7c0.4,0.2,0.9,0.2,1.5,0.2c1.3,0,2.2-0.4,2.8-1.1c0.6-0.7,0.9-1.8,0.9-3.1v-2
		c0-0.7-0.1-1.4-0.2-1.9c-0.2-0.6-0.4-1-0.8-1.3c-0.6-0.6-1.5-0.9-2.7-0.9c-1.2,0-2.1,0.4-2.8,1.1c-0.6,0.7-0.9,1.7-0.9,3.1V179.8z
		 M467.5,187.8c1.5,0,2.8,0.3,3.8,0.9c1,0.6,1.8,1.4,2.4,2.4c0.5,1,0.8,2.2,0.8,3.6v2.7c0,1.3-0.3,2.5-0.8,3.5
		c-0.5,1.1-1.3,1.9-2.4,2.5c-1,0.6-2.3,0.9-3.8,0.9c-2.3,0-4-0.6-5.2-2c-1.2-1.3-1.9-3-1.9-5v-2.7c0-1.3,0.3-2.5,0.8-3.6
		c0.5-1,1.4-1.8,2.4-2.4C464.8,188.1,466,187.8,467.5,187.8z M463.8,197.1c0,0.8,0.1,1.4,0.3,1.9c0.2,0.5,0.4,1,0.8,1.3
		c0.3,0.3,0.7,0.5,1.1,0.7c0.4,0.2,1,0.2,1.6,0.2c1.2,0,2.1-0.4,2.8-1.1c0.6-0.7,0.9-1.8,0.9-3.1v-2c0-0.8-0.1-1.4-0.3-2
		c-0.2-0.5-0.4-1-0.8-1.3c-0.6-0.6-1.5-0.9-2.7-0.9c-1.2,0-2.1,0.4-2.8,1.1c-0.6,0.7-0.9,1.8-0.9,3.1V197.1z M464.7,184.8
		c0.2-0.5,0.5-1.2,0.8-1.9s0.6-1.6,1-2.5c0.3-0.9,0.7-1.8,1.1-2.8c0.4-1,0.7-1.9,1.1-2.8c0.3-0.9,0.7-1.7,1-2.5
		c0.3-0.8,0.6-1.4,0.8-1.9c0.1,0,0.3,0,0.7,0s0.8,0,1.2,0c0.4,0,0.8,0,1.2,0c0.3,0,0.6,0,0.7,0c0.2,0,0.3,0.1,0.4,0.2
		c0.1,0.1,0.1,0.3,0,0.4c-0.2,0.5-0.5,1.1-0.8,1.8c-0.3,0.7-0.7,1.5-1,2.3c-0.4,0.8-0.8,1.7-1.1,2.6s-0.7,1.8-1.1,2.6
		c-0.4,0.8-0.7,1.6-1,2.3c-0.3,0.7-0.6,1.3-0.8,1.8c-0.1,0.1-0.1,0.2-0.2,0.3s-0.2,0.1-0.3,0.1c-0.1,0-0.4,0-0.7,0s-0.7,0-1.1,0
		c-0.4,0-0.8,0-1.1,0S464.9,184.8,464.7,184.8z"/>
	<path d="M0,235.9h19.7c0.1,0,0.2,0,0.3,0.1c0.1,0,0.1,0.1,0.2,0.2c0,0.1,0.1,0.2,0.1,0.3c0,0.6,0,1.1,0,1.6c0,0.5,0,1,0,1.6H0.5
		c-0.1,0-0.2,0-0.3-0.1c-0.1,0-0.1-0.1-0.2-0.2c0-0.1-0.1-0.2-0.1-0.3c0-0.6,0-1.1,0-1.6C0,237,0,236.4,0,235.9z M0,256.5h18.9
		c0.1,0,0.2,0,0.3,0.1c0.1,0,0.1,0.1,0.2,0.2c0,0.1,0.1,0.2,0.1,0.3c0,0.4,0,0.7,0,1.1c0,0.4,0,0.7,0,1.1c0,0.3,0,0.7,0,1.1H0.5
		c-0.1,0-0.2,0-0.3-0.1c-0.1,0-0.1-0.1-0.2-0.2c0-0.1-0.1-0.2-0.1-0.3c0-0.4,0-0.8,0-1.1c0-0.3,0-0.7,0-1.1C0,257.2,0,256.8,0,256.5
		z M15.4,224.4c1.1,0,2.1,0.1,3.1,0.2c0.9,0.1,1.7,0.3,2.4,0.4c0.6,0.2,1,0.4,1.2,0.5c0.1,0,0.1,0.1,0.1,0.2c0,0.1,0,0.1,0,0.2
		c0,0.5,0,1.1,0,1.6c0,0.5,0,1.1,0,1.6h-0.7c-0.6-0.3-1.2-0.4-1.9-0.6c-0.7-0.1-1.3-0.2-2.1-0.3c-0.7-0.1-1.5-0.1-2.3-0.1
		c-0.9,0-1.7,0.1-2.3,0.3c-0.6,0.2-1.1,0.5-1.6,0.8c-0.3,0.3-0.6,0.7-0.8,1.1c-0.2,0.4-0.3,0.9-0.4,1.5c-0.1,0.6-0.1,1.3-0.1,2
		c0,1.8,0,3.6,0,5.5c0,1.8,0,3.6,0,5.5s0,3.7,0,5.5s0,3.7,0,5.5c0,0.4,0,0.8,0,1.2c0,0.3,0,0.8,0,1.2l0.2,0.8H5.8c0-1.7,0-3.3,0-5
		c0-1.7,0-3.3,0-5c0-1.7,0-3.3,0-5s0-3.3,0-5c0-1.7,0-3.3,0-5c0-1.7,0.2-3.1,0.7-4.3c0.4-1.2,1.1-2.2,1.9-3.1c0.8-0.8,1.8-1.4,3-1.8
		C12.6,224.6,13.9,224.4,15.4,224.4z"/>
	<path d="M38.6,234.8c1.6,0,3.1,0.3,4.4,0.8c1.3,0.5,2.5,1.2,3.4,2.1c1,0.9,1.7,2,2.2,3.2c0.5,1.3,0.8,2.6,0.8,4.1v5.2
		c0,2.1-0.5,3.9-1.4,5.5c-0.9,1.6-2.2,2.8-3.8,3.7c-1.6,0.9-3.5,1.3-5.5,1.3c-1.6,0-3.1-0.3-4.4-0.8c-1.3-0.5-2.5-1.2-3.4-2.1
		c-1-0.9-1.7-2-2.2-3.3c-0.5-1.3-0.8-2.6-0.8-4.1v-5.2c0-2.1,0.5-3.9,1.4-5.5c0.9-1.6,2.2-2.8,3.8-3.7
		C34.8,235.2,36.6,234.8,38.6,234.8z M38.9,238.7c-1.4,0-2.7,0.3-3.6,0.9c-1,0.6-1.7,1.4-2.3,2.4c-0.5,1-0.8,2.1-0.8,3.4v4.7
		c0,1,0.2,2,0.5,2.8c0.3,0.8,0.8,1.5,1.3,2.1c0.5,0.5,1.2,1,1.9,1.3c0.7,0.3,1.6,0.5,2.5,0.5c1.4,0,2.7-0.3,3.6-0.9
		c1-0.6,1.7-1.4,2.3-2.4c0.5-1,0.8-2.1,0.8-3.4v-4.7c0-1.1-0.1-2.1-0.4-2.9s-0.7-1.6-1.3-2.1c-0.5-0.5-1.1-0.9-1.9-1.2
		C40.7,238.8,39.8,238.7,38.9,238.7z"/>
	<path d="M61.4,260.3c-0.4,0-0.9,0-1.3,0s-0.8,0-1.2,0c-0.4,0-0.9,0-1.3,0c-0.1,0-0.2,0-0.2,0c-0.1,0-0.1,0-0.2-0.1
		c0,0-0.1-0.1-0.1-0.2c0-0.1,0-0.1,0-0.2c0-1.7,0-3.3,0-5c0-1.7,0-3.3,0-4.9c0-1.6,0-3.3,0-4.9c0-1.7,0-3.3,0-5c0-1,0-1.9,0-2.7
		c0-0.8,0-1.4,0-2c0.5,0,1,0,1.4,0c0.4,0,0.8,0,1.2,0c0.4,0,0.8,0,1.2,0c0.1,0,0.2,0,0.3,0.1c0.1,0,0.1,0.1,0.2,0.2
		c0,0.1,0.1,0.2,0.1,0.3c0,2.7,0,5.4,0,8.1s0,5.5,0,8.2C61.4,254.8,61.4,257.5,61.4,260.3z M76.9,260.3c-0.7,0-1.3,0-1.9,0
		c-0.6,0-1.2,0-1.9,0c-0.1,0-0.2,0-0.3-0.1c-0.1,0-0.1-0.1-0.2-0.2c0-0.1-0.1-0.2-0.1-0.3c0-1.9,0-3.8,0-5.7c0-1.9,0-3.8,0-5.7
		c0-1.9,0-3.8,0-5.7c0-1.3-0.3-2.2-0.9-2.8c-0.6-0.6-1.5-0.9-2.6-0.9c-0.7,0-1.3,0.1-2,0.3c-0.7,0.2-1.4,0.5-2.1,0.9
		c-0.7,0.4-1.4,0.9-2.1,1.6c-0.7,0.6-1.4,1.4-2.1,2.3v-4.5h1.4c0.7-0.9,1.5-1.8,2.3-2.5c0.8-0.7,1.7-1.3,2.7-1.6
		c1-0.4,2-0.6,3.1-0.6c1.1,0,2,0.2,2.8,0.5c0.8,0.3,1.5,0.8,2.1,1.5c0.5,0.6,1,1.4,1.3,2.2c0.3,0.9,0.4,1.8,0.4,2.8c0,1.5,0,3,0,4.5
		s0,3,0,4.5c0,1.5,0,3,0,4.6c0,0.8,0,1.6,0,2.4C76.9,258.7,76.9,259.5,76.9,260.3z"/>
	<path d="M84.3,235.3h19.6c0.2,0,0.3,0,0.4,0.1c0.1,0.1,0.1,0.2,0.1,0.4c0,0.4,0,0.7,0,1.1s0,0.7,0,1.1c0,0.4,0,0.7,0,1.2H84.8
		c-0.1,0-0.2,0-0.2,0c-0.1,0-0.1,0-0.2-0.1s-0.1-0.1-0.1-0.2c0-0.1,0-0.1,0-0.2c0-0.4,0-0.8,0-1.2c0-0.4,0-0.7,0-1.1
		C84.3,236,84.3,235.6,84.3,235.3z M104.4,256.4c0,0.6,0,1.1,0,1.6c0,0.5,0,1.1,0,1.6c0,0.2,0,0.3-0.1,0.4c-0.1,0.1-0.2,0.2-0.4,0.2
		c-0.1,0-0.3,0-0.6,0c-0.3,0-0.7,0-1.1,0s-0.8,0-1.2,0c-0.4,0-0.8,0-1.1,0c-1.4,0-2.6-0.2-3.8-0.5c-1.1-0.3-2.1-0.8-3-1.6
		c-0.9-0.7-1.5-1.7-2-2.9c-0.5-1.2-0.7-2.7-0.7-4.5c0-1.6,0-3.1,0-4.7c0-1.6,0-3.1,0-4.7c0-1.6,0-3.1,0-4.7c0-1.6,0-3.1,0-4.7
		c0-0.8,0-1.6,0-2.3s0-1.6,0-2.4c0.7,0,1.3,0,1.9,0c0.6,0,1.3,0,1.9,0c0.1,0,0.2,0,0.3,0.1c0.1,0,0.1,0.1,0.2,0.2
		c0,0.1,0.1,0.2,0.1,0.3c0,2.5,0,5,0,7.5c0,2.5,0,5,0,7.6c0,2.5,0,5,0,7.5c0,1.2,0.1,2.1,0.3,2.9c0.2,0.8,0.5,1.4,1,1.8
		c0.4,0.4,0.9,0.7,1.6,0.9c0.7,0.2,1.5,0.3,2.5,0.3c0.6,0,1.2,0,1.8,0c0.6,0,1.2,0,1.8,0H104.4z"/>
	<path d="M114.7,244.1h16.5c0.1,0,0.2,0,0.3,0.1c0.1,0,0.1,0.1,0.2,0.2c0,0.1,0.1,0.2,0.1,0.3c0,0.6,0,1.2,0,1.8c0,0.6,0,1.2,0,1.9
		h-16.5c-0.1,0-0.2,0-0.2,0c-0.1,0-0.1,0-0.2-0.1s-0.1-0.1-0.1-0.2c0-0.1,0-0.1,0-0.2c0-0.7,0-1.3,0-1.9
		C114.7,245.3,114.7,244.7,114.7,244.1z"/>
	<path d="M143.7,235.3c0.1,0,0.2,0,0.2,0c0.1,0,0.1,0.1,0.2,0.2c0,0.1,0.1,0.2,0.1,0.3c0.8,2.2,1.5,4.4,2.3,6.6
		c0.8,2.2,1.5,4.5,2.3,7c0.8,2.4,1.5,5,2.3,7.8h0.7c0.5-1.7,1-3.3,1.4-4.8c0.5-1.6,0.9-3.1,1.4-4.5c0.5-1.5,0.9-2.9,1.4-4.3
		c0.5-1.4,0.9-2.8,1.4-4.2c0.5-1.4,0.9-2.7,1.3-4.1c0.7,0,1.3,0,2,0c0.7,0,1.3,0,2,0c0.1,0,0.2,0,0.3,0.1c0.1,0.1,0.1,0.1,0.2,0.2
		c0,0.1,0,0.2,0,0.4c-0.7,2-1.4,4-2.1,6s-1.4,4-2.1,6.1c-0.7,2-1.4,4.1-2.1,6.1s-1.4,4-2.1,6.1c-1,0-1.9,0-2.9,0c-1,0-1.8,0-2.6,0
		c-0.2,0-0.4,0-0.6-0.1c-0.2-0.1-0.3-0.2-0.5-0.4c-0.1-0.2-0.3-0.6-0.4-1c-0.8-2.4-1.7-4.9-2.6-7.5c-0.9-2.6-1.8-5.2-2.7-7.9
		c-0.9-2.7-1.9-5.4-2.8-8.1c0.7,0,1.4,0,2.1,0C142.3,235.3,143,235.3,143.7,235.3z"/>
	<path d="M173.1,253.6c0,1.1,0.3,1.9,0.9,2.4c0.6,0.5,1.5,0.8,2.7,0.8c1.1,0,2.1-0.1,3-0.4c1-0.3,1.9-0.8,2.8-1.4
		c0.9-0.7,1.8-1.6,2.8-2.8v4.1h-1.4c-0.5,1-1.2,1.8-2,2.4c-0.8,0.7-1.7,1.2-2.7,1.5c-1,0.3-2.2,0.5-3.4,0.5c-1.5,0-2.7-0.3-3.8-0.8
		c-1.1-0.5-1.9-1.3-2.5-2.3c-0.6-1-0.9-2.2-0.9-3.5v-1.5c0-1,0.2-2,0.5-2.8c0.3-0.8,0.8-1.5,1.5-2.1c0.6-0.6,1.4-1,2.3-1.3
		c0.9-0.3,1.9-0.5,3.1-0.5c1.1,0,2.2,0,3.2,0c1,0,2,0,3,0c1,0,2,0,3.1,0c0.3,0,0.5,0.2,0.6,0.5c0.1,0.3,0.2,0.7,0.2,1.2
		c0,0.5,0,0.9,0,1.4c-1.2,0-2.2,0-3.2,0c-1,0-2,0-3,0c-1,0-2.1,0-3.3,0c-0.7,0-1.2,0.1-1.7,0.2c-0.5,0.1-0.8,0.4-1.2,0.7
		c-0.3,0.3-0.5,0.6-0.6,1c-0.1,0.4-0.2,0.8-0.2,1.3V253.6z M188.9,243.8c0,0.9,0,1.8,0,2.6c0,0.9,0,1.8,0,2.7s0,1.8,0,2.7
		c0,0.9,0,1.8,0,2.6c0,0.4,0,0.8,0.1,1c0.1,0.3,0.2,0.5,0.4,0.7c0.2,0.2,0.3,0.3,0.6,0.3c0.2,0.1,0.5,0.1,0.8,0.1c0.1,0,0.1,0,0.2,0
		c0.1,0,0.2,0,0.3,0h0.7c0,0.6,0,1.1,0,1.6c0,0.5,0,1.1,0,1.6c0,0.2,0,0.3-0.1,0.4c-0.1,0.1-0.2,0.1-0.4,0.1c-0.2,0-0.4,0-0.7,0
		s-0.6,0-0.9,0c-0.7,0-1.4-0.1-2-0.3c-0.6-0.2-1.2-0.5-1.6-1c-0.5-0.4-0.8-1-1.1-1.6c-0.3-0.6-0.4-1.4-0.4-2.3c0-1.1,0-2.2,0-3.4
		s0-2.3,0-3.4c0-0.5,0-1,0-1.5c0-0.5,0-1,0-1.5c0-0.5,0-1,0-1.5c0-1.3-0.2-2.2-0.5-2.9c-0.4-0.7-1-1.2-1.8-1.5
		c-0.8-0.3-2-0.4-3.4-0.4c-0.9,0-1.8,0-2.6,0.1c-0.8,0.1-1.7,0.2-2.5,0.4c-0.8,0.2-1.6,0.5-2.4,0.8h-0.7c0-0.6,0-1.1,0-1.7
		c0-0.6,0-1.1,0-1.7c0-0.1,0-0.2,0-0.2c0-0.1,0.1-0.1,0.1-0.1c0.2-0.2,0.6-0.4,1.4-0.7c0.8-0.3,1.8-0.5,3-0.7
		c1.2-0.2,2.4-0.3,3.7-0.3c1.8,0,3.3,0.2,4.5,0.5s2.3,0.9,3.1,1.6c0.8,0.7,1.4,1.6,1.8,2.8C188.7,240.8,188.9,242.1,188.9,243.8z"/>
	<path d="M197.1,256.5h18.6c0.1,0,0.2,0,0.3,0.1c0.1,0,0.1,0.1,0.2,0.2c0,0.1,0.1,0.2,0.1,0.3c0,0.4,0,0.7,0,1.1c0,0.4,0,0.7,0,1.1
		c0,0.4,0,0.7,0,1.1h-18.6c-0.2,0-0.3,0-0.4-0.1c-0.1-0.1-0.1-0.2-0.1-0.4c0-0.4,0-0.7,0-1.1c0-0.4,0-0.7,0-1.1
		C197.1,257.2,197.1,256.8,197.1,256.5z M203.2,258v-2.2c0-0.5,0-1,0-1.5c0-0.5,0-1,0-1.5c0-0.5,0-1,0-1.5c0-1.3,0-2.7,0-4.1
		s0-2.7,0-4.1c0-1.4,0-2.7,0-4.1h-0.7c-0.8,0-1.5,0-2.3,0s-1.5,0-2.2,0c-0.2,0-0.3,0-0.4-0.1c-0.1-0.1-0.1-0.2-0.1-0.4
		c0-0.6,0-1.1,0-1.6c0-0.5,0-1.1,0-1.6c0.4,0,0.8,0,1.2,0c0.5,0,0.9,0,1.4,0c0.5,0,1,0,1.5,0c0.5,0,1,0,1.5,0s1,0,1.6,0
		c0.5,0,1.1,0,1.5,0c0.2,0.7,0.4,1.3,0.5,1.8c0.1,0.5,0.2,1,0.3,1.5c0.1,0.5,0.2,1.1,0.4,1.8c0,1.5,0,3,0,4.4c0,1.5,0,3,0,4.5
		c0,1.5,0,3,0,4.5s0,3,0,4.4L203.2,258z M206.5,239.7h1.5c1-1.5,2.2-2.7,3.5-3.5c1.4-0.9,3-1.3,4.8-1.3c0.8,0,1.5,0.1,2,0.2
		c0.5,0.1,0.8,0.3,0.9,0.4c0.1,0.1,0.1,0.1,0.1,0.2c0,0.1,0,0.2,0,0.4c0,0.6,0,1.3,0,1.9c0,0.6,0,1.3,0,1.9h-0.8
		c-0.5-0.2-1.1-0.3-1.6-0.4c-0.5-0.1-1.1-0.1-1.7-0.1c-0.9,0-1.9,0.1-2.8,0.4c-0.9,0.3-1.9,0.7-2.8,1.4c-0.9,0.6-1.9,1.5-2.9,2.7
		L206.5,239.7z"/>
	<path d="M225.3,256.5h21.2c0.1,0,0.2,0,0.3,0.1c0.1,0,0.1,0.1,0.2,0.2c0,0.1,0.1,0.2,0.1,0.3c0,0.4,0,0.7,0,1.1c0,0.4,0,0.7,0,1.1
		c0,0.4,0,0.7,0,1.1h-21.2c-0.1,0-0.2,0-0.3-0.1c-0.1,0-0.1-0.1-0.2-0.2c0-0.1-0.1-0.2-0.1-0.3c0-0.4,0-0.7,0-1.1c0-0.4,0-0.7,0-1.1
		C225.3,257.2,225.3,256.8,225.3,256.5z M234.3,257.6v-1.9c0-0.7,0-1.3,0-2s0-1.3,0-2c0-0.8,0-1.7,0-2.5c0-0.8,0-1.7,0-2.5
		s0-1.7,0-2.5c0-0.8,0-1.7,0-2.5c0-0.8,0-1.7,0-2.5h-0.7c-0.8,0-1.6,0-2.4,0c-0.8,0-1.6,0-2.4,0c-0.8,0-1.6,0-2.4,0
		c-0.1,0-0.2,0-0.3-0.1c-0.1,0-0.1-0.1-0.2-0.2c0-0.1-0.1-0.2-0.1-0.3c0-0.6,0-1.1,0-1.6c0-0.5,0-1.1,0-1.6c1.3,0,2.7,0,4,0
		c1.3,0,2.7,0,4,0c1.3,0,2.7,0,4,0c0.1,0,0.2,0,0.3,0.1c0.1,0,0.1,0.1,0.2,0.2c0,0.1,0.1,0.2,0.1,0.3c0,1.5,0,3,0,4.5
		c0,1.5,0,3,0,4.4c0,1.5,0,2.9,0,4.4s0,2.9,0,4.3c0,1.4,0,2.8,0,4.2H234.3z M233.5,223.9c0.4,0,0.9,0,1.3,0c0.5,0,0.9,0,1.4,0
		c0.5,0,0.9,0,1.4,0c0.5,0,0.9,0,1.3,0c0.2,0,0.3,0,0.4,0.1c0.1,0.1,0.1,0.2,0.1,0.4v4.6c-0.4,0-0.9,0-1.3,0c-0.5,0-0.9,0-1.4,0
		c-0.5,0-0.9,0-1.4,0c-0.5,0-0.9,0-1.3,0c-0.2,0-0.3,0-0.4-0.1s-0.1-0.2-0.1-0.4V223.9z"/>
	<path d="M257.7,253.6c0,1.1,0.3,1.9,0.9,2.4c0.6,0.5,1.5,0.8,2.7,0.8c1.1,0,2.1-0.1,3-0.4c1-0.3,1.9-0.8,2.8-1.4
		c0.9-0.7,1.8-1.6,2.8-2.8v4.1h-1.4c-0.5,1-1.2,1.8-2,2.4c-0.8,0.7-1.7,1.2-2.7,1.5c-1,0.3-2.2,0.5-3.4,0.5c-1.5,0-2.7-0.3-3.8-0.8
		c-1.1-0.5-1.9-1.3-2.5-2.3c-0.6-1-0.9-2.2-0.9-3.5v-1.5c0-1,0.2-2,0.5-2.8c0.3-0.8,0.8-1.5,1.5-2.1c0.6-0.6,1.4-1,2.3-1.3
		c0.9-0.3,1.9-0.5,3.1-0.5c1.1,0,2.2,0,3.2,0c1,0,2,0,3,0c1,0,2,0,3.1,0c0.3,0,0.5,0.2,0.6,0.5c0.1,0.3,0.2,0.7,0.2,1.2
		c0,0.5,0,0.9,0,1.4c-1.2,0-2.2,0-3.2,0c-1,0-2,0-3,0c-1,0-2.1,0-3.3,0c-0.7,0-1.2,0.1-1.7,0.2c-0.5,0.1-0.8,0.4-1.2,0.7
		c-0.3,0.3-0.5,0.6-0.6,1c-0.1,0.4-0.2,0.8-0.2,1.3V253.6z M273.5,243.8c0,0.9,0,1.8,0,2.6c0,0.9,0,1.8,0,2.7s0,1.8,0,2.7
		c0,0.9,0,1.8,0,2.6c0,0.4,0,0.8,0.1,1c0.1,0.3,0.2,0.5,0.4,0.7c0.2,0.2,0.3,0.3,0.6,0.3c0.2,0.1,0.5,0.1,0.8,0.1c0.1,0,0.1,0,0.2,0
		c0.1,0,0.2,0,0.3,0h0.7c0,0.6,0,1.1,0,1.6c0,0.5,0,1.1,0,1.6c0,0.2,0,0.3-0.1,0.4c-0.1,0.1-0.2,0.1-0.4,0.1c-0.2,0-0.4,0-0.7,0
		s-0.6,0-0.9,0c-0.7,0-1.4-0.1-2-0.3c-0.6-0.2-1.2-0.5-1.6-1c-0.5-0.4-0.8-1-1.1-1.6c-0.3-0.6-0.4-1.4-0.4-2.3c0-1.1,0-2.2,0-3.4
		s0-2.3,0-3.4c0-0.5,0-1,0-1.5c0-0.5,0-1,0-1.5c0-0.5,0-1,0-1.5c0-1.3-0.2-2.2-0.5-2.9c-0.4-0.7-1-1.2-1.8-1.5
		c-0.8-0.3-2-0.4-3.4-0.4c-0.9,0-1.8,0-2.6,0.1c-0.8,0.1-1.7,0.2-2.5,0.4c-0.8,0.2-1.6,0.5-2.4,0.8h-0.7c0-0.6,0-1.1,0-1.7
		c0-0.6,0-1.1,0-1.7c0-0.1,0-0.2,0-0.2c0-0.1,0.1-0.1,0.1-0.1c0.2-0.2,0.6-0.4,1.4-0.7c0.8-0.3,1.8-0.5,3-0.7
		c1.2-0.2,2.4-0.3,3.7-0.3c1.8,0,3.3,0.2,4.5,0.5s2.3,0.9,3.1,1.6c0.8,0.7,1.4,1.6,1.8,2.8C273.3,240.8,273.5,242.1,273.5,243.8z"/>
	<path d="M281.7,235.3h19.6c0.2,0,0.3,0,0.4,0.1c0.1,0.1,0.1,0.2,0.1,0.4c0,0.4,0,0.7,0,1.1s0,0.7,0,1.1c0,0.4,0,0.7,0,1.2h-19.6
		c-0.1,0-0.2,0-0.2,0c-0.1,0-0.1,0-0.2-0.1s-0.1-0.1-0.1-0.2c0-0.1,0-0.1,0-0.2c0-0.4,0-0.8,0-1.2c0-0.4,0-0.7,0-1.1
		C281.7,236,281.7,235.6,281.7,235.3z M301.8,256.4c0,0.6,0,1.1,0,1.6c0,0.5,0,1.1,0,1.6c0,0.2,0,0.3-0.1,0.4
		c-0.1,0.1-0.2,0.2-0.4,0.2c-0.1,0-0.3,0-0.6,0c-0.3,0-0.7,0-1.1,0s-0.8,0-1.2,0c-0.4,0-0.8,0-1.1,0c-1.4,0-2.6-0.2-3.8-0.5
		c-1.1-0.3-2.1-0.8-3-1.6c-0.9-0.7-1.5-1.7-2-2.9c-0.5-1.2-0.7-2.7-0.7-4.5c0-1.6,0-3.1,0-4.7c0-1.6,0-3.1,0-4.7c0-1.6,0-3.1,0-4.7
		c0-1.6,0-3.1,0-4.7c0-0.8,0-1.6,0-2.3s0-1.6,0-2.4c0.7,0,1.3,0,1.9,0c0.6,0,1.3,0,1.9,0c0.1,0,0.2,0,0.3,0.1c0.1,0,0.1,0.1,0.2,0.2
		c0,0.1,0.1,0.2,0.1,0.3c0,2.5,0,5,0,7.5c0,2.5,0,5,0,7.6c0,2.5,0,5,0,7.5c0,1.2,0.1,2.1,0.3,2.9c0.2,0.8,0.5,1.4,1,1.8
		c0.4,0.4,0.9,0.7,1.6,0.9c0.7,0.2,1.5,0.3,2.5,0.3c0.6,0,1.2,0,1.8,0c0.6,0,1.2,0,1.8,0H301.8z"/>
	<path d="M309.9,256.5h21.2c0.1,0,0.2,0,0.3,0.1c0.1,0,0.1,0.1,0.2,0.2c0,0.1,0.1,0.2,0.1,0.3c0,0.4,0,0.7,0,1.1c0,0.4,0,0.7,0,1.1
		c0,0.4,0,0.7,0,1.1h-21.2c-0.1,0-0.2,0-0.3-0.1c-0.1,0-0.1-0.1-0.2-0.2c0-0.1-0.1-0.2-0.1-0.3c0-0.4,0-0.7,0-1.1c0-0.4,0-0.7,0-1.1
		C309.9,257.2,309.9,256.8,309.9,256.5z M318.9,257.6v-1.9c0-0.7,0-1.3,0-2s0-1.3,0-2c0-0.8,0-1.7,0-2.5c0-0.8,0-1.7,0-2.5
		s0-1.7,0-2.5c0-0.8,0-1.7,0-2.5c0-0.8,0-1.7,0-2.5h-0.7c-0.8,0-1.6,0-2.4,0c-0.8,0-1.6,0-2.4,0c-0.8,0-1.6,0-2.4,0
		c-0.1,0-0.2,0-0.3-0.1c-0.1,0-0.1-0.1-0.2-0.2c0-0.1-0.1-0.2-0.1-0.3c0-0.6,0-1.1,0-1.6c0-0.5,0-1.1,0-1.6c1.3,0,2.7,0,4,0
		c1.3,0,2.7,0,4,0c1.3,0,2.7,0,4,0c0.1,0,0.2,0,0.3,0.1c0.1,0,0.1,0.1,0.2,0.2c0,0.1,0.1,0.2,0.1,0.3c0,1.5,0,3,0,4.5
		c0,1.5,0,3,0,4.4c0,1.5,0,2.9,0,4.4s0,2.9,0,4.3c0,1.4,0,2.8,0,4.2H318.9z M318.1,223.9c0.4,0,0.9,0,1.3,0c0.5,0,0.9,0,1.4,0
		c0.5,0,0.9,0,1.4,0c0.5,0,0.9,0,1.3,0c0.2,0,0.3,0,0.4,0.1c0.1,0.1,0.1,0.2,0.1,0.4v4.6c-0.4,0-0.9,0-1.3,0c-0.5,0-0.9,0-1.4,0
		c-0.5,0-0.9,0-1.4,0c-0.5,0-0.9,0-1.3,0c-0.2,0-0.3,0-0.4-0.1s-0.1-0.2-0.1-0.4V223.9z"/>
	<path d="M348.8,234.8c1.6,0,3.1,0.3,4.4,0.8c1.3,0.5,2.5,1.2,3.4,2.1c1,0.9,1.7,2,2.2,3.2c0.5,1.3,0.8,2.6,0.8,4.1v5.2
		c0,2.1-0.5,3.9-1.4,5.5c-0.9,1.6-2.2,2.8-3.8,3.7c-1.6,0.9-3.5,1.3-5.5,1.3c-1.6,0-3.1-0.3-4.4-0.8c-1.3-0.5-2.5-1.2-3.4-2.1
		c-1-0.9-1.7-2-2.2-3.3c-0.5-1.3-0.8-2.6-0.8-4.1v-5.2c0-2.1,0.5-3.9,1.4-5.5c0.9-1.6,2.2-2.8,3.8-3.7
		C345,235.2,346.8,234.8,348.8,234.8z M349.1,238.7c-1.4,0-2.7,0.3-3.6,0.9c-1,0.6-1.7,1.4-2.3,2.4c-0.5,1-0.8,2.1-0.8,3.4v4.7
		c0,1,0.2,2,0.5,2.8c0.3,0.8,0.8,1.5,1.3,2.1c0.5,0.5,1.2,1,1.9,1.3c0.7,0.3,1.6,0.5,2.5,0.5c1.4,0,2.7-0.3,3.6-0.9
		c1-0.6,1.7-1.4,2.3-2.4c0.5-1,0.8-2.1,0.8-3.4v-4.7c0-1.1-0.1-2.1-0.4-2.9s-0.7-1.6-1.3-2.1c-0.5-0.5-1.1-0.9-1.9-1.2
		C350.9,238.8,350,238.7,349.1,238.7z"/>
	<path d="M371.6,260.3c-0.4,0-0.9,0-1.3,0s-0.8,0-1.2,0c-0.4,0-0.9,0-1.3,0c-0.1,0-0.2,0-0.2,0c-0.1,0-0.1,0-0.2-0.1
		c0,0-0.1-0.1-0.1-0.2c0-0.1,0-0.1,0-0.2c0-1.7,0-3.3,0-5c0-1.7,0-3.3,0-4.9c0-1.6,0-3.3,0-4.9c0-1.7,0-3.3,0-5c0-1,0-1.9,0-2.7
		c0-0.8,0-1.4,0-2c0.5,0,1,0,1.4,0c0.4,0,0.8,0,1.2,0c0.4,0,0.8,0,1.2,0c0.1,0,0.2,0,0.3,0.1c0.1,0,0.1,0.1,0.2,0.2
		c0,0.1,0.1,0.2,0.1,0.3c0,2.7,0,5.4,0,8.1s0,5.5,0,8.2C371.6,254.8,371.6,257.5,371.6,260.3z M387.1,260.3c-0.7,0-1.3,0-1.9,0
		c-0.6,0-1.2,0-1.9,0c-0.1,0-0.2,0-0.3-0.1c-0.1,0-0.1-0.1-0.2-0.2c0-0.1-0.1-0.2-0.1-0.3c0-1.9,0-3.8,0-5.7c0-1.9,0-3.8,0-5.7
		c0-1.9,0-3.8,0-5.7c0-1.3-0.3-2.2-0.9-2.8c-0.6-0.6-1.5-0.9-2.6-0.9c-0.7,0-1.3,0.1-2,0.3c-0.7,0.2-1.4,0.5-2.1,0.9
		c-0.7,0.4-1.4,0.9-2.1,1.6c-0.7,0.6-1.4,1.4-2.1,2.3v-4.5h1.4c0.7-0.9,1.5-1.8,2.3-2.5c0.8-0.7,1.7-1.3,2.7-1.6
		c1-0.4,2-0.6,3.1-0.6c1.1,0,2,0.2,2.8,0.5c0.8,0.3,1.5,0.8,2.1,1.5c0.5,0.6,1,1.4,1.3,2.2c0.3,0.9,0.4,1.8,0.4,2.8c0,1.5,0,3,0,4.5
		s0,3,0,4.5c0,1.5,0,3,0,4.6c0,0.8,0,1.6,0,2.4C387.1,258.7,387.1,259.5,387.1,260.3z"/>
	<path d="M396.7,244.1h16.5c0.1,0,0.2,0,0.3,0.1c0.1,0,0.1,0.1,0.2,0.2c0,0.1,0.1,0.2,0.1,0.3c0,0.6,0,1.2,0,1.8c0,0.6,0,1.2,0,1.9
		h-16.5c-0.1,0-0.2,0-0.2,0c-0.1,0-0.1,0-0.2-0.1s-0.1-0.1-0.1-0.2c0-0.1,0-0.1,0-0.2c0-0.7,0-1.3,0-1.9
		C396.7,245.3,396.7,244.7,396.7,244.1z"/>
	<path d="M433.1,256.7c2.3,0,3.9-0.3,4.9-1c1-0.7,1.5-1.6,1.5-2.7c0-0.6-0.1-1.1-0.3-1.5c-0.2-0.4-0.6-0.8-1.3-1.1
		c-0.6-0.3-1.5-0.6-2.7-0.8l-4.7-0.9c-1.5-0.3-2.8-0.7-3.8-1.3c-1-0.5-1.7-1.2-2.2-2c-0.5-0.8-0.7-1.8-0.7-2.9c0-1.1,0.2-2.1,0.7-3
		c0.5-0.9,1.1-1.7,2-2.4c0.9-0.7,2-1.2,3.3-1.6c1.3-0.4,2.8-0.6,4.5-0.6c1.4,0,2.6,0.1,3.7,0.3c1.1,0.2,2,0.4,2.7,0.7
		c0.7,0.2,1.1,0.4,1.2,0.6c0.1,0,0.1,0.1,0.1,0.1c0,0.1,0,0.1,0,0.1c0,0,0,0.1,0,0.2c0,0.6,0,1.1,0,1.7s0,1.1,0,1.7h-0.7
		c-0.8-0.3-1.6-0.6-2.3-0.8c-0.7-0.2-1.5-0.3-2.2-0.4c-0.8-0.1-1.7-0.2-2.7-0.2c-1.3,0-2.4,0.1-3.3,0.4c-0.9,0.3-1.6,0.7-2,1.2
		c-0.5,0.5-0.7,1.2-0.7,1.9c0,0.5,0.1,1,0.3,1.4c0.2,0.4,0.6,0.7,1.2,1c0.6,0.3,1.4,0.5,2.5,0.7l4.7,0.9c1.7,0.3,3,0.8,4,1.4
		c1,0.6,1.7,1.3,2.2,2.2c0.4,0.9,0.7,1.9,0.7,3.1c0,1.6-0.4,3-1.2,4.1c-0.8,1.1-2.1,2-3.7,2.6c-1.6,0.6-3.6,0.9-5.9,0.9
		c-1.2,0-2.4-0.1-3.4-0.2c-1.1-0.2-2-0.3-2.9-0.6c-0.9-0.2-1.6-0.5-2.1-0.8c-0.5-0.3-0.9-0.5-1.2-0.8c-0.1-0.1-0.1-0.1-0.1-0.1
		c0,0,0-0.1,0-0.2c0-0.6,0-1.3,0-1.9c0-0.6,0-1.2,0-1.8h0.7c0.7,0.4,1.3,0.8,2,1c0.7,0.3,1.4,0.5,2.1,0.7c0.7,0.2,1.5,0.4,2.3,0.4
		C431,256.6,432,256.7,433.1,256.7z"/>
	<path d="M461.8,234.8c1.8,0,3.5,0.4,5.1,1.2c1.5,0.8,2.8,1.9,3.7,3.5c0.9,1.6,1.4,3.5,1.4,5.9v3.4c0,0.1,0,0.2-0.1,0.3
		c0,0.1-0.1,0.1-0.2,0.2c-0.1,0-0.2,0.1-0.3,0.1h-12.2c-0.5,0-1.1,0-1.6,0c-0.5,0-1.1,0-1.6,0h-1.4l-0.6-3.1h13.6c0-0.2,0-0.3,0-0.5
		c0-0.2,0-0.3,0-0.5c0-1.2-0.1-2.3-0.4-3.2c-0.3-0.9-0.7-1.6-1.2-2.2c-0.5-0.5-1.1-0.8-1.8-1.1c-0.7-0.2-1.5-0.4-2.4-0.4
		c-2,0-3.6,0.5-4.7,1.6c-1.1,1.1-1.6,2.8-1.6,5.3v4.9c0,1,0.1,1.9,0.4,2.7c0.3,0.8,0.7,1.5,1.2,2c0.6,0.6,1.4,1.1,2.5,1.4
		c1,0.3,2.2,0.4,3.5,0.4c1.2,0,2.2-0.1,3.1-0.2c0.9-0.1,1.7-0.3,2.4-0.6c0.8-0.3,1.5-0.6,2.3-0.9h0.7c0,0.5,0,1,0,1.6
		c0,0.5,0,1.1,0,1.6c0,0.1,0,0.1,0,0.2c0,0.1-0.1,0.1-0.1,0.2c-0.3,0.3-0.9,0.6-1.7,0.9c-0.8,0.3-1.8,0.6-3,0.8
		c-1.2,0.2-2.4,0.3-3.8,0.3c-1.8,0-3.4-0.2-4.9-0.7c-1.5-0.4-2.7-1.1-3.7-2c-1-0.9-1.8-2-2.3-3.3c-0.5-1.3-0.8-2.8-0.8-4.5v-4.9
		c0-1.8,0.3-3.4,0.8-4.7c0.5-1.3,1.3-2.5,2.3-3.3c1-0.9,2.1-1.5,3.4-2C458.9,235,460.3,234.8,461.8,234.8z"/>
</g>
<g class="st1">
	<path d="M68.7,12.5c3.4,0,6.5,0.5,9.3,1.6c2.7,1.1,5.1,2.7,7.1,4.8c2,2.1,3.5,4.6,4.5,7.5c1.1,2.9,1.6,6.2,1.6,9.8v33.7
		c0,2.1-0.3,4-0.8,5.8c-0.6,1.7-1.3,3.2-2.4,4.4c-1,1.2-2.3,2.2-3.9,2.8c-1.5,0.7-3.3,1-5.3,1h-0.5c-2.3,0-4.1-0.4-5.4-1.2
		c-1.3-0.8-2.1-2-2.6-3.6c-0.5-1.5-0.7-3.4-0.7-5.7c0-2.9,0-5.8,0-8.6s0-5.5,0-8.3c0-2.7,0-5.6,0-8.5c0-2.9,0-6,0-9.1
		c0-0.1,0.2-0.4,0.5-0.9c0.3-0.5,0.7-1.1,1.2-1.9c0.5-0.8,0.9-1.5,1.3-2.2h2.1c0.3,0,0.6,0.1,0.8,0.3c0.2,0.2,0.3,0.5,0.3,0.8
		c0,2.7,0,5.9,0,9.5s0,7.4,0,11.3c0,3.9,0,7.7,0,11.4c0,3.7,0,6.9,0,9.7c0,0.7,0.2,1.2,0.6,1.6c0.4,0.4,1,0.6,1.6,0.6h0.2
		c1.7,0,3.1-0.3,4.3-1c1.1-0.7,2-1.7,2.6-3.1c0.6-1.4,0.9-3.1,0.9-5.2V36.1c0-2.1-0.2-4.1-0.6-5.8c-0.4-1.8-0.9-3.3-1.6-4.7
		c-0.7-1.4-1.7-2.7-2.8-3.8c-1-1-2.2-1.9-3.4-2.6c-1.2-0.7-2.6-1.2-4-1.5c-1.4-0.3-3.1-0.5-4.8-0.5c-3.7,0-6.8,0.8-9.4,2.3
		c-2.6,1.5-4.5,3.7-5.9,6.5c-1.3,2.8-2,6.2-2,10.2v42.1c0,2.1,0.2,4.1,0.5,5.8c0.3,1.7,0.9,3.3,1.6,4.8c0.8,1.4,1.7,2.7,2.9,3.9
		c1.4,1.4,3.2,2.6,5.2,3.3c2.1,0.8,4.4,1.2,7,1.2c2.2,0,4.2-0.1,6-0.4c1.8-0.3,3.5-0.7,5.1-1.2c1.6-0.5,3.2-1.2,4.7-2h1.2V97
		c0,0.3,0,0.6-0.1,0.8c-0.1,0.2-0.2,0.4-0.5,0.7c-0.3,0.3-1,0.7-2.3,1.3c-1.3,0.6-3.1,1.2-5.4,1.7c-2.3,0.5-5.2,0.8-8.8,0.8
		c-3.4,0-6.5-0.6-9.3-1.6c-2.7-1.1-5.1-2.7-7.1-4.8c-2-2.1-3.5-4.6-4.5-7.5c-1.1-2.9-1.6-6.2-1.6-9.8V36.2c0-3.6,0.5-6.9,1.6-9.8
		c1.1-2.9,2.6-5.4,4.5-7.5c2-2.1,4.3-3.7,7.1-4.8C62.2,13,65.3,12.5,68.7,12.5z M65.1,83.8c-0.7,0-1.3-0.2-1.8-0.5
		c-0.5-0.3-0.9-0.8-1.2-1.4c-0.3-0.6-0.4-1.3-0.4-2.1V37.5c0-0.6,0.1-1.2,0.2-1.6c0.1-0.5,0.4-0.9,0.7-1.3c0.3-0.4,0.7-0.7,1.1-0.8
		c0.4-0.2,0.9-0.3,1.4-0.3c1.1,0,2,0.3,2.7,0.9c0.7,0.6,1.2,1.6,1.4,3h3.2l0.9,2.7c-0.8,0-1.3,0-1.5,0c-0.3,0-0.8,0-1.6,0
		c-0.1,0-0.1,0-0.2,0.1c0,0-0.1,0.1-0.1,0.2v36.2c0,0.1,0,0.1,0.1,0.2c0,0,0.1,0.1,0.2,0.1c0.7,0,1,0,1.1,0c0,0,0.1,0,0.1,0
		c0,0,0.4,0,1.1,0v3.2h-3.2c-0.3,1.4-0.8,2.4-1.4,3C67.1,83.5,66.2,83.8,65.1,83.8z"/>
	<path d="M108.8,31.3h41.1c0.3,0,0.5,0.1,0.6,0.2c0.1,0.1,0.3,0.2,0.4,0.4c0.1,0.1,0.2,0.3,0.2,0.6c0,0.7,0,1.3,0,1.8
		c0,0.5,0,1.1,0,1.8H110c-0.2,0-0.4-0.1-0.6-0.2c-0.2-0.1-0.3-0.2-0.4-0.4c-0.1-0.2-0.2-0.4-0.2-0.6c0-0.7,0-1.3,0-1.8
		C108.8,32.6,108.8,32,108.8,31.3z M108.8,80.7h38c0.3,0,0.5,0.1,0.6,0.2c0.1,0.1,0.3,0.2,0.4,0.4c0.1,0.1,0.2,0.3,0.2,0.6
		c0,0.4,0,0.8,0,1.2c0,0.4,0,0.8,0,1.1c0,0.4,0,0.8,0,1.3h-38c-0.2,0-0.4-0.1-0.6-0.2c-0.2-0.1-0.3-0.2-0.4-0.4
		c-0.1-0.1-0.2-0.3-0.2-0.6c0-0.5,0-0.9,0-1.3c0-0.4,0-0.8,0-1.1C108.8,81.5,108.8,81.1,108.8,80.7z M141.4,7.2
		c2.2,0,4.3,0.2,6.4,0.5c2.1,0.3,3.8,0.7,5.4,1.1c1.5,0.4,2.4,0.8,2.8,1.2c0.1,0.1,0.2,0.2,0.3,0.3c0,0.1,0.1,0.3,0.1,0.5
		c0,0.6,0,1.3,0,1.9c0,0.7,0,1.3,0,1.9H155c-1.2-0.6-2.6-1.1-4.2-1.5c-1.5-0.4-3.1-0.7-4.8-0.8c-1.6-0.2-3.3-0.3-5-0.3
		c-2.3,0-4.3,0.3-5.9,0.8c-1.6,0.5-3,1.3-4.1,2.3c-0.8,0.8-1.5,1.8-2.1,3c-0.6,1.2-0.9,2.6-1.2,4.1c-0.2,1.5-0.4,3.3-0.4,5.3
		c0,4.3,0,8.6,0,13c0,4.3,0,8.7,0,13c0,4.4,0,8.7,0,13.1c0,4.4,0,8.7,0,13c0,0.6,0,1.2,0,1.8c0,0.6,0,1.2,0,1.8l0.4,1.1h-5.6
		c0-3.8,0-7.5,0-11.3c0-3.7,0-7.5,0-11.2c0-3.7,0-7.5,0-11.2c0-3.7,0-7.5,0-11.2c0-3.7,0-7.5,0-11.3c0-3.8,0.4-7.1,1.3-9.7
		c0.9-2.6,2.2-4.8,3.9-6.5c1.7-1.7,3.7-2.9,6.1-3.7C135.9,7.6,138.5,7.2,141.4,7.2z"/>
	<path d="M192.2,30.3c3.4,0,6.4,0.5,9.1,1.6c2.7,1.1,5,2.6,7,4.5c2,1.9,3.4,4.2,4.5,6.8c1,2.6,1.5,5.5,1.5,8.5v12.5
		c0,4.4-1,8.3-3,11.6c-2,3.4-4.7,6-8,7.9c-3.4,1.9-7.1,2.8-11.1,2.8c-3.4,0-6.4-0.5-9.1-1.6c-2.7-1.1-5-2.6-7-4.5
		c-2-1.9-3.4-4.2-4.5-6.8c-1-2.6-1.5-5.5-1.5-8.5V52.6c0-4.5,1-8.4,3-11.7c2-3.3,4.7-5.9,8-7.8C184.5,31.2,188.2,30.3,192.2,30.3z
		 M193.1,35.2c-3.9,0-7.2,0.8-9.8,2.4c-2.6,1.6-4.6,3.7-6,6.3c-1.4,2.6-2.1,5.5-2.1,8.6v11.7c0,2.5,0.4,4.9,1.3,7.1
		c0.9,2.2,2,4,3.6,5.5c1.4,1.4,3,2.6,4.9,3.4c1.9,0.8,4,1.2,6.3,1.2c3.9,0,7.2-0.8,9.9-2.5c2.7-1.7,4.7-3.8,6-6.5
		c1.3-2.6,2-5.4,2-8.4V52.4c0-2.7-0.4-5.1-1.2-7.3c-0.8-2.2-2-4-3.5-5.5c-1.4-1.4-3-2.5-4.9-3.2C197.6,35.6,195.5,35.2,193.1,35.2z"
		/>
	<path d="M239.6,85.4c-0.4,0-0.8,0-1.3,0c-0.4,0-0.9,0-1.3,0c-0.4,0-0.9,0-1.4,0c-0.2,0-0.4,0-0.5-0.1c-0.1,0-0.3-0.1-0.4-0.2
		s-0.2-0.2-0.2-0.4c0-0.1-0.1-0.3-0.1-0.5c0-3.6,0-7.1,0-10.7c0-3.6,0-7.1,0-10.7c0-3.5,0-7.1,0-10.7c0-3.6,0-7.1,0-10.7
		c0-2.5,0-4.6,0-6.4c0-1.8,0-3.1,0-3.9c0.5,0,0.9,0,1.4,0c0.4,0,0.9,0,1.3,0c0.4,0,0.9,0,1.3,0c0.3,0,0.5,0.1,0.6,0.2
		c0.1,0.1,0.3,0.2,0.4,0.4c0.1,0.1,0.2,0.3,0.2,0.6c0,5.8,0,11.7,0,17.6c0,5.9,0,11.8,0,17.7C239.6,73.6,239.6,79.5,239.6,85.4z
		 M274,85.4c-0.7,0-1.4,0-2,0c-0.7,0-1.3,0-2,0c-0.2,0-0.4-0.1-0.6-0.2c-0.2-0.1-0.3-0.2-0.4-0.4c-0.1-0.1-0.2-0.3-0.2-0.6
		c0-4.3,0-8.5,0-12.8c0-4.3,0-8.5,0-12.8c0-4.3,0-8.5,0-12.8c0-3.7-0.9-6.4-2.8-8.2c-1.9-1.8-4.3-2.7-7.4-2.7
		c-1.6,0-3.3,0.3-4.9,0.8c-1.6,0.5-3.2,1.3-4.9,2.4c-1.6,1.1-3.3,2.4-5.1,4c-1.8,1.6-3.6,3.6-5.6,5.8v-7.4h2.6
		c1.8-2.1,3.6-4,5.6-5.5c1.9-1.5,4-2.7,6.2-3.6c2.2-0.9,4.6-1.3,7.2-1.3c2.4,0,4.5,0.4,6.3,1.1c1.8,0.8,3.3,1.8,4.4,3.2
		c1.2,1.4,2.1,2.9,2.7,4.7c0.6,1.7,0.9,3.7,0.9,5.7c0,3.3,0,6.6,0,9.9c0,3.3,0,6.6,0,9.8c0,3.3,0,6.5,0,9.8c0,1.9,0,3.7,0,5.5
		C274,81.9,274,83.7,274,85.4z"/>
	<path d="M293.1,31.3h42.1c0.3,0,0.6,0.1,0.8,0.3c0.2,0.2,0.3,0.5,0.3,0.8c0,0.4,0,0.8,0,1.2c0,0.4,0,0.8,0,1.1c0,0.4,0,0.8,0,1.3
		h-42.1c-0.2,0-0.4,0-0.5-0.1c-0.1,0-0.3-0.1-0.4-0.2c-0.1-0.1-0.2-0.2-0.2-0.4c0-0.1-0.1-0.3-0.1-0.5c0-0.5,0-0.9,0-1.3
		c0-0.4,0-0.8,0-1.1C293.1,32.1,293.1,31.7,293.1,31.3z M336.3,80.6c0,0.6,0,1.2,0,1.8c0,0.6,0,1.2,0,1.8c0,0.4-0.1,0.7-0.3,0.9
		c-0.2,0.2-0.5,0.3-0.9,0.3c-0.2,0-0.7,0-1.3,0c-0.7,0-1.5,0-2.5,0c-1,0-1.9,0-2.8,0c-0.9,0-1.8,0-2.5,0c-2.4,0-4.7-0.3-6.9-0.8
		c-2.2-0.5-4.2-1.5-5.9-2.9c-1.8-1.4-3.1-3.4-4.2-5.9c-1-2.5-1.5-5.7-1.5-9.6c0-3.6,0-7.1,0-10.7c0-3.5,0-7.1,0-10.6
		c0-3.5,0-7.1,0-10.6c0-3.5,0-7.1,0-10.7c0-1.7,0-3.4,0-5.1c0-1.7,0-3.4,0-5.1c0.7,0,1.4,0,2,0c0.7,0,1.3,0,2,0
		c0.3,0,0.5,0.1,0.6,0.2c0.1,0.1,0.3,0.2,0.4,0.4c0.1,0.1,0.2,0.3,0.2,0.6c0,5.6,0,11.3,0,16.9c0,5.6,0,11.3,0,16.9
		c0,5.6,0,11.3,0,16.9c0,3,0.3,5.5,0.8,7.6c0.5,2,1.4,3.6,2.6,4.8c1.1,1.1,2.5,1.9,4.3,2.4c1.8,0.5,3.9,0.7,6.4,0.7
		c1.4,0,2.9,0,4.3,0c1.4,0,2.8,0,4.2,0H336.3z"/>
	<path d="M359.6,52h34.7c0.3,0,0.5,0.1,0.6,0.2c0.1,0.1,0.3,0.2,0.4,0.4c0.1,0.1,0.2,0.3,0.2,0.6c0,0.7,0,1.4,0,2c0,0.7,0,1.3,0,2
		h-34.7c-0.2,0-0.4,0-0.5-0.1c-0.1,0-0.3-0.1-0.4-0.2s-0.2-0.2-0.2-0.4c0-0.1-0.1-0.3-0.1-0.5c0-0.7,0-1.4,0-2
		C359.6,53.4,359.6,52.7,359.6,52z"/>
	<path d="M417.6,31.3h41.1c0.3,0,0.5,0.1,0.6,0.2c0.1,0.1,0.3,0.2,0.4,0.4c0.1,0.1,0.2,0.3,0.2,0.6c0,0.7,0,1.3,0,1.8
		c0,0.5,0,1.1,0,1.8h-41.1c-0.2,0-0.4-0.1-0.6-0.2c-0.2-0.1-0.3-0.2-0.4-0.4c-0.1-0.2-0.2-0.4-0.2-0.6c0-0.7,0-1.3,0-1.8
		C417.6,32.6,417.6,32,417.6,31.3z M417.6,80.7h38c0.3,0,0.5,0.1,0.6,0.2c0.1,0.1,0.3,0.2,0.4,0.4c0.1,0.1,0.2,0.3,0.2,0.6
		c0,0.4,0,0.8,0,1.2c0,0.4,0,0.8,0,1.1c0,0.4,0,0.8,0,1.3h-38c-0.2,0-0.4-0.1-0.6-0.2c-0.2-0.1-0.3-0.2-0.4-0.4
		c-0.1-0.1-0.2-0.3-0.2-0.6c0-0.5,0-0.9,0-1.3c0-0.4,0-0.8,0-1.1C417.6,81.5,417.6,81.1,417.6,80.7z M450.2,7.2
		c2.2,0,4.3,0.2,6.4,0.5c2.1,0.3,3.8,0.7,5.4,1.1c1.5,0.4,2.4,0.8,2.8,1.2c0.1,0.1,0.2,0.2,0.3,0.3c0,0.1,0.1,0.3,0.1,0.5
		c0,0.6,0,1.3,0,1.9c0,0.7,0,1.3,0,1.9h-1.2c-1.2-0.6-2.6-1.1-4.2-1.5c-1.5-0.4-3.1-0.7-4.8-0.8c-1.6-0.2-3.3-0.3-5-0.3
		c-2.3,0-4.3,0.3-5.9,0.8c-1.6,0.5-3,1.3-4.1,2.3c-0.8,0.8-1.5,1.8-2.1,3c-0.6,1.2-0.9,2.6-1.2,4.1c-0.2,1.5-0.4,3.3-0.4,5.3
		c0,4.3,0,8.6,0,13c0,4.3,0,8.7,0,13c0,4.4,0,8.7,0,13.1c0,4.4,0,8.7,0,13c0,0.6,0,1.2,0,1.8c0,0.6,0,1.2,0,1.8l0.4,1.1H431
		c0-3.8,0-7.5,0-11.3c0-3.7,0-7.5,0-11.2c0-3.7,0-7.5,0-11.2c0-3.7,0-7.5,0-11.2c0-3.7,0-7.5,0-11.3c0-3.8,0.4-7.1,1.3-9.7
		c0.9-2.6,2.2-4.8,3.9-6.5c1.7-1.7,3.7-2.9,6.1-3.7C444.7,7.6,447.3,7.2,450.2,7.2z"/>
</g>
<g class="st1">
	<path d="M60.5,268.3c4.2,0,7.9,0.7,11.3,2c3.3,1.3,6.2,3.3,8.6,5.8c2.4,2.6,4.2,5.6,5.5,9.2c1.3,3.6,1.9,7.6,1.9,12v41
		c0,2.6-0.3,4.9-1,7c-0.7,2.1-1.6,3.9-2.9,5.4s-2.8,2.7-4.7,3.5c-1.9,0.8-4,1.2-6.5,1.2h-0.6c-2.8,0-5-0.5-6.6-1.5
		c-1.5-1-2.6-2.4-3.2-4.3c-0.6-1.9-0.9-4.2-0.9-7c0-3.6,0-7.1,0-10.5c0-3.4,0-6.8,0-10.1c0-3.3,0-6.8,0-10.4c0-3.6,0-7.3,0-11.1
		c0-0.1,0.2-0.4,0.6-1.1s0.9-1.4,1.4-2.3c0.6-0.9,1.1-1.8,1.6-2.6h2.5c0.4,0,0.8,0.1,1,0.4s0.4,0.6,0.4,1c0,3.3,0,7.2,0,11.6
		s0,9,0,13.7s0,9.4,0,13.9c0,4.5,0,8.4,0,11.9c0,0.8,0.3,1.5,0.8,2s1.2,0.8,2,0.8H72c2.1,0,3.8-0.4,5.2-1.3c1.4-0.8,2.4-2.1,3.2-3.8
		c0.8-1.7,1.1-3.8,1.1-6.4v-41.2c0-2.6-0.2-5-0.7-7.1c-0.5-2.1-1.1-4.1-2-5.8c-0.9-1.7-2-3.2-3.5-4.6c-1.3-1.3-2.6-2.3-4.1-3.1
		c-1.5-0.8-3.1-1.4-4.9-1.8c-1.8-0.4-3.7-0.6-5.9-0.6c-4.5,0-8.3,0.9-11.5,2.8c-3.1,1.9-5.5,4.5-7.2,8c-1.6,3.4-2.4,7.6-2.4,12.4
		v51.3c0,2.6,0.2,5,0.6,7.1c0.4,2.1,1.1,4.1,2,5.8c0.9,1.8,2.1,3.3,3.5,4.8c1.8,1.8,3.9,3.1,6.4,4.1c2.5,1,5.4,1.4,8.5,1.4
		c2.7,0,5.1-0.2,7.3-0.5c2.2-0.3,4.3-0.8,6.2-1.4c1.9-0.6,3.8-1.4,5.8-2.4h1.5v3.8c0,0.4,0,0.7-0.1,0.9c-0.1,0.2-0.3,0.5-0.6,0.8
		c-0.3,0.3-1.3,0.9-2.8,1.6c-1.5,0.8-3.7,1.5-6.6,2.1c-2.8,0.7-6.4,1-10.7,1c-4.2,0-7.9-0.7-11.3-2c-3.3-1.3-6.2-3.3-8.6-5.8
		c-2.4-2.6-4.2-5.6-5.5-9.2c-1.3-3.6-1.9-7.5-1.9-12v-51.6c0-4.4,0.6-8.4,1.9-12c1.3-3.6,3.1-6.6,5.5-9.2c2.4-2.6,5.2-4.5,8.6-5.8
		C52.5,269,56.3,268.3,60.5,268.3z M56.1,355.2c-0.8,0-1.6-0.2-2.2-0.6c-0.6-0.4-1.1-1-1.4-1.7c-0.3-0.7-0.5-1.6-0.5-2.6v-51.6
		c0-0.8,0.1-1.4,0.3-2c0.2-0.6,0.4-1.1,0.8-1.6c0.4-0.5,0.8-0.8,1.3-1c0.5-0.2,1.1-0.3,1.8-0.3c1.3,0,2.4,0.4,3.3,1.1
		c0.8,0.8,1.4,2,1.8,3.6H65l1.1,3.3c-0.9,0-1.5,0-1.9,0c-0.3,0-1,0-2,0c-0.1,0-0.1,0-0.2,0.1c0,0-0.1,0.1-0.1,0.2v44.2
		c0,0.1,0,0.1,0.1,0.2c0,0,0.1,0.1,0.2,0.1c0.8,0,1.3,0,1.3,0c0,0,0.1,0,0.1,0c0,0,0.5,0,1.3,0v3.9h-3.9c-0.3,1.7-0.9,2.9-1.8,3.6
		C58.5,354.9,57.4,355.2,56.1,355.2z"/>
	<path d="M108.1,351.5h55.1c0.3,0,0.6,0.1,0.8,0.2c0.2,0.1,0.3,0.3,0.4,0.4c0.1,0.2,0.2,0.4,0.2,0.8c0,0.5,0,1,0,1.4
		c0,0.5,0,0.9,0,1.4s0,1,0,1.5h-55.1c-0.3,0-0.5-0.1-0.7-0.2c-0.2-0.1-0.4-0.3-0.5-0.4c-0.1-0.2-0.2-0.4-0.2-0.8c0-0.5,0-1,0-1.5
		s0-1,0-1.4C108.1,352.5,108.1,352,108.1,351.5z M133.2,353v-3c0-1.9,0-3.8,0-5.8c0-1.9,0-3.8,0-5.8c0-2.8,0-5.5,0-8.3s0-5.5,0-8.3
		s0-5.5,0-8.3c0-2.8,0-5.5,0-8.3s0-5.5,0-8.3h-1.5c-2.3,0-4.7,0-7,0c-2.3,0-4.6,0-6.9,0c-2.3,0-4.7,0-7.1,0c-0.3,0-0.5-0.1-0.7-0.2
		c-0.2-0.1-0.4-0.3-0.5-0.5c-0.1-0.2-0.2-0.4-0.2-0.7c0-0.8,0-1.5,0-2.2c0-0.7,0-1.4,0-2.2c3.2,0,6.4,0,9.5,0c3.2,0,6.4,0,9.6,0
		c3.2,0,6.4,0,9.6,0c0.3,0,0.6,0.1,0.8,0.2c0.2,0.1,0.3,0.3,0.4,0.4c0.1,0.2,0.2,0.4,0.2,0.8c0,4.1,0,8.2,0,12.2s0,8,0,12
		c0,4,0,8,0,12s0,8,0,12c0,4,0,8.1,0,12.2H133.2z M131.4,262.5c0.8,0,1.5,0,2.2,0c0.7,0,1.4,0,2.1,0c0.7,0,1.4,0,2.1,0
		c0.7,0,1.4,0,2.2,0c0.4,0,0.8,0.1,1,0.4s0.4,0.6,0.4,1v8.7c-0.8,0-1.5,0-2.2,0c-0.7,0-1.4,0-2.1,0c-0.7,0-1.4,0-2.1,0
		c-0.7,0-1.4,0-2.2,0c-0.4,0-0.8-0.1-1-0.4s-0.4-0.6-0.4-1V262.5z"/>
	<path d="M187.2,357.3c-0.4,0-0.8,0-1.3,0c-0.4,0-0.8,0-1.2,0s-0.8,0-1.2,0c-0.4,0-0.8,0-1.3,0c-0.3,0-0.5,0-0.6-0.1
		c-0.2,0-0.3-0.1-0.4-0.3s-0.2-0.3-0.3-0.4c0-0.2-0.1-0.4-0.1-0.6c0-5.8,0-11.5,0-17.3c0-5.8,0-11.6,0-17.4c0-5.8,0-11.6,0-17.4
		c0-3,0-5.6,0-7.8c0-2.2,0-3.8,0-4.8c0.4,0,0.8,0,1.3,0c0.4,0,0.8,0,1.2,0s0.8,0,1.2,0c0.4,0,0.8,0,1.3,0c0.3,1.9,0.6,3.5,0.8,4.8
		c0.2,1.3,0.4,2.9,0.6,5c0,4.4,0,9.5,0,15.6c0,6,0,12.5,0,19.5C187.2,343,187.2,350.1,187.2,357.3z M214.2,357.3c-0.5,0-1,0-1.6,0
		c-0.5,0-1.1,0-1.6,0c-0.5,0-1.1,0-1.7,0c-0.3,0-0.5-0.1-0.7-0.2c-0.2-0.1-0.4-0.3-0.5-0.4c-0.1-0.2-0.2-0.4-0.2-0.8
		c0-4.4,0-8.9,0-13.3c0-4.4,0-8.9,0-13.4c0-4.5,0-8.9,0-13.4c0-4.4,0-8.9,0-13.3c0-1.4-0.2-2.6-0.6-3.6c-0.4-1-1-1.7-1.8-2.3
		c-0.8-0.5-1.9-0.8-3.2-0.8c-1.8,0-3.6,0.6-5.3,1.7c-1.7,1.1-3.5,2.8-5.3,5.1c-1.8,2.3-3.9,5.3-6.1,8.8l-0.1-11.2h3.1
		c1.3-2.3,2.7-4.3,4.1-5.8c1.4-1.5,3-2.7,4.7-3.5c1.7-0.8,3.6-1.2,5.6-1.2c1.8,0,3.3,0.3,4.7,0.9c1.4,0.6,2.6,1.4,3.5,2.6
		c1,1.1,1.7,2.4,2.2,4s0.8,3.2,0.8,5c0,4.6,0,9.2,0,13.7c0,4.6,0,9.1,0,13.7c0,4.6,0,9.1,0,13.7
		C214.2,348.1,214.2,352.7,214.2,357.3z M241.2,357.3c-0.5,0-1,0-1.6,0c-0.5,0-1.1,0-1.6,0c-0.5,0-1.1,0-1.7,0
		c-0.3,0-0.5-0.1-0.7-0.2c-0.2-0.1-0.4-0.3-0.5-0.4c-0.1-0.2-0.2-0.4-0.2-0.8c0-4.4,0-8.9,0-13.3c0-4.4,0-8.9,0-13.3
		c0-4.4,0-8.9,0-13.3c0-4.4,0-8.9,0-13.3c0-2.1-0.4-3.7-1.3-5c-0.9-1.2-2.3-1.8-4.2-1.8c-1.8,0-3.6,0.6-5.3,1.7
		c-1.7,1.1-3.5,2.8-5.3,5.1c-1.8,2.3-3.9,5.3-6.1,8.8l-0.4-11.2h3.4c1.3-2.3,2.7-4.3,4.1-5.8c1.4-1.5,3-2.7,4.6-3.5
		c1.7-0.8,3.5-1.2,5.5-1.2c1.8,0,3.3,0.3,4.8,0.9c1.4,0.6,2.6,1.4,3.6,2.5c1,1.1,1.7,2.4,2.2,3.9s0.8,3.2,0.8,5.1
		c0,4.7,0,9.4,0,14.1c0,4.7,0,9.4,0,14.1c0,4.7,0,9.4,0,14.2c0,2.1,0,4.2,0,6.2C241.2,353.1,241.2,355.2,241.2,357.3z"/>
	<path d="M262.5,291.2c0.6,0,1.1,0,1.7,0c0.5,0,1.1,0,1.6,0c0.5,0,1.1,0,1.6,0c0.3,0,0.6,0.1,0.8,0.2c0.2,0.1,0.3,0.3,0.4,0.4
		c0.1,0.2,0.2,0.4,0.2,0.8c0,7.4,0,14.9,0,22.4c0,7.5,0,15,0,22.5c0,7.5,0,15,0,22.5c0,7.5,0,15,0,22.4c-0.5,0-1,0-1.6,0
		c-0.5,0-1.1,0-1.6,0c-0.5,0-1.1,0-1.7,0c-0.3,0-0.5-0.1-0.7-0.2c-0.2-0.1-0.4-0.3-0.5-0.5c-0.1-0.2-0.2-0.4-0.2-0.7
		c0-6.4,0-12.9,0-19.3s0-12.9,0-19.3s0-12.8,0-19.3c0-6.4,0-12.9,0-19.3c0-1.9,0-4,0-6.1S262.5,293.4,262.5,291.2z M291.7,290
		c4.4,0,8.4,1,11.8,2.9c3.4,2,6.1,4.8,8.1,8.5c2,3.7,2.9,8.1,2.9,13.2v18.1c0,4-0.6,7.6-1.7,10.8c-1.1,3.2-2.7,5.9-4.8,8.2
		c-2.1,2.3-4.6,4-7.4,5.1c-2.8,1.2-6,1.8-9.4,1.8c-3,0-5.8-0.3-8.3-1c-2.6-0.7-4.9-1.7-6.9-3.1c-2.1-1.4-4-3.3-5.7-5.6h-3.4v-10.5
		c2.9,5.2,6.4,8.9,10.4,11.1c4,2.2,8.4,3.3,13.4,3.3c3.6,0,6.7-0.8,9.3-2.4c2.6-1.6,4.7-4,6.1-7.1c1.5-3.1,2.2-6.9,2.2-11.4v-16.3
		c0-3.3-0.4-6.1-1.3-8.7s-2.2-4.6-3.8-6.3c-1.5-1.5-3.3-2.7-5.4-3.5c-2.1-0.8-4.5-1.2-7.2-1.2c-2.9,0-5.7,0.6-8.4,1.9
		c-2.7,1.3-5.3,3.2-7.8,5.9c-2.5,2.7-5,6.2-7.5,10.7v-11.5h3.4c1.8-2.8,3.7-5.1,5.8-7c2.1-1.9,4.5-3.3,7.1-4.3
		C285.8,290.5,288.6,290,291.7,290z"/>
	<path d="M361.6,290c4.1,0,7.8,0.6,11.1,1.9c3.3,1.3,6.1,3.1,8.5,5.5c2.4,2.3,4.2,5.1,5.5,8.3c1.3,3.2,1.9,6.7,1.9,10.4v15.2
		c0,5.4-1.2,10.1-3.6,14.2c-2.4,4.1-5.7,7.3-9.8,9.6c-4.1,2.3-8.6,3.5-13.6,3.5c-4.1,0-7.8-0.6-11.1-1.9c-3.3-1.3-6.1-3.1-8.5-5.5
		c-2.4-2.3-4.2-5.1-5.5-8.3c-1.3-3.2-1.9-6.7-1.9-10.4v-15.2c0-5.4,1.2-10.2,3.6-14.2c2.4-4.1,5.7-7.2,9.8-9.5
		C352.2,291.1,356.7,290,361.6,290z M362.7,296c-4.8,0-8.8,1-12,2.9c-3.2,2-5.7,4.5-7.3,7.7c-1.7,3.2-2.5,6.7-2.5,10.5v14.3
		c0,3.1,0.5,6,1.6,8.6c1,2.6,2.5,4.9,4.3,6.7c1.7,1.8,3.7,3.1,6,4.1c2.3,1,4.9,1.5,7.7,1.5c4.8,0,8.8-1,12-3.1
		c3.3-2,5.7-4.7,7.3-7.9c1.6-3.2,2.4-6.6,2.4-10.2V317c0-3.3-0.5-6.2-1.5-8.8s-2.4-4.9-4.3-6.7c-1.7-1.7-3.7-3-6-4
		C368.2,296.5,365.6,296,362.7,296z"/>
	<path d="M409.3,351.5h47.6c0.3,0,0.6,0.1,0.8,0.2c0.2,0.1,0.3,0.3,0.4,0.4c0.1,0.2,0.2,0.4,0.2,0.8c0,0.5,0,1,0,1.4
		c0,0.5,0,0.9,0,1.4s0,1,0,1.5h-47.6c-0.4,0-0.8-0.1-1-0.4s-0.4-0.6-0.4-1c0-0.5,0-1,0-1.5s0-1,0-1.4
		C409.3,352.5,409.3,352,409.3,351.5z M426.2,353v-3c0-1.3,0-2.6,0-3.9s0-2.5,0-3.8c0-1.3,0-2.6,0-3.8c0-4.6,0-9.2,0-13.8
		c0-4.6,0-9.2,0-13.9s0-9.2,0-13.7h-1.5c-2.1,0-4.2,0-6.4,0c-2.2,0-4.3,0-6.4,0c-0.4,0-0.8-0.1-1-0.4s-0.4-0.6-0.4-1
		c0-0.8,0-1.5,0-2.2c0-0.7,0-1.4,0-2.2c1.2,0,2.3,0,3.5,0c1.2,0,2.3,0,3.5,0s2.3,0,3.4,0s2.3,0,3.5,0c1.2,0,2.3,0,3.5,0
		c1.2,0,2.3,0,3.4,0c0.2,1.5,0.3,2.8,0.4,3.9c0.1,1.1,0.3,2.2,0.4,3.3s0.3,2.4,0.4,4c0,4.3,0,8.6,0,12.9c0,4.4,0,8.7,0,13
		c0,4.3,0,8.6,0,13c0,4.4,0,8.7,0,12.9L426.2,353z M430.8,302h3.3c3.2-3.8,6.7-6.8,10.6-8.9c3.9-2.1,8.1-3.1,12.7-3.1
		c2.4,0,4.2,0.2,5.5,0.5c1.2,0.3,2,0.7,2.3,1c0.3,0.3,0.4,0.5,0.5,0.8c0.1,0.3,0.1,0.6,0.1,1c0,0.7,0,1.4,0,2.1c0,0.7,0,1.4,0,2.1
		h-1.5c-1-0.4-2.1-0.7-3.3-0.9c-1.2-0.2-2.5-0.3-3.9-0.3c-2.7,0-5.4,0.4-8,1.2c-2.7,0.8-5.5,2.2-8.5,4.3c-3,2.1-6.3,5-9.9,9V302z"/>
</g>
<g class="st2">
	<path class="st3" d="M366,256.3c0,8.4-1.3,15.7-3.8,21.9c-2.5,6.2-5.7,11.7-9.5,16.4c-3.8,4.8-7.1,9.4-9.9,13.9
		c-2.8,4.5-4.5,9.1-5.1,13.9c-0.3,2.2-0.4,4.5-0.4,6.7c0,2.2,0,4.6,0,7.2c1.1,5.3,3.2,9.2,6.1,11.6c3,2.4,7.2,3.6,12.9,3.6
		c9.8,0,19.7,0,29.5,0c9.8,0,19.7,0,29.5,0h5.5c0,5.3,0,10.7,0,16c0,5.3,0,10.7,0,16c0,1.4-0.4,2.5-1.3,3.4s-2,1.3-3.4,1.3h-72.1
		c-11.2,0-20.2-2.3-26.8-7c-6.6-4.6-11.3-10.2-14.1-16.7c-2.8-6.5-4.2-12.2-4.2-17.3v-20.7c0-8.4,1.4-15.6,4.2-21.5
		c2.8-5.9,6.2-11.2,10.1-16c3.9-4.8,7.4-9.8,10.3-15c3-5.2,4.4-11.3,4.4-18.3c0-9-3.2-16.7-9.7-23.2c-6.5-6.5-15.7-11.4-27.6-15
		c-11.9-3.5-26.2-5.3-42.8-5.3h-8.9c-1.4,0-2.5-0.4-3.4-1.3s-1.3-2-1.3-3.4c0-5.6,0-11,0-16.2c0-5.2,0-10.6,0-16.2H248
		c16.6,0,30.8-1.7,42.8-5.1c11.9-3.4,21.1-8.2,27.6-14.5c6.5-6.3,9.7-14,9.7-23c0-7.3-1.5-13.6-4.4-18.8c-3-5.2-6.4-10.2-10.3-15
		c-3.9-4.8-7.3-10.1-10.1-16c-2.8-5.9-4.2-13.1-4.2-21.5V40.9c0-5.3,1.4-11.2,4.2-17.5c2.8-6.3,7.5-11.8,14.1-16.4
		c6.6-4.6,15.5-7,26.8-7h72.1c1.4,0,2.5,0.4,3.4,1.3c0.8,0.8,1.3,2,1.3,3.4c0,5.3,0,10.7,0,16c0,5.3,0,10.7,0,16h-5.5
		c-9.8,0-19.7,0-29.5,0c-9.8,0-19.7,0-29.5,0c-5.6,0-9.9,1.2-12.9,3.6c-3,2.4-5,6.3-6.1,11.6c0,2,0,4.1,0,6.3c0,2.3,0,4.4,0,6.3
		c0.3,5.1,1.9,9.8,4.8,14.3c3,4.5,6.3,9.2,10.1,14.1c3.8,4.9,7,10.5,9.7,16.9c2.7,6.3,4,13.8,4,22.6c0,14.1-4,26-12,35.8
		c-8,9.8-20.2,17.6-36.5,23.2v5.1c16.9,5.3,29.2,13.1,36.9,23.4C362.2,230.1,366,242.3,366,256.3z"/>
</g>
</svg>
