<svg width="348" height="202" viewBox="0 0 348 202" fill="none" xmlns="http://www.w3.org/2000/svg">
<g filter="url(#filter0_d)">
<rect x="4" width="340" height="193.691" rx="8" fill="white"/>
<rect x="4.5" y="0.5" width="339" height="192.691" rx="7.5" stroke="black"/>
</g>
<g opacity="0.87">
<path d="M51.0713 67.0283C50.1637 68.0908 48.8411 68.9154 47.1035 69.502C45.3659 70.0775 43.4401 70.3486 41.3262 70.3154C39.3008 70.2933 37.5908 69.7842 36.1963 68.7881C34.8018 67.792 33.8057 66.403 33.208 64.6211C32.6104 62.8392 32.4499 60.8304 32.7266 58.5947L32.8594 57.5986C33.3685 53.8467 34.6855 50.875 36.8105 48.6836C38.9466 46.4922 41.5586 45.4242 44.6465 45.4795C47.347 45.5238 49.4222 46.2487 50.8721 47.6543C52.3219 49.0599 53.1299 51.0908 53.2959 53.7471L47.8506 53.7305C47.7731 52.4355 47.4521 51.4893 46.8877 50.8916C46.3343 50.2939 45.543 49.9785 44.5137 49.9453C42.9863 49.89 41.7246 50.4932 40.7285 51.7549C39.7324 53.0055 39.0518 54.7985 38.6865 57.1338C38.3766 59.126 38.266 60.6755 38.3545 61.7822C38.5205 64.4495 39.7214 65.7998 41.957 65.833C43.3073 65.8551 44.4915 65.5286 45.5098 64.8535L46.2568 61.085H42.3223L43.0195 57.084H52.6318L51.0713 67.0283ZM64.1543 51.7051C65.7591 51.7272 67.1481 52.1312 68.3213 52.917C69.4945 53.6917 70.3522 54.7764 70.8945 56.1709C71.4479 57.5654 71.6471 59.1149 71.4922 60.8193L71.459 61.1846C71.1491 63.9404 70.1253 66.165 68.3877 67.8584C66.6501 69.5518 64.5029 70.3763 61.9463 70.332C60.3525 70.3099 58.9746 69.917 57.8125 69.1533C56.6504 68.3786 55.7871 67.2995 55.2227 65.916C54.6693 64.5326 54.4701 62.9941 54.625 61.3008C54.9017 58.3568 55.9089 56.0104 57.6465 54.2617C59.3952 52.513 61.5645 51.6608 64.1543 51.7051ZM60.0869 61.3008L60.0371 62.2803C59.8822 64.7484 60.6348 66.0046 62.2949 66.0488C64.4421 66.1152 65.6872 64.3721 66.0303 60.8193L66.0967 59.3086C66.1188 58.3125 65.9307 57.5212 65.5322 56.9346C65.1449 56.3369 64.5693 56.027 63.8057 56.0049C62.7985 55.9717 61.9684 56.3867 61.3154 57.25C60.6735 58.1022 60.264 59.4525 60.0869 61.3008ZM83.0977 51.7051C84.7025 51.7272 86.0915 52.1312 87.2646 52.917C88.4378 53.6917 89.2956 54.7764 89.8379 56.1709C90.3913 57.5654 90.5905 59.1149 90.4355 60.8193L90.4023 61.1846C90.0924 63.9404 89.0687 66.165 87.3311 67.8584C85.5934 69.5518 83.4463 70.3763 80.8896 70.332C79.2959 70.3099 77.918 69.917 76.7559 69.1533C75.5938 68.3786 74.7305 67.2995 74.166 65.916C73.6126 64.5326 73.4134 62.9941 73.5684 61.3008C73.8451 58.3568 74.8522 56.0104 76.5898 54.2617C78.3385 52.513 80.5078 51.6608 83.0977 51.7051ZM79.0303 61.3008L78.9805 62.2803C78.8255 64.7484 79.5781 66.0046 81.2383 66.0488C83.3854 66.1152 84.6305 64.3721 84.9736 60.8193L85.04 59.3086C85.0622 58.3125 84.874 57.5212 84.4756 56.9346C84.0882 56.3369 83.5127 56.027 82.749 56.0049C81.7419 55.9717 80.9118 56.3867 80.2588 57.25C79.6169 58.1022 79.2074 59.4525 79.0303 61.3008ZM92.4951 60.9854C92.7054 59.1813 93.1979 57.5488 93.9727 56.0879C94.7585 54.627 95.738 53.5257 96.9111 52.7842C98.0843 52.0316 99.4124 51.6663 100.896 51.6885C102.7 51.7327 104.061 52.3802 104.979 53.6309L105.561 52.0205L110.607 52.0371L107.669 69.3027C107.337 71.7376 106.269 73.6579 104.465 75.0635C102.661 76.4691 100.414 77.1387 97.7246 77.0723C96.5293 77.0501 95.3727 76.8122 94.2549 76.3584C93.137 75.9046 92.1797 75.2184 91.3828 74.2998L93.9727 71.0791C94.9355 72.2965 96.1862 72.9219 97.7246 72.9551C100.148 72.9993 101.687 71.71 102.34 69.0869L102.473 68.5391C101.233 69.7565 99.8662 70.3542 98.3721 70.332C97.221 70.321 96.2083 70.0332 95.334 69.4688C94.4596 68.8932 93.7734 68.0687 93.2754 66.9951C92.7773 65.9215 92.4951 64.7262 92.4287 63.4092C92.3844 62.7451 92.4066 61.9372 92.4951 60.9854ZM97.8906 62.7617C97.8906 63.7799 98.0732 64.5713 98.4385 65.1357C98.8037 65.7002 99.335 65.9935 100.032 66.0156C101.062 66.0599 101.997 65.6615 102.838 64.8203L104.249 57.2002C103.806 56.4255 103.065 56.027 102.024 56.0049C100.962 55.9827 100.071 56.4365 99.3516 57.3662C98.6322 58.2848 98.1784 59.4967 97.9902 61.002C97.9238 61.6992 97.8906 62.2858 97.8906 62.7617ZM116.734 70H111.256L115.672 44.5H121.15L116.734 70ZM129.386 70.332C127.781 70.321 126.348 69.9447 125.086 69.2031C123.835 68.4505 122.889 67.4102 122.247 66.082C121.605 64.7428 121.351 63.2708 121.483 61.666L121.533 61.2012C121.832 58.2461 122.856 55.9108 124.604 54.1953C126.364 52.4688 128.517 51.6387 131.062 51.7051C132.601 51.7272 133.918 52.1201 135.014 52.8838C136.109 53.6364 136.912 54.6823 137.421 56.0215C137.93 57.3496 138.096 58.8438 137.919 60.5039L137.604 62.7783H126.912C126.934 63.7191 127.2 64.4827 127.709 65.0693C128.218 65.6559 128.96 65.9658 129.934 65.999C131.516 66.0433 132.938 65.4346 134.2 64.1729L136.491 67.2109C135.816 68.1738 134.87 68.932 133.652 69.4854C132.446 70.0277 131.123 70.3099 129.685 70.332H129.386ZM130.714 56.0049C129.939 55.9827 129.264 56.2262 128.688 56.7354C128.124 57.2445 127.632 58.0967 127.211 59.292H132.673L132.772 58.8105C132.839 58.4232 132.85 58.0579 132.806 57.7148C132.618 56.6081 131.92 56.0381 130.714 56.0049ZM47.502 102.371H38.3877L36.7109 112H31.0332L35.2168 87.8281H50.9385L50.1582 92.3271H40.1309L39.168 97.8887H48.2822L47.502 102.371ZM59.3398 93.7051C60.9447 93.7272 62.3337 94.1312 63.5068 94.917C64.68 95.6917 65.5378 96.7764 66.0801 98.1709C66.6335 99.5654 66.8327 101.115 66.6777 102.819L66.6445 103.185C66.3346 105.94 65.3109 108.165 63.5732 109.858C61.8356 111.552 59.6885 112.376 57.1318 112.332C55.5381 112.31 54.1602 111.917 52.998 111.153C51.8359 110.379 50.9727 109.299 50.4082 107.916C49.8548 106.533 49.6556 104.994 49.8105 103.301C50.0872 100.357 51.0944 98.0104 52.832 96.2617C54.5807 94.513 56.75 93.6608 59.3398 93.7051ZM55.2725 103.301L55.2227 104.28C55.0677 106.748 55.8203 108.005 57.4805 108.049C59.6276 108.115 60.8727 106.372 61.2158 102.819L61.2822 101.309C61.3044 100.312 61.1162 99.5212 60.7178 98.9346C60.3304 98.3369 59.7549 98.027 58.9912 98.0049C57.984 97.9717 57.154 98.3867 56.501 99.25C55.859 100.102 55.4495 101.452 55.2725 103.301ZM75.9092 94.0205L75.5273 96.1787C76.9661 94.4743 78.6982 93.6442 80.7236 93.6885C82.3838 93.7217 83.6178 94.3415 84.4258 95.5479C85.2448 96.7432 85.5436 98.4587 85.3223 100.694L83.4297 112H77.9512L79.8604 100.661C79.9046 100.274 79.9157 99.9196 79.8936 99.5986C79.8161 98.5472 79.1963 98.0215 78.0342 98.0215C77.0713 97.9993 76.1914 98.4255 75.3945 99.2998L73.1533 112H67.6914L70.8125 94.0371L75.9092 94.0205ZM97.0605 89.5713L96.2803 94.0371H99.1523L98.4717 97.9219H95.5996L94.2051 106.173C94.1276 106.737 94.1608 107.163 94.3047 107.451C94.4596 107.739 94.8359 107.894 95.4336 107.916C95.666 107.927 96.1419 107.899 96.8613 107.833L96.4629 111.884C95.5443 112.183 94.5648 112.321 93.5244 112.299C91.8311 112.277 90.5638 111.779 89.7227 110.805C88.8815 109.831 88.5384 108.508 88.6934 106.837L90.1543 97.9219H87.9297L88.5938 94.0371H90.8184L91.5986 89.5713H97.0605ZM108.683 106.854C108.826 106.123 108.262 105.575 106.989 105.21L105.811 104.911C103.885 104.402 102.474 103.688 101.577 102.77C100.681 101.851 100.26 100.761 100.315 99.499C100.371 97.7725 101.134 96.3724 102.606 95.2988C104.09 94.2142 105.894 93.6829 108.019 93.7051C110.132 93.7272 111.842 94.264 113.148 95.3154C114.465 96.3669 115.135 97.7835 115.157 99.5654L109.712 99.5488C109.756 98.1322 109.131 97.4238 107.836 97.4238C107.283 97.4238 106.768 97.5898 106.292 97.9219C105.816 98.2428 105.534 98.6745 105.445 99.2168C105.257 100.113 106.049 100.728 107.819 101.06C109.358 101.425 110.548 101.851 111.389 102.338C112.23 102.814 112.872 103.406 113.314 104.114C113.757 104.823 113.962 105.675 113.929 106.671C113.896 107.756 113.541 108.724 112.866 109.576C112.191 110.428 111.212 111.109 109.928 111.618C108.655 112.127 107.271 112.365 105.777 112.332C104.482 112.321 103.276 112.05 102.158 111.519C101.051 110.987 100.183 110.268 99.5518 109.36C98.932 108.442 98.611 107.39 98.5889 106.206L103.669 106.239C103.691 107.833 104.488 108.619 106.06 108.597C106.735 108.597 107.31 108.447 107.786 108.148C108.262 107.839 108.561 107.407 108.683 106.854ZM45.2275 149.484H37.5078L35.3662 154H29.1074L41.9072 129.828H47.2529L51.7188 154H45.8086L45.2275 149.484ZM39.6328 144.985H44.6465L43.584 136.651L39.6328 144.985ZM61.0332 145.799L59.6055 154H53.9277L58.1113 129.828L66.7939 129.845C69.4834 129.845 71.5973 130.592 73.1357 132.086C74.6852 133.58 75.3659 135.517 75.1777 137.896C75.0449 139.523 74.5247 140.935 73.6172 142.13C72.7096 143.325 71.5088 144.238 70.0146 144.869C68.5316 145.5 66.8659 145.815 65.0176 145.815L61.0332 145.799ZM61.8135 141.3L65.2334 141.333C66.6722 141.3 67.7734 140.835 68.5371 139.938C69.3008 139.031 69.6051 137.919 69.4502 136.602C69.3617 135.926 69.1016 135.395 68.6699 135.008C68.2493 134.609 67.6904 134.388 66.9932 134.344L63.0254 134.327L61.8135 141.3ZM81.8857 154H76.208L80.4082 129.828H86.0693L81.8857 154Z" fill="#F8BBD0"/>
<path d="M51.0713 67.0283L51.4515 67.3531L51.5433 67.2455L51.5652 67.1058L51.0713 67.0283ZM47.1035 69.502L47.2607 69.9766L47.2634 69.9757L47.1035 69.502ZM41.3262 70.3154L41.334 69.8155L41.3316 69.8155L41.3262 70.3154ZM32.7266 58.5947L32.2309 58.5286L32.2303 58.5333L32.7266 58.5947ZM32.8594 57.5986L32.3639 57.5314L32.3638 57.5326L32.8594 57.5986ZM36.8105 48.6836L36.4525 48.3346L36.4516 48.3355L36.8105 48.6836ZM44.6465 45.4795L44.6375 45.9794L44.6383 45.9794L44.6465 45.4795ZM53.2959 53.7471L53.2944 54.2471L53.8282 54.2487L53.7949 53.7159L53.2959 53.7471ZM47.8506 53.7305L47.3515 53.7603L47.3795 54.229L47.8491 54.2305L47.8506 53.7305ZM46.8877 50.8916L46.5208 51.2313L46.5242 51.2349L46.8877 50.8916ZM44.5137 49.9453L44.4956 50.445L44.4976 50.4451L44.5137 49.9453ZM40.7285 51.7549L41.1196 52.0664L41.121 52.0647L40.7285 51.7549ZM38.6865 57.1338L38.1925 57.0565L38.1925 57.0569L38.6865 57.1338ZM38.3545 61.7822L38.8536 61.7512L38.8529 61.7424L38.3545 61.7822ZM41.957 65.833L41.9652 65.3331L41.9645 65.3331L41.957 65.833ZM45.5098 64.8535L45.7861 65.2702L45.9597 65.1551L46.0002 64.9507L45.5098 64.8535ZM46.2568 61.085L46.7473 61.1822L46.8657 60.585H46.2568V61.085ZM42.3223 61.085L41.8297 60.9991L41.7276 61.585H42.3223V61.085ZM43.0195 57.084V56.584H42.5991L42.527 56.9981L43.0195 57.084ZM52.6318 57.084L53.1258 57.1615L53.2164 56.584H52.6318V57.084ZM50.6911 66.7036C49.8578 67.6792 48.6218 68.4617 46.9436 69.0282L47.2634 69.9757C49.0605 69.369 50.4697 68.5025 51.4515 67.3531L50.6911 66.7036ZM46.9463 69.0273C45.2694 69.5827 43.4004 69.8479 41.334 69.8155L41.3183 70.8154C43.4798 70.8493 45.4623 70.5722 47.2607 69.9766L46.9463 69.0273ZM41.3316 69.8155C39.3895 69.7942 37.7839 69.3076 36.4869 68.3812L35.9057 69.195C37.3978 70.2607 39.2121 70.7924 41.3207 70.8154L41.3316 69.8155ZM36.4869 68.3812C35.1864 67.4523 34.2496 66.1543 33.6821 64.4621L32.734 64.7801C33.3617 66.6517 34.4171 68.1317 35.9057 69.195L36.4869 68.3812ZM33.6821 64.4621C33.1124 62.7638 32.9535 60.8322 33.2228 58.6561L32.2303 58.5333C31.9463 60.8286 32.1083 62.9146 32.734 64.7801L33.6821 64.4621ZM33.2222 58.6608L33.355 57.6647L32.3638 57.5326L32.2309 58.5286L33.2222 58.6608ZM33.3548 57.6659C33.8531 53.9939 35.1351 51.1296 37.1695 49.0317L36.4516 48.3355C34.236 50.6204 32.8839 53.6995 32.3639 57.5314L33.3548 57.6659ZM37.1686 49.0326C39.2074 46.941 41.6861 45.9265 44.6375 45.9794L44.6554 44.9796C41.4311 44.9218 38.6859 46.0434 36.4525 48.3346L37.1686 49.0326ZM44.6383 45.9794C47.2556 46.0223 49.1927 46.7226 50.524 48.0133L51.2201 47.2953C49.6517 45.7748 47.4384 45.0252 44.6547 44.9796L44.6383 45.9794ZM50.524 48.0133C51.8592 49.3077 52.6361 51.2059 52.7969 53.7783L53.7949 53.7159C53.6237 50.9758 52.7847 48.8121 51.2201 47.2953L50.524 48.0133ZM53.2974 53.2471L47.8521 53.2305L47.8491 54.2305L53.2944 54.2471L53.2974 53.2471ZM48.3497 53.7006C48.269 52.3525 47.9314 51.2685 47.2512 50.5483L46.5242 51.2349C46.9729 51.7101 47.2772 52.5186 47.3515 53.7603L48.3497 53.7006ZM47.2546 50.5519C46.5878 49.8318 45.6555 49.4819 44.5298 49.4456L44.4976 50.4451C45.4305 50.4751 46.0808 50.7561 46.5208 51.2313L47.2546 50.5519ZM44.5318 49.4456C42.8357 49.3842 41.4249 50.0658 40.3361 51.4451L41.121 52.0647C42.0243 50.9205 43.137 50.3958 44.4956 50.445L44.5318 49.4456ZM40.3374 51.4434C39.2675 52.7867 38.5652 54.6737 38.1925 57.0565L39.1805 57.211C39.5383 54.9233 40.1974 53.2243 41.1196 52.0664L40.3374 51.4434ZM38.1925 57.0569C37.8806 59.0619 37.7629 60.6569 37.8561 61.8221L38.8529 61.7424C38.769 60.694 38.8727 59.1901 39.1806 57.2106L38.1925 57.0569ZM37.8555 61.8133C37.9422 63.2072 38.3031 64.3373 39.006 65.1277C39.721 65.9316 40.7274 66.3148 41.9496 66.333L41.9645 65.3331C40.951 65.318 40.2391 65.0095 39.7533 64.4631C39.2553 63.9032 38.9328 63.0246 38.8535 61.7512L37.8555 61.8133ZM41.9488 66.3329C43.389 66.3566 44.6748 66.0071 45.7861 65.2702L45.2335 64.4368C44.3083 65.0502 43.2255 65.3537 41.9652 65.3331L41.9488 66.3329ZM46.0002 64.9507L46.7473 61.1822L45.7664 60.9877L45.0193 64.7563L46.0002 64.9507ZM46.2568 60.585H42.3223V61.585H46.2568V60.585ZM42.8148 61.1708L43.5121 57.1698L42.527 56.9981L41.8297 60.9991L42.8148 61.1708ZM43.0195 57.584H52.6318V56.584H43.0195V57.584ZM52.1379 57.0065L50.5773 66.9508L51.5652 67.1058L53.1258 57.1615L52.1379 57.0065ZM64.1543 51.7051L64.1458 52.205L64.1474 52.205L64.1543 51.7051ZM68.3213 52.917L68.043 53.3324L68.0458 53.3342L68.3213 52.917ZM70.8945 56.1709L70.4285 56.3521L70.4298 56.3553L70.8945 56.1709ZM71.4922 60.8193L71.9901 60.8646L71.4922 60.8193ZM71.459 61.1846L71.956 61.2405L71.9569 61.2298L71.459 61.1846ZM61.9463 70.332L61.9549 69.8321L61.9532 69.8321L61.9463 70.332ZM57.8125 69.1533L57.5351 69.5694L57.5379 69.5712L57.8125 69.1533ZM55.2227 65.916L54.7584 66.1017L54.7597 66.1049L55.2227 65.916ZM54.625 61.3008L54.1272 61.254L54.1271 61.2552L54.625 61.3008ZM57.6465 54.2617L57.2929 53.9082L57.2918 53.9093L57.6465 54.2617ZM60.0869 61.3008L59.5892 61.2531L59.5881 61.2642L59.5876 61.2754L60.0869 61.3008ZM60.0371 62.2803L60.5362 62.3116L60.5365 62.3057L60.0371 62.2803ZM62.2949 66.0488L62.3104 65.5491L62.3083 65.549L62.2949 66.0488ZM66.0303 60.8193L66.528 60.8674L66.5292 60.8544L66.5298 60.8413L66.0303 60.8193ZM66.0967 59.3086L66.5963 59.3306L66.5966 59.3197L66.0967 59.3086ZM65.5322 56.9346L65.1126 57.2066L65.1186 57.2155L65.5322 56.9346ZM63.8057 56.0049L63.7892 56.5046L63.7912 56.5047L63.8057 56.0049ZM61.3154 57.25L60.9167 56.9484L60.9161 56.9492L61.3154 57.25ZM64.1474 52.205C65.6691 52.226 66.9608 52.6075 68.043 53.3324L68.5995 52.5016C67.3354 51.6548 65.8491 51.2284 64.1612 51.2051L64.1474 52.205ZM68.0458 53.3342C69.1268 54.0482 69.9212 55.0475 70.4285 56.3521L71.3605 55.9897C70.7832 54.5052 69.8621 53.3353 68.5968 52.4998L68.0458 53.3342ZM70.4298 56.3553C70.9504 57.6673 71.1431 59.1367 70.9942 60.7741L71.9901 60.8646C72.1512 59.0931 71.9454 57.4636 71.3593 55.9865L70.4298 56.3553ZM70.9942 60.7741L70.961 61.1393L71.9569 61.2298L71.9901 60.8646L70.9942 60.7741ZM70.9621 61.1287C70.6632 63.7871 69.6819 65.899 68.0387 67.5003L68.7367 68.2165C70.5687 66.4311 71.635 64.0938 71.9559 61.2404L70.9621 61.1287ZM68.0387 67.5003C66.4022 69.0951 64.3862 69.8742 61.9549 69.8321L61.9376 70.832C64.6196 70.8784 66.8979 70.0084 68.7367 68.2165L68.0387 67.5003ZM61.9532 69.8321C60.4404 69.8111 59.1585 69.4395 58.0871 68.7355L57.5379 69.5712C58.7907 70.3945 60.2646 70.8087 61.9393 70.832L61.9532 69.8321ZM58.0898 68.7373C57.0168 68.0219 56.2151 67.0248 55.6856 65.7271L54.7597 66.1049C55.3592 67.5741 56.284 68.7352 57.5352 69.5693L58.0898 68.7373ZM55.6869 65.7303C55.1667 64.43 54.9741 62.9722 55.1229 61.3463L54.1271 61.2552C53.966 63.0161 54.1718 64.6351 54.7584 66.1017L55.6869 65.7303ZM55.1228 61.3476C55.3909 58.495 56.3607 56.265 58.0012 54.6141L57.2918 53.9093C55.457 55.7558 54.4125 58.2185 54.1272 61.254L55.1228 61.3476ZM58 54.6153C59.6479 52.9674 61.6843 52.1629 64.1458 52.205L64.1628 51.2052C61.4446 51.1587 59.1425 52.0586 57.2929 53.9082L58 54.6153ZM59.5876 61.2754L59.5378 62.2549L60.5365 62.3057L60.5863 61.3262L59.5876 61.2754ZM59.5381 62.2489C59.4582 63.5216 59.6033 64.5741 60.0564 65.3305C60.5337 66.127 61.3076 66.5227 62.2816 66.5487L62.3083 65.549C61.6221 65.5307 61.1896 65.2761 60.9143 64.8165C60.6148 64.3167 60.4611 63.507 60.5361 62.3116L59.5381 62.2489ZM62.2795 66.5486C63.5193 66.5869 64.5261 66.0898 65.246 65.0819C65.9431 64.106 66.353 62.6795 66.528 60.8674L65.5326 60.7713C65.3645 62.5119 64.9803 63.7334 64.4322 64.5006C63.907 65.2359 63.2176 65.5771 62.3104 65.5491L62.2795 66.5486ZM66.5298 60.8413L66.5962 59.3306L65.5972 59.2866L65.5308 60.7974L66.5298 60.8413ZM66.5966 59.3197C66.6201 58.2604 66.4221 57.3547 65.9458 56.6536L65.1186 57.2155C65.4393 57.6876 65.6175 58.3646 65.5968 59.2975L66.5966 59.3197ZM65.9518 56.6626C65.4676 55.9156 64.734 55.5316 63.8202 55.5051L63.7912 56.5047C64.4047 56.5225 64.8221 56.7582 65.1127 57.2065L65.9518 56.6626ZM63.8221 55.5052C62.6389 55.4661 61.6591 55.9668 60.9167 56.9484L61.7142 57.5516C62.2777 56.8066 62.9581 56.4772 63.7892 56.5046L63.8221 55.5052ZM60.9161 56.9492C60.1912 57.9115 59.7694 59.3724 59.5892 61.2531L60.5846 61.3485C60.7586 59.5325 61.1558 58.293 61.7148 57.5508L60.9161 56.9492ZM83.0977 51.7051L83.0891 52.205L83.0908 52.205L83.0977 51.7051ZM87.2646 52.917L86.9864 53.3324L86.9891 53.3342L87.2646 52.917ZM89.8379 56.1709L89.3719 56.3521L89.3731 56.3553L89.8379 56.1709ZM90.4355 60.8193L90.9335 60.8646L90.4355 60.8193ZM90.4023 61.1846L90.8993 61.2405L90.9003 61.2298L90.4023 61.1846ZM80.8896 70.332L80.8983 69.8321L80.8966 69.8321L80.8896 70.332ZM76.7559 69.1533L76.4785 69.5694L76.4813 69.5712L76.7559 69.1533ZM74.166 65.916L73.7018 66.1017L73.7031 66.1049L74.166 65.916ZM73.5684 61.3008L73.0706 61.254L73.0704 61.2552L73.5684 61.3008ZM76.5898 54.2617L76.2363 53.9082L76.2352 53.9093L76.5898 54.2617ZM79.0303 61.3008L78.5326 61.2531L78.5315 61.2642L78.5309 61.2754L79.0303 61.3008ZM78.9805 62.2803L79.4795 62.3116L79.4798 62.3057L78.9805 62.2803ZM81.2383 66.0488L81.2537 65.5491L81.2516 65.549L81.2383 66.0488ZM84.9736 60.8193L85.4713 60.8674L85.4726 60.8544L85.4732 60.8413L84.9736 60.8193ZM85.04 59.3086L85.5397 59.3306L85.5399 59.3197L85.04 59.3086ZM84.4756 56.9346L84.0559 57.2066L84.062 57.2155L84.4756 56.9346ZM82.749 56.0049L82.7325 56.5046L82.7345 56.5047L82.749 56.0049ZM80.2588 57.25L79.86 56.9484L79.8594 56.9492L80.2588 57.25ZM83.0908 52.205C84.6125 52.226 85.9042 52.6075 86.9864 53.3324L87.5429 52.5016C86.2788 51.6548 84.7925 51.2284 83.1046 51.2051L83.0908 52.205ZM86.9891 53.3342C88.0702 54.0482 88.8645 55.0475 89.3719 56.3521L90.3039 55.9897C89.7266 54.5052 88.8054 53.3353 87.5402 52.4998L86.9891 53.3342ZM89.3731 56.3553C89.8938 57.6673 90.0865 59.1367 89.9376 60.7741L90.9335 60.8646C91.0945 59.0931 90.8888 57.4636 90.3026 55.9865L89.3731 56.3553ZM89.9376 60.7741L89.9044 61.1393L90.9003 61.2298L90.9335 60.8646L89.9376 60.7741ZM89.9055 61.1287C89.6065 63.7871 88.6253 65.899 86.9821 67.5003L87.68 68.2165C89.5121 66.4311 90.5784 64.0938 90.8992 61.2404L89.9055 61.1287ZM86.9821 67.5003C85.3456 69.0951 83.3296 69.8742 80.8983 69.8321L80.881 70.832C83.563 70.8784 85.8413 70.0084 87.68 68.2165L86.9821 67.5003ZM80.8966 69.8321C79.3838 69.8111 78.1018 69.4395 77.0304 68.7355L76.4813 69.5712C77.7341 70.3945 79.208 70.8087 80.8827 70.832L80.8966 69.8321ZM77.0332 68.7373C75.9602 68.0219 75.1584 67.0248 74.629 65.7271L73.7031 66.1049C74.3025 67.5741 75.2273 68.7352 76.4785 69.5693L77.0332 68.7373ZM74.6303 65.7303C74.1101 64.43 73.9175 62.9722 74.0663 61.3463L73.0704 61.2552C72.9093 63.0161 73.1152 64.6351 73.7018 66.1017L74.6303 65.7303ZM74.0662 61.3476C74.3343 58.495 75.3041 56.265 76.9445 54.6141L76.2352 53.9093C74.4004 55.7558 73.3558 58.2185 73.0706 61.254L74.0662 61.3476ZM76.9434 54.6153C78.5913 52.9674 80.6276 52.1629 83.0891 52.205L83.1062 51.2052C80.388 51.1587 78.0858 52.0586 76.2363 53.9082L76.9434 54.6153ZM78.5309 61.2754L78.4811 62.2549L79.4798 62.3057L79.5296 61.3262L78.5309 61.2754ZM78.4815 62.2489C78.4016 63.5216 78.5467 64.5741 78.9998 65.3305C79.477 66.127 80.251 66.5227 81.225 66.5487L81.2516 65.549C80.5654 65.5307 80.133 65.2761 79.8576 64.8165C79.5581 64.3167 79.4044 63.507 79.4795 62.3116L78.4815 62.2489ZM81.2228 66.5486C82.4627 66.5869 83.4694 66.0898 84.1893 65.0819C84.8864 64.106 85.2963 62.6795 85.4713 60.8674L84.4759 60.7713C84.3079 62.5119 83.9236 63.7334 83.3756 64.5006C82.8504 65.2359 82.161 65.5771 81.2537 65.5491L81.2228 66.5486ZM85.4732 60.8413L85.5396 59.3306L84.5405 59.2866L84.4741 60.7974L85.4732 60.8413ZM85.5399 59.3197C85.5635 58.2604 85.3654 57.3547 84.8892 56.6536L84.062 57.2155C84.3826 57.6876 84.5609 58.3646 84.5402 59.2975L85.5399 59.3197ZM84.8952 56.6626C84.411 55.9156 83.6774 55.5316 82.7635 55.5051L82.7345 56.5047C83.348 56.5225 83.7654 56.7582 84.056 57.2065L84.8952 56.6626ZM82.7655 55.5052C81.5823 55.4661 80.6025 55.9668 79.86 56.9484L80.6576 57.5516C81.2211 56.8066 81.9014 56.4772 82.7325 56.5046L82.7655 55.5052ZM79.8594 56.9492C79.1346 57.9115 78.7127 59.3724 78.5326 61.2531L79.528 61.3485C79.702 59.5325 80.0992 58.293 80.6582 57.5508L79.8594 56.9492ZM92.4951 60.9854L91.9983 60.9274L91.9973 60.939L92.4951 60.9854ZM93.9727 56.0879L93.5323 55.851L93.5309 55.8536L93.9727 56.0879ZM96.9111 52.7842L97.1783 53.2068L97.1811 53.205L96.9111 52.7842ZM100.896 51.6885L100.908 51.1886L100.903 51.1885L100.896 51.6885ZM104.979 53.6309L104.577 53.9269L105.132 54.6825L105.45 53.8006L104.979 53.6309ZM105.561 52.0205L105.562 51.5205L105.21 51.5194L105.09 51.8508L105.561 52.0205ZM110.607 52.0371L111.1 52.121L111.199 51.5391L110.609 51.5371L110.607 52.0371ZM107.669 69.3027L107.176 69.2188L107.175 69.227L107.174 69.2352L107.669 69.3027ZM104.465 75.0635L104.158 74.6691L104.465 75.0635ZM97.7246 77.0723L97.737 76.5724L97.7339 76.5723L97.7246 77.0723ZM91.3828 74.2998L90.9932 73.9865L90.7314 74.312L91.0051 74.6274L91.3828 74.2998ZM93.9727 71.0791L94.3648 70.7689L93.9759 70.2772L93.583 70.7658L93.9727 71.0791ZM97.7246 72.9551L97.7138 73.455L97.7155 73.455L97.7246 72.9551ZM102.34 69.0869L102.825 69.2077L102.826 69.2047L102.34 69.0869ZM102.473 68.5391L102.959 68.6569L103.371 66.956L102.122 68.1823L102.473 68.5391ZM98.3721 70.332L98.3795 69.8321L98.3769 69.8321L98.3721 70.332ZM95.334 69.4688L95.0591 69.8864L95.0628 69.8888L95.334 69.4688ZM92.4287 63.4092L92.9281 63.384L92.9276 63.3759L92.4287 63.4092ZM100.032 66.0156L100.054 65.5161L100.048 65.5159L100.032 66.0156ZM102.838 64.8203L103.191 65.1739L103.301 65.0641L103.33 64.9114L102.838 64.8203ZM104.249 57.2002L104.741 57.2912L104.774 57.1111L104.683 56.9521L104.249 57.2002ZM102.024 56.0049L102.035 55.505L102.035 55.505L102.024 56.0049ZM99.3516 57.3662L99.7452 57.6745L99.747 57.6722L99.3516 57.3662ZM97.9902 61.002L97.4941 60.9399L97.4932 60.9472L97.4925 60.9545L97.9902 61.002ZM92.9918 61.0432C93.1956 59.2948 93.6715 57.7231 94.4144 56.3221L93.5309 55.8536C92.7244 57.3746 92.2152 59.0678 91.9985 60.9275L92.9918 61.0432ZM94.413 56.3247C95.166 54.9248 96.0909 53.8942 97.1783 53.2068L96.644 52.3615C95.385 53.1573 94.3509 54.3291 93.5323 55.851L94.413 56.3247ZM97.1811 53.205C98.2662 52.5089 99.4966 52.1677 100.888 52.1884L100.903 51.1885C99.3283 51.165 97.9024 51.5542 96.6412 52.3633L97.1811 53.205ZM100.883 52.1883C102.561 52.2295 103.765 52.8223 104.577 53.9269L105.382 53.3349C104.357 51.9382 102.838 51.236 100.908 51.1886L100.883 52.1883ZM105.45 53.8006L106.031 52.1902L105.09 51.8508L104.509 53.4612L105.45 53.8006ZM105.559 52.5205L110.606 52.5371L110.609 51.5371L105.562 51.5205L105.559 52.5205ZM110.115 51.9532L107.176 69.2188L108.162 69.3866L111.1 52.121L110.115 51.9532ZM107.174 69.2352C106.858 71.5514 105.85 73.35 104.158 74.6691L104.772 75.4579C106.687 73.9657 107.816 71.9239 108.164 69.3703L107.174 69.2352ZM104.158 74.6691C102.46 75.9915 100.332 76.6365 97.737 76.5724L97.7123 77.5721C100.496 77.6408 102.861 76.9466 104.772 75.4579L104.158 74.6691ZM97.7339 76.5723C96.6005 76.5514 95.5045 76.326 94.4429 75.8951L94.0668 76.8217C95.241 77.2983 96.4581 77.5489 97.7154 77.5722L97.7339 76.5723ZM94.4429 75.8951C93.3987 75.4712 92.5062 74.8318 91.7605 73.9722L91.0051 74.6274C91.8532 75.6051 92.8754 76.338 94.0668 76.8217L94.4429 75.8951ZM91.7725 74.6131L94.3623 71.3924L93.583 70.7658L90.9932 73.9865L91.7725 74.6131ZM93.5805 71.3893C94.6349 72.7225 96.0248 73.4185 97.7138 73.455L97.7354 72.4552C96.3475 72.4252 95.2362 71.8706 94.3648 70.7689L93.5805 71.3893ZM97.7155 73.455C99.0218 73.4789 100.138 73.1419 101.017 72.4044C101.892 71.6718 102.482 70.5868 102.825 69.2077L101.855 68.9661C101.545 70.2101 101.039 71.0813 100.375 71.638C99.7166 72.1899 98.8513 72.4756 97.7337 72.4552L97.7155 73.455ZM102.826 69.2047L102.959 68.6569L101.987 68.4213L101.854 68.9691L102.826 69.2047ZM102.122 68.1823C100.961 69.3227 99.7182 69.8519 98.3795 69.8321L98.3647 70.832C100.014 70.8564 101.505 70.1904 102.823 68.8958L102.122 68.1823ZM98.3769 69.8321C97.31 69.8218 96.3918 69.5565 95.6052 69.0487L95.0628 69.8888C96.0249 70.5099 97.132 70.8201 98.3673 70.832L98.3769 69.8321ZM95.6089 69.0511C94.822 68.5331 94.1931 67.7852 93.729 66.7847L92.8218 67.2055C93.3538 68.3521 94.0973 69.2533 95.0591 69.8864L95.6089 69.0511ZM93.729 66.7847C93.2608 65.7757 92.9916 64.6443 92.9281 63.384L91.9293 63.4344C91.9986 64.8082 92.2938 66.0674 92.8218 67.2055L93.729 66.7847ZM92.9276 63.3759C92.8857 62.7471 92.9059 61.9674 92.993 61.0317L91.9973 60.939C91.9072 61.9069 91.8832 62.7432 91.9298 63.4424L92.9276 63.3759ZM97.3906 62.7617C97.3906 63.8301 97.5807 64.7304 98.0187 65.4074L98.8583 64.8641C98.5658 64.4122 98.3906 63.7298 98.3906 62.7617H97.3906ZM98.0187 65.4074C98.4769 66.1156 99.1625 66.4883 100.016 66.5154L100.048 65.5159C99.5074 65.4987 99.1305 65.2848 98.8583 64.8641L98.0187 65.4074ZM100.011 66.5152C101.202 66.5664 102.268 66.0972 103.191 65.1739L102.484 64.4668C101.725 65.2257 100.921 65.5534 100.054 65.5161L100.011 66.5152ZM103.33 64.9114L104.741 57.2912L103.757 57.1091L102.346 64.7293L103.33 64.9114ZM104.683 56.9521C104.137 55.9971 103.216 55.5301 102.035 55.505L102.014 56.5048C102.913 56.5239 103.475 56.8538 103.815 57.4483L104.683 56.9521ZM102.035 55.505C100.796 55.4792 99.7606 56.0206 98.9561 57.0602L99.747 57.6722C100.381 56.8524 101.128 56.4863 102.014 56.5048L102.035 55.505ZM98.9579 57.0579C98.1683 58.0662 97.6902 59.3713 97.4941 60.9399L98.4864 61.064C98.6666 59.6222 99.096 58.5034 99.7452 57.6745L98.9579 57.0579ZM97.4925 60.9545C97.4252 61.661 97.3906 62.2645 97.3906 62.7617H98.3906C98.3906 62.3071 98.4224 61.7375 98.488 61.0494L97.4925 60.9545ZM116.734 70V70.5H117.155L117.227 70.0853L116.734 70ZM111.256 70L110.763 69.9147L110.662 70.5H111.256V70ZM115.672 44.5V44H115.251L115.179 44.4147L115.672 44.5ZM121.15 44.5L121.643 44.5853L121.744 44H121.15V44.5ZM116.734 69.5H111.256V70.5H116.734V69.5ZM111.749 70.0853L116.165 44.5853L115.179 44.4147L110.763 69.9147L111.749 70.0853ZM115.672 45H121.15V44H115.672V45ZM120.658 44.4147L116.242 69.9147L117.227 70.0853L121.643 44.5853L120.658 44.4147ZM129.386 70.332L129.382 70.832H129.386V70.332ZM125.086 69.2031L124.828 69.6316L124.833 69.6342L125.086 69.2031ZM122.247 66.082L121.796 66.2982L121.797 66.2996L122.247 66.082ZM121.483 61.666L120.986 61.6127L120.985 61.6248L121.483 61.666ZM121.533 61.2012L122.03 61.2544L122.031 61.2515L121.533 61.2012ZM124.604 54.1953L124.955 54.5522L124.955 54.5522L124.604 54.1953ZM131.062 51.7051L131.049 52.2049L131.055 52.205L131.062 51.7051ZM135.014 52.8838L134.728 53.294L134.731 53.2959L135.014 52.8838ZM137.421 56.0215L136.954 56.1992L136.954 56.2005L137.421 56.0215ZM137.919 60.5039L138.414 60.5726L138.415 60.5648L138.416 60.5569L137.919 60.5039ZM137.604 62.7783V63.2783H138.039L138.099 62.847L137.604 62.7783ZM126.912 62.7783V62.2783H126.4L126.412 62.7901L126.912 62.7783ZM129.934 65.999L129.917 66.4987L129.92 66.4988L129.934 65.999ZM134.2 64.1729L134.599 63.8718L134.253 63.4127L133.847 63.8193L134.2 64.1729ZM136.491 67.2109L136.901 67.498L137.109 67.2002L136.89 66.9099L136.491 67.2109ZM133.652 69.4854L133.857 69.9414L133.859 69.9405L133.652 69.4854ZM129.685 70.332V70.8321L129.692 70.832L129.685 70.332ZM130.714 56.0049L130.7 56.5047L130.7 56.5047L130.714 56.0049ZM128.688 56.7354L128.357 56.3608L128.354 56.3641L128.688 56.7354ZM127.211 59.292L126.739 59.126L126.505 59.792H127.211V59.292ZM132.673 59.292V59.792H133.08L133.162 59.3933L132.673 59.292ZM132.772 58.8105L133.262 58.9118L133.264 58.9035L133.265 58.895L132.772 58.8105ZM132.806 57.7148L133.302 57.6509L133.3 57.6409L133.299 57.631L132.806 57.7148ZM129.389 69.832C127.864 69.8215 126.518 69.4648 125.339 68.7721L124.833 69.6342C126.177 70.4245 127.698 70.8204 129.382 70.832L129.389 69.832ZM125.344 68.7747C124.177 68.0728 123.297 67.1061 122.697 65.8644L121.797 66.2996C122.481 67.7142 123.493 68.8283 124.828 69.6315L125.344 68.7747ZM122.698 65.8659C122.098 64.6135 121.856 63.2313 121.982 61.7073L120.985 61.6248C120.846 63.3104 121.113 64.8722 121.796 66.2982L122.698 65.8659ZM121.981 61.7193L122.03 61.2544L121.036 61.1479L120.986 61.6127L121.981 61.7193ZM122.031 61.2515C122.32 58.387 123.306 56.1695 124.955 54.5522L124.254 53.8384C122.405 55.6521 121.344 58.1052 121.036 61.1509L122.031 61.2515ZM124.955 54.5522C126.614 52.924 128.634 52.1419 131.049 52.2049L131.076 51.2052C128.4 51.1354 126.114 52.0135 124.254 53.8384L124.955 54.5522ZM131.055 52.205C132.51 52.226 133.726 52.5957 134.728 53.294L135.3 52.4736C134.11 51.6445 132.692 51.2285 131.07 51.2051L131.055 52.205ZM134.731 53.2959C135.736 53.9864 136.478 54.9473 136.954 56.1992L137.888 55.8438C137.346 54.4173 136.483 53.2864 135.297 52.4716L134.731 53.2959ZM136.954 56.2005C137.43 57.4429 137.592 58.8557 137.422 60.4509L138.416 60.5569C138.6 58.8318 138.43 57.2563 137.888 55.8425L136.954 56.2005ZM137.424 60.4352L137.108 62.7096L138.099 62.847L138.414 60.5726L137.424 60.4352ZM137.604 62.2783H126.912V63.2783H137.604V62.2783ZM126.412 62.7901C126.437 63.8216 126.731 64.7051 127.331 65.3971L128.087 64.7416C127.669 64.2604 127.432 63.6165 127.412 62.7666L126.412 62.7901ZM127.331 65.3971C127.954 66.1141 128.841 66.4621 129.917 66.4987L129.951 65.4993C129.078 65.4696 128.483 65.1978 128.087 64.7416L127.331 65.3971ZM129.92 66.4988C131.658 66.5474 133.208 65.8717 134.554 64.5264L133.847 63.8193C132.669 64.9974 131.375 65.5391 129.948 65.4992L129.92 66.4988ZM133.801 64.4739L136.092 67.512L136.89 66.9099L134.599 63.8718L133.801 64.4739ZM136.082 66.9239C135.465 67.8041 134.593 68.5086 133.445 69.0302L133.859 69.9405C135.147 69.3554 136.167 68.5436 136.901 67.498L136.082 66.9239ZM133.447 69.0293C132.308 69.5413 131.054 69.8109 129.677 69.8321L129.692 70.832C131.193 70.8089 132.584 70.514 133.857 69.9414L133.447 69.0293ZM129.685 69.832H129.386V70.832H129.685V69.832ZM130.728 55.5051C129.828 55.4794 129.029 55.7668 128.357 56.3609L129.02 57.1098C129.499 56.6857 130.051 56.4861 130.7 56.5047L130.728 55.5051ZM128.354 56.3641C127.699 56.9547 127.171 57.8983 126.739 59.126L127.683 59.4579C128.092 58.295 128.549 57.5342 129.023 57.1066L128.354 56.3641ZM127.211 59.792H132.673V58.792H127.211V59.792ZM133.162 59.3933L133.262 58.9118L132.283 58.7092L132.183 59.1907L133.162 59.3933ZM133.265 58.895C133.339 58.4652 133.353 58.0495 133.302 57.6509L132.31 57.7788C132.347 58.0664 132.339 58.3812 132.28 58.7261L133.265 58.895ZM133.299 57.631C133.189 56.989 132.922 56.4491 132.458 56.0702C131.999 55.6947 131.404 55.5237 130.728 55.5051L130.7 56.5047C131.23 56.5193 131.587 56.6499 131.825 56.8444C132.059 57.0354 132.234 57.3339 132.313 57.7986L133.299 57.631ZM47.502 102.371V102.871H47.9224L47.9945 102.457L47.502 102.371ZM38.3877 102.371V101.871H37.9672L37.8951 102.285L38.3877 102.371ZM36.7109 112V112.5H37.1314L37.2035 112.086L36.7109 112ZM31.0332 112L30.5405 111.915L30.4392 112.5H31.0332V112ZM35.2168 87.8281V87.3281H34.7959L34.7241 87.7429L35.2168 87.8281ZM50.9385 87.8281L51.4311 87.9136L51.5327 87.3281H50.9385V87.8281ZM50.1582 92.3271V92.8271H50.579L50.6508 92.4126L50.1582 92.3271ZM40.1309 92.3271V91.8271H39.71L39.6382 92.2419L40.1309 92.3271ZM39.168 97.8887L38.6753 97.8034L38.574 98.3887H39.168V97.8887ZM48.2822 97.8887L48.7748 97.9744L48.8768 97.3887H48.2822V97.8887ZM47.502 101.871H38.3877V102.871H47.502V101.871ZM37.8951 102.285L36.2184 111.914L37.2035 112.086L38.8803 102.457L37.8951 102.285ZM36.7109 111.5H31.0332V112.5H36.7109V111.5ZM31.5259 112.085L35.7095 87.9134L34.7241 87.7429L30.5405 111.915L31.5259 112.085ZM35.2168 88.3281H50.9385V87.3281H35.2168V88.3281ZM50.4458 87.7427L49.6656 92.2417L50.6508 92.4126L51.4311 87.9136L50.4458 87.7427ZM50.1582 91.8271H40.1309V92.8271H50.1582V91.8271ZM39.6382 92.2419L38.6753 97.8034L39.6606 97.974L40.6235 92.4124L39.6382 92.2419ZM39.168 98.3887H48.2822V97.3887H39.168V98.3887ZM47.7896 97.8029L47.0094 102.285L47.9945 102.457L48.7748 97.9744L47.7896 97.8029ZM59.3398 93.7051L59.3313 94.205L59.3329 94.205L59.3398 93.7051ZM63.5068 94.917L63.2286 95.3324L63.2313 95.3342L63.5068 94.917ZM66.0801 98.1709L65.6141 98.3521L65.6153 98.3553L66.0801 98.1709ZM66.6777 102.819L67.1757 102.865L66.6777 102.819ZM66.6445 103.185L67.1415 103.24L67.1425 103.23L66.6445 103.185ZM57.1318 112.332L57.1405 111.832L57.1388 111.832L57.1318 112.332ZM52.998 111.153L52.7207 111.569L52.7235 111.571L52.998 111.153ZM50.4082 107.916L49.944 108.102L49.9453 108.105L50.4082 107.916ZM49.8105 103.301L49.3127 103.254L49.3126 103.255L49.8105 103.301ZM52.832 96.2617L52.4785 95.9082L52.4774 95.9093L52.832 96.2617ZM55.2725 103.301L54.7747 103.253L54.7737 103.264L54.7731 103.275L55.2725 103.301ZM55.2227 104.28L55.7217 104.312L55.722 104.306L55.2227 104.28ZM57.4805 108.049L57.4959 107.549L57.4938 107.549L57.4805 108.049ZM61.2158 102.819L61.7135 102.867L61.7148 102.854L61.7153 102.841L61.2158 102.819ZM61.2822 101.309L61.7819 101.331L61.7821 101.32L61.2822 101.309ZM60.7178 98.9346L60.2981 99.2066L60.3042 99.2155L60.7178 98.9346ZM58.9912 98.0049L58.9747 98.5046L58.9767 98.5047L58.9912 98.0049ZM56.501 99.25L56.1022 98.9484L56.1016 98.9492L56.501 99.25ZM59.3329 94.205C60.8546 94.226 62.1464 94.6075 63.2286 95.3324L63.7851 94.5016C62.5209 93.6548 61.0347 93.2284 59.3467 93.2051L59.3329 94.205ZM63.2313 95.3342C64.3124 96.0481 65.1067 97.0475 65.6141 98.3521L66.5461 97.9897C65.9688 96.5052 65.0476 95.3353 63.7824 94.4998L63.2313 95.3342ZM65.6153 98.3553C66.136 99.6673 66.3286 101.137 66.1798 102.774L67.1757 102.865C67.3367 101.093 67.131 99.4636 66.5448 97.9865L65.6153 98.3553ZM66.1798 102.774L66.1466 103.139L67.1425 103.23L67.1757 102.865L66.1798 102.774ZM66.1477 103.129C65.8487 105.787 64.8675 107.899 63.2243 109.5L63.9222 110.216C65.7542 108.431 66.8205 106.094 67.1414 103.24L66.1477 103.129ZM63.2243 109.5C61.5877 111.095 59.5718 111.874 57.1405 111.832L57.1232 112.832C59.8052 112.878 62.0835 112.008 63.9222 110.216L63.2243 109.5ZM57.1388 111.832C55.626 111.811 54.344 111.44 53.2726 110.735L52.7235 111.571C53.9763 112.394 55.4502 112.809 57.1249 112.832L57.1388 111.832ZM53.2754 110.737C52.2024 110.022 51.4006 109.025 50.8712 107.727L49.9453 108.105C50.5447 109.574 51.4695 110.735 52.7207 111.569L53.2754 110.737ZM50.8724 107.73C50.3523 106.43 50.1597 104.972 50.3085 103.346L49.3126 103.255C49.1515 105.016 49.3573 106.635 49.944 108.102L50.8724 107.73ZM50.3084 103.348C50.5765 100.495 51.5463 98.265 53.1867 96.6141L52.4774 95.9093C50.6425 97.7558 49.598 100.219 49.3127 103.254L50.3084 103.348ZM53.1856 96.6153C54.8334 94.9674 56.8698 94.1629 59.3313 94.205L59.3484 93.2052C56.6302 93.1587 54.328 94.0586 52.4785 95.9082L53.1856 96.6153ZM54.7731 103.275L54.7233 104.255L55.722 104.306L55.7718 103.326L54.7731 103.275ZM54.7236 104.249C54.6437 105.522 54.7889 106.574 55.242 107.33C55.7192 108.127 56.4932 108.523 57.4671 108.549L57.4938 107.549C56.8076 107.531 56.3752 107.276 56.0998 106.817C55.8003 106.317 55.6466 105.507 55.7217 104.312L54.7236 104.249ZM57.465 108.549C58.7049 108.587 59.7116 108.09 60.4315 107.082C61.1286 106.106 61.5385 104.68 61.7135 102.867L60.7181 102.771C60.55 104.512 60.1658 105.733 59.6178 106.501C59.0926 107.236 58.4032 107.577 57.4959 107.549L57.465 108.549ZM61.7153 102.841L61.7817 101.331L60.7827 101.287L60.7163 102.797L61.7153 102.841ZM61.7821 101.32C61.8056 100.26 61.6076 99.3547 61.1314 98.6536L60.3042 99.2155C60.6248 99.6876 60.8031 100.365 60.7824 101.297L61.7821 101.32ZM61.1374 98.6626C60.6532 97.9156 59.9195 97.5316 59.0057 97.5051L58.9767 98.5047C59.5902 98.5225 60.0076 98.7582 60.2982 99.2065L61.1374 98.6626ZM59.0077 97.5052C57.8245 97.4661 56.8447 97.9668 56.1022 98.9484L56.8997 99.5516C57.4633 98.8066 58.1436 98.4772 58.9747 98.5046L59.0077 97.5052ZM56.1016 98.9492C55.3768 99.9115 54.9549 101.372 54.7747 103.253L55.7702 103.348C55.9442 101.533 56.3413 100.293 56.9004 99.5508L56.1016 98.9492ZM75.9092 94.0205L76.4015 94.1076L76.5057 93.5186L75.9076 93.5205L75.9092 94.0205ZM75.5273 96.1787L75.035 96.0916L74.7114 97.9204L75.9094 96.5012L75.5273 96.1787ZM80.7236 93.6885L80.7127 94.1884L80.7136 94.1884L80.7236 93.6885ZM84.4258 95.5479L84.0103 95.8261L84.0133 95.8305L84.4258 95.5479ZM85.3223 100.694L85.8154 100.777L85.8182 100.76L85.8198 100.744L85.3223 100.694ZM83.4297 112V112.5H83.8529L83.9228 112.083L83.4297 112ZM77.9512 112L77.4581 111.917L77.3599 112.5H77.9512V112ZM79.8604 100.661L80.3534 100.744L80.3556 100.731L80.3571 100.718L79.8604 100.661ZM79.8936 99.5986L80.3924 99.5642L80.3922 99.5619L79.8936 99.5986ZM78.0342 98.0215L78.0227 98.5215H78.0342V98.0215ZM75.3945 99.2998L75.025 98.963L74.9273 99.0701L74.9021 99.2129L75.3945 99.2998ZM73.1533 112V112.5H73.5728L73.6457 112.087L73.1533 112ZM67.6914 112L67.1988 111.914L67.097 112.5H67.6914V112ZM70.8125 94.0371L70.8109 93.5371L70.3916 93.5385L70.3199 93.9515L70.8125 94.0371ZM75.4168 93.9334L75.035 96.0916L76.0197 96.2658L76.4015 94.1076L75.4168 93.9334ZM75.9094 96.5012C77.262 94.899 78.8549 94.1478 80.7127 94.1884L80.7346 93.1886C78.5415 93.1407 76.6703 94.0496 75.1453 95.8562L75.9094 96.5012ZM80.7136 94.1884C82.2377 94.2189 83.3074 94.7764 84.0103 95.8261L84.8412 95.2696C83.9283 93.9065 82.5299 93.2245 80.7336 93.1886L80.7136 94.1884ZM84.0133 95.8305C84.7377 96.8876 85.0405 98.4652 84.8247 100.645L85.8198 100.744C86.0467 98.4521 85.7519 96.5987 84.8382 95.2652L84.0133 95.8305ZM84.8291 100.612L82.9366 111.917L83.9228 112.083L85.8154 100.777L84.8291 100.612ZM83.4297 111.5H77.9512V112.5H83.4297V111.5ZM78.4442 112.083L80.3534 100.744L79.3673 100.578L77.4581 111.917L78.4442 112.083ZM80.3571 100.718C80.4041 100.306 80.417 99.9212 80.3924 99.5642L79.3947 99.633C79.4144 99.918 79.4051 100.241 79.3636 100.604L80.3571 100.718ZM80.3922 99.5619C80.3467 98.944 80.1341 98.4077 79.694 98.0345C79.2618 97.6678 78.6836 97.5215 78.0342 97.5215V98.5215C78.5468 98.5215 78.8596 98.638 79.0472 98.7971C79.2269 98.9495 79.363 99.2018 79.3949 99.6354L80.3922 99.5619ZM78.0457 97.5216C76.9058 97.4954 75.8951 98.0083 75.025 98.963L75.7641 99.6366C76.4877 98.8427 77.2368 98.5033 78.0227 98.5214L78.0457 97.5216ZM74.9021 99.2129L72.6609 111.913L73.6457 112.087L75.8869 99.3867L74.9021 99.2129ZM73.1533 111.5H67.6914V112.5H73.1533V111.5ZM68.184 112.086L71.3051 94.1227L70.3199 93.9515L67.1988 111.914L68.184 112.086ZM70.8141 94.5371L75.9108 94.5205L75.9076 93.5205L70.8109 93.5371L70.8141 94.5371ZM97.0605 89.5713L97.5531 89.6573L97.6555 89.0713H97.0605V89.5713ZM96.2803 94.0371L95.7877 93.9511L95.6853 94.5371H96.2803V94.0371ZM99.1523 94.0371L99.6448 94.1234L99.7476 93.5371H99.1523V94.0371ZM98.4717 97.9219V98.4219H98.8917L98.9642 98.0082L98.4717 97.9219ZM95.5996 97.9219V97.4219H95.177L95.1066 97.8386L95.5996 97.9219ZM94.2051 106.173L93.7121 106.09L93.7108 106.097L93.7097 106.105L94.2051 106.173ZM94.3047 107.451L93.8575 107.675L93.8609 107.682L93.8645 107.688L94.3047 107.451ZM95.4336 107.916L95.4574 107.417L95.4521 107.416L95.4336 107.916ZM96.8613 107.833L97.3589 107.882L97.4182 107.279L96.8154 107.335L96.8613 107.833ZM96.4629 111.884L96.6176 112.359L96.9285 112.258L96.9605 111.933L96.4629 111.884ZM93.5244 112.299L93.535 111.799L93.5309 111.799L93.5244 112.299ZM88.6934 106.837L88.1999 106.756L88.1971 106.773L88.1955 106.791L88.6934 106.837ZM90.1543 97.9219L90.6477 98.0027L90.7429 97.4219H90.1543V97.9219ZM87.9297 97.9219L87.4368 97.8376L87.337 98.4219H87.9297V97.9219ZM88.5938 94.0371V93.5371H88.172L88.1009 93.9529L88.5938 94.0371ZM90.8184 94.0371V94.5371H91.2386L91.3109 94.1232L90.8184 94.0371ZM91.5986 89.5713V89.0713H91.1784L91.1061 89.4852L91.5986 89.5713ZM96.568 89.4852L95.7877 93.9511L96.7728 94.1232L97.5531 89.6573L96.568 89.4852ZM96.2803 94.5371H99.1523V93.5371H96.2803V94.5371ZM98.6598 93.9508L97.9792 97.8356L98.9642 98.0082L99.6448 94.1234L98.6598 93.9508ZM98.4717 97.4219H95.5996V98.4219H98.4717V97.4219ZM95.1066 97.8386L93.7121 106.09L94.6981 106.256L96.0926 98.0052L95.1066 97.8386ZM93.7097 106.105C93.6278 106.702 93.6455 107.251 93.8575 107.675L94.7519 107.228C94.6761 107.076 94.6274 106.773 94.7004 106.241L93.7097 106.105ZM93.8645 107.688C94.155 108.228 94.7858 108.392 95.4151 108.416L95.4521 107.416C94.886 107.395 94.7643 107.25 94.7449 107.214L93.8645 107.688ZM95.4098 108.415C95.6833 108.428 96.1947 108.397 96.9073 108.331L96.8154 107.335C96.0892 107.402 95.6488 107.426 95.4574 107.417L95.4098 108.415ZM96.3637 107.784L95.9653 111.835L96.9605 111.933L97.3589 107.882L96.3637 107.784ZM96.3082 111.408C95.4469 111.688 94.5237 111.82 93.535 111.799L93.5138 112.799C94.6059 112.822 95.6416 112.677 96.6176 112.359L96.3082 111.408ZM93.5309 111.799C91.9328 111.778 90.8215 111.312 90.1011 110.478L89.3442 111.132C90.3061 112.245 91.7293 112.775 93.5179 112.799L93.5309 111.799ZM90.1011 110.478C89.3736 109.636 89.0448 108.462 89.1912 106.883L88.1955 106.791C88.032 108.554 88.3894 110.026 89.3442 111.132L90.1011 110.478ZM89.1868 106.918L90.6477 98.0027L89.6609 97.841L88.1999 106.756L89.1868 106.918ZM90.1543 97.4219H87.9297V98.4219H90.1543V97.4219ZM88.4225 98.0061L89.0866 94.1214L88.1009 93.9529L87.4368 97.8376L88.4225 98.0061ZM88.5938 94.5371H90.8184V93.5371H88.5938V94.5371ZM91.3109 94.1232L92.0912 89.6573L91.1061 89.4852L90.3258 93.9511L91.3109 94.1232ZM91.5986 90.0713H97.0605V89.0713H91.5986V90.0713ZM108.683 106.854L109.171 106.961L109.173 106.95L108.683 106.854ZM106.989 105.21L107.127 104.729L107.12 104.727L107.112 104.725L106.989 105.21ZM105.811 104.911L105.683 105.395L105.688 105.396L105.811 104.911ZM101.577 102.77L101.219 103.119L101.577 102.77ZM100.315 99.499L100.815 99.5209L100.815 99.515L100.315 99.499ZM102.606 95.2988L102.901 95.7028L102.902 95.7024L102.606 95.2988ZM108.019 93.7051L108.024 93.2051H108.024L108.019 93.7051ZM113.148 95.3154L112.835 95.7049L112.836 95.7062L113.148 95.3154ZM115.157 99.5654L115.156 100.065L115.663 100.067L115.657 99.5592L115.157 99.5654ZM109.712 99.5488L109.212 99.5332L109.196 100.047L109.71 100.049L109.712 99.5488ZM106.292 97.9219L106.572 98.3365L106.578 98.3319L106.292 97.9219ZM105.445 99.2168L105.935 99.3195L105.937 99.3085L105.939 99.2974L105.445 99.2168ZM107.819 101.06L107.935 100.573L107.923 100.57L107.911 100.568L107.819 101.06ZM111.389 102.338L111.138 102.771L111.142 102.773L111.389 102.338ZM113.314 104.114L113.738 103.849L113.314 104.114ZM113.929 106.671L113.429 106.654L113.429 106.656L113.929 106.671ZM109.928 111.618L109.743 111.153L109.742 111.154L109.928 111.618ZM105.777 112.332L105.788 111.832L105.782 111.832L105.777 112.332ZM102.158 111.519L101.942 111.969L101.944 111.97L102.158 111.519ZM99.5518 109.36L99.1372 109.64L99.1412 109.646L99.5518 109.36ZM98.5889 106.206L98.5921 105.706L98.0794 105.703L98.089 106.215L98.5889 106.206ZM103.669 106.239L104.169 106.232L104.162 105.742L103.672 105.739L103.669 106.239ZM106.06 108.597V108.097L106.053 108.097L106.06 108.597ZM107.786 108.148L108.052 108.572L108.059 108.567L107.786 108.148ZM109.173 106.95C109.28 106.408 109.111 105.92 108.715 105.536C108.347 105.178 107.795 104.921 107.127 104.729L106.851 105.691C107.456 105.864 107.823 106.064 108.019 106.254C108.188 106.418 108.229 106.569 108.192 106.757L109.173 106.95ZM107.112 104.725L105.933 104.426L105.688 105.396L106.866 105.695L107.112 104.725ZM105.938 104.428C104.056 103.93 102.743 103.248 101.935 102.42L101.219 103.119C102.205 104.128 103.714 104.874 105.683 105.395L105.938 104.428ZM101.935 102.42C101.133 101.599 100.766 100.642 100.815 99.5209L99.8159 99.4771C99.7544 100.879 100.228 102.103 101.219 103.119L101.935 102.42ZM100.815 99.515C100.865 97.952 101.546 96.6913 102.901 95.7028L102.312 94.8949C100.723 96.0535 99.8763 97.5929 99.8157 99.483L100.815 99.515ZM102.902 95.7024C104.284 94.6911 105.979 94.1839 108.013 94.2051L108.024 93.2051C105.808 93.182 103.895 93.7373 102.311 94.8952L102.902 95.7024ZM108.013 94.2051C110.045 94.2263 111.637 94.7405 112.835 95.7049L113.462 94.926C112.048 93.7875 110.22 93.2281 108.024 93.2051L108.013 94.2051ZM112.836 95.7062C114.029 96.6581 114.637 97.9297 114.657 99.5716L115.657 99.5592C115.633 97.6373 114.902 96.0756 113.46 94.9247L112.836 95.7062ZM115.159 99.0654L109.713 99.0488L109.71 100.049L115.156 100.065L115.159 99.0654ZM110.212 99.5644C110.236 98.7912 110.082 98.112 109.651 97.6242C109.212 97.1269 108.571 96.9238 107.836 96.9238V97.9238C108.395 97.9238 108.715 98.0749 108.901 98.286C109.096 98.5065 109.232 98.8898 109.212 99.5332L110.212 99.5644ZM107.836 96.9238C107.175 96.9238 106.561 97.1243 106.006 97.5118L106.578 98.3319C106.974 98.0554 107.39 97.9238 107.836 97.9238V96.9238ZM106.012 97.5073C105.428 97.9015 105.064 98.4512 104.952 99.1362L105.939 99.2974C106.004 98.8978 106.204 98.5842 106.572 98.3364L106.012 97.5073ZM104.956 99.1141C104.891 99.422 104.907 99.7301 105.023 100.022C105.139 100.31 105.339 100.549 105.591 100.745C106.082 101.126 106.817 101.38 107.727 101.551L107.911 100.568C107.051 100.407 106.505 100.188 106.204 99.9549C106.061 99.8433 105.988 99.7399 105.952 99.6508C105.918 99.5647 105.905 99.4598 105.935 99.3195L104.956 99.1141ZM107.704 101.546C109.221 101.906 110.357 102.318 111.138 102.771L111.639 101.905C110.738 101.383 109.495 100.943 107.935 100.573L107.704 101.546ZM111.142 102.773C111.923 103.214 112.498 103.752 112.89 104.379L113.738 103.849C113.245 103.06 112.537 102.413 111.635 101.903L111.142 102.773ZM112.89 104.379C113.271 104.988 113.46 105.738 113.429 106.654L114.428 106.688C114.464 105.612 114.243 104.657 113.738 103.849L112.89 104.379ZM113.429 106.656C113.399 107.633 113.083 108.498 112.474 109.266L113.258 109.887C114 108.95 114.392 107.878 114.428 106.686L113.429 106.656ZM112.474 109.266C111.866 110.033 110.967 110.668 109.743 111.153L110.112 112.083C111.456 111.55 112.516 110.824 113.258 109.887L112.474 109.266ZM109.742 111.154C108.537 111.636 107.221 111.864 105.788 111.832L105.766 112.832C107.322 112.866 108.773 112.619 110.113 112.082L109.742 111.154ZM105.782 111.832C104.556 111.822 103.422 111.566 102.373 111.067L101.944 111.97C103.13 112.534 104.409 112.82 105.773 112.832L105.782 111.832ZM102.375 111.068C101.337 110.57 100.539 109.904 99.9623 109.075L99.1412 109.646C99.8267 110.632 100.766 111.405 101.942 111.969L102.375 111.068ZM99.9662 109.081C99.4042 108.248 99.1092 107.291 99.0888 106.197L98.089 106.215C98.1128 107.489 98.4598 108.636 99.1373 109.64L99.9662 109.081ZM98.5856 106.706L103.666 106.739L103.672 105.739L98.5921 105.706L98.5856 106.706ZM103.169 106.246C103.181 107.118 103.407 107.862 103.932 108.38C104.459 108.899 105.202 109.109 106.067 109.097L106.053 108.097C105.346 108.107 104.904 107.934 104.634 107.668C104.363 107.4 104.179 106.954 104.169 106.232L103.169 106.246ZM106.06 109.097C106.81 109.097 107.482 108.93 108.052 108.572L107.52 107.725C107.139 107.965 106.66 108.097 106.06 108.097V109.097ZM108.059 108.567C108.645 108.186 109.021 107.643 109.171 106.961L108.194 106.746C108.101 107.171 107.88 107.491 107.513 107.729L108.059 108.567ZM45.2275 149.484L45.7235 149.421L45.6673 148.984H45.2275V149.484ZM37.5078 149.484V148.984H37.1916L37.056 149.27L37.5078 149.484ZM35.3662 154V154.5H35.6825L35.818 154.214L35.3662 154ZM29.1074 154L28.6655 153.766L28.2769 154.5H29.1074V154ZM41.9072 129.828V129.328H41.6062L41.4654 129.594L41.9072 129.828ZM47.2529 129.828L47.7446 129.737L47.669 129.328H47.2529V129.828ZM51.7188 154V154.5H52.3196L52.2104 153.909L51.7188 154ZM45.8086 154L45.3127 154.064L45.3688 154.5H45.8086V154ZM39.6328 144.985L39.181 144.771L38.8424 145.485H39.6328V144.985ZM44.6465 144.985V145.485H45.2143L45.1425 144.922L44.6465 144.985ZM43.584 136.651L44.08 136.588L43.8639 134.894L43.1322 136.437L43.584 136.651ZM45.2275 148.984H37.5078V149.984H45.2275V148.984ZM37.056 149.27L34.9144 153.786L35.818 154.214L37.9596 149.699L37.056 149.27ZM35.3662 153.5H29.1074V154.5H35.3662V153.5ZM29.5493 154.234L42.3491 130.062L41.4654 129.594L28.6655 153.766L29.5493 154.234ZM41.9072 130.328H47.2529V129.328H41.9072V130.328ZM46.7613 129.919L51.2271 154.091L52.2104 153.909L47.7446 129.737L46.7613 129.919ZM51.7188 153.5H45.8086V154.5H51.7188V153.5ZM46.3045 153.936L45.7235 149.421L44.7316 149.548L45.3127 154.064L46.3045 153.936ZM39.6328 145.485H44.6465V144.485H39.6328V145.485ZM45.1425 144.922L44.08 136.588L43.088 136.715L44.1505 145.049L45.1425 144.922ZM43.1322 136.437L39.181 144.771L40.0846 145.2L44.0358 136.866L43.1322 136.437ZM61.0332 145.799L61.0353 145.299L60.613 145.297L60.5406 145.713L61.0332 145.799ZM59.6055 154V154.5H60.0259L60.0981 154.086L59.6055 154ZM53.9277 154L53.4351 153.915L53.3338 154.5H53.9277V154ZM58.1113 129.828L58.1123 129.328L57.6906 129.327L57.6187 129.743L58.1113 129.828ZM66.7939 129.845L66.793 130.345H66.7939V129.845ZM73.1357 132.086L72.7874 132.445L72.7887 132.446L73.1357 132.086ZM75.1777 137.896L75.6761 137.937L75.6762 137.936L75.1777 137.896ZM70.0146 144.869L69.8202 144.409L69.8189 144.409L70.0146 144.869ZM65.0176 145.815L65.0155 146.315H65.0176V145.815ZM61.8135 141.3L61.3209 141.214L61.2201 141.794L61.8086 141.8L61.8135 141.3ZM65.2334 141.333L65.2285 141.833L65.2367 141.833L65.2449 141.833L65.2334 141.333ZM68.5371 139.938L68.9177 140.263L68.9197 140.26L68.5371 139.938ZM69.4502 136.602L69.9468 136.543L69.9459 136.537L69.4502 136.602ZM68.6699 135.008L68.3259 135.371L68.336 135.38L68.6699 135.008ZM66.9932 134.344L67.0248 133.845L67.0101 133.844L66.9953 133.844L66.9932 134.344ZM63.0254 134.327L63.0275 133.827L62.6051 133.825L62.5328 134.242L63.0254 134.327ZM60.5406 145.713L59.1129 153.914L60.0981 154.086L61.5258 145.885L60.5406 145.713ZM59.6055 153.5H53.9277V154.5H59.6055V153.5ZM54.4204 154.085L58.604 129.913L57.6187 129.743L53.4351 153.915L54.4204 154.085ZM58.1104 130.328L66.793 130.345L66.7949 129.345L58.1123 129.328L58.1104 130.328ZM66.7939 130.345C69.388 130.345 71.3645 131.063 72.7874 132.445L73.4841 131.727C71.8301 130.121 69.5788 129.345 66.7939 129.345V130.345ZM72.7887 132.446C74.2179 133.824 74.8571 135.608 74.6793 137.857L75.6762 137.936C75.8747 135.426 75.1525 133.336 73.4828 131.726L72.7887 132.446ZM74.6794 137.856C74.5536 139.396 74.0639 140.715 73.219 141.828L74.0154 142.432C74.9856 141.154 75.5362 139.65 75.6761 137.937L74.6794 137.856ZM73.219 141.828C72.3685 142.948 71.2404 143.809 69.8202 144.409L70.2091 145.33C71.7772 144.668 73.0507 143.703 74.0154 142.432L73.219 141.828ZM69.8189 144.409C68.4062 145.01 66.8084 145.315 65.0176 145.315V146.315C66.9233 146.315 68.657 145.99 70.2104 145.329L69.8189 144.409ZM65.0197 145.315L61.0353 145.299L61.0311 146.299L65.0155 146.315L65.0197 145.315ZM61.8086 141.8L65.2285 141.833L65.2383 140.833L61.8183 140.8L61.8086 141.8ZM65.2449 141.833C66.7919 141.797 68.0415 141.291 68.9177 140.263L68.1565 139.614C67.5053 140.379 66.5525 140.802 65.2219 140.833L65.2449 141.833ZM68.9197 140.26C69.7832 139.234 70.1157 137.979 69.9468 136.543L68.9536 136.66C69.0945 137.858 68.8184 138.828 68.1545 139.617L68.9197 140.26ZM69.9459 136.537C69.8447 135.765 69.5394 135.116 69.0039 134.636L68.336 135.38C68.6637 135.674 68.8786 136.088 68.9544 136.667L69.9459 136.537ZM69.0138 134.645C68.4917 134.15 67.8139 133.895 67.0248 133.845L66.9615 134.843C67.567 134.881 68.007 135.069 68.326 135.371L69.0138 134.645ZM66.9953 133.844L63.0275 133.827L63.0233 134.827L66.9911 134.844L66.9953 133.844ZM62.5328 134.242L61.3209 141.214L62.3061 141.385L63.518 134.413L62.5328 134.242ZM81.8857 154V154.5H82.3066L82.3784 154.085L81.8857 154ZM76.208 154L75.7154 153.914L75.6136 154.5H76.208V154ZM80.4082 129.828V129.328H79.9876L79.9156 129.743L80.4082 129.828ZM86.0693 129.828L86.562 129.913L86.6633 129.328H86.0693V129.828ZM81.8857 153.5H76.208V154.5H81.8857V153.5ZM76.7006 154.086L80.9008 129.914L79.9156 129.743L75.7154 153.914L76.7006 154.086ZM80.4082 130.328H86.0693V129.328H80.4082V130.328ZM85.5767 129.743L81.3931 153.915L82.3784 154.085L86.562 129.913L85.5767 129.743Z" fill="black"/>
</g>
<g filter="url(#filter1_d)">
<rect x="168" y="19" width="159" height="163" fill="#FFF3E0"/>
<rect x="168.5" y="19.5" width="158" height="162" stroke="black"/>
</g>
<rect x="201" y="8" width="7" height="22" fill="#EEEEEE" stroke="black"/>
<rect x="285" y="8" width="8" height="22" fill="#EEEEEE" stroke="black"/>
<line x1="179.7" y1="83.0767" x2="309.917" y2="83.0767" stroke="#D7D6D6"/>
<line x1="179.7" y1="126.006" x2="309.917" y2="126.006" stroke="#D7D6D6"/>
<path d="M184.317 60.7641C185.858 63.4106 187.205 66.1646 188.772 68.7982C188.868 68.9611 189.502 70.4841 190.003 69.7802C190.847 68.5952 191.375 67.1382 192.158 65.9059C195.786 60.197 197.492 59.0411 200.94 53.212" stroke="#CBCBCB" stroke-width="4" stroke-linecap="round" stroke-linejoin="round"/>
<path d="M221.153 55.9704C221.537 56.1731 221.729 56.4291 221.729 56.7384C221.729 56.9304 221.627 57.1117 221.425 57.2824C221.222 57.4424 220.993 57.5597 220.737 57.6344L220.545 57.6504C219.169 57.7251 217.91 57.8264 216.769 57.9544L215.873 61.5384C216.662 61.4104 217.361 61.3197 217.969 61.2664C218.577 61.2131 218.939 61.1811 219.057 61.1704L219.681 61.1224C220.097 61.3037 220.305 61.5491 220.305 61.8584C220.305 62.0504 220.209 62.2371 220.017 62.4184C219.825 62.5997 219.606 62.7277 219.361 62.8024L219.121 62.8344C218.641 62.8877 218.193 62.9304 217.777 62.9624C216.689 63.0584 215.915 63.1437 215.457 63.2184L214.689 66.3064C214.635 66.5304 214.577 66.6957 214.513 66.8024C214.459 66.8984 214.358 66.9677 214.209 67.0104C214.07 67.0637 213.857 67.0904 213.569 67.0904C213.238 67.0904 212.993 67.0317 212.833 66.9144C212.683 66.8077 212.609 66.6211 212.609 66.3544C212.609 66.2371 212.625 66.1251 212.657 66.0184L214.849 57.3624C214.966 56.8931 215.089 56.5837 215.217 56.4344C215.355 56.2744 215.601 56.1944 215.953 56.1944C216.326 56.1944 216.63 56.2424 216.865 56.3384C218.433 56.1357 219.862 56.0131 221.153 55.9704ZM224.825 67.2184C223.887 67.2184 223.156 66.8984 222.633 66.2584C222.111 65.6184 221.849 64.8024 221.849 63.8104C221.849 62.9784 222.047 62.1944 222.441 61.4584C222.847 60.7224 223.396 60.1304 224.089 59.6824C224.783 59.2344 225.545 59.0104 226.377 59.0104C227.199 59.0104 227.871 59.2824 228.393 59.8264C228.927 60.3597 229.193 61.1491 229.193 62.1944C229.193 62.9304 228.991 63.6931 228.585 64.4824C228.18 65.2717 227.636 65.9277 226.953 66.4504C226.281 66.9624 225.572 67.2184 224.825 67.2184ZM225.065 65.9384C225.407 65.9384 225.748 65.7251 226.089 65.2984C226.441 64.8717 226.729 64.3331 226.953 63.6824C227.177 63.0317 227.289 62.3971 227.289 61.7784C227.289 60.8291 226.895 60.3544 226.105 60.3544C225.668 60.3544 225.268 60.5624 224.905 60.9784C224.543 61.3944 224.255 61.9117 224.041 62.5304C223.828 63.1384 223.721 63.7091 223.721 64.2424C223.721 64.5517 223.791 64.8397 223.929 65.1064C224.068 65.3624 224.239 65.5651 224.441 65.7144C224.655 65.8637 224.863 65.9384 225.065 65.9384ZM231.136 59.5704C231.104 59.5384 231.088 59.5011 231.088 59.4584C231.088 59.3517 231.206 59.2664 231.44 59.2024C231.675 59.1277 232 59.0904 232.416 59.0904C232.8 59.0904 233.083 59.1917 233.264 59.3944C233.446 59.5864 233.552 59.8211 233.584 60.0984L233.296 61.1384C233.52 60.8291 233.835 60.5357 234.24 60.2584C234.646 59.9704 235.056 59.7411 235.472 59.5704C235.888 59.3997 236.23 59.3144 236.496 59.3144C237.062 59.3144 237.472 59.4211 237.728 59.6344C237.984 59.8371 238.112 60.1624 238.112 60.6104C237.483 62.2531 237.067 64.0237 236.864 65.9224L237.088 66.7064C236.96 66.9517 236.779 67.1437 236.544 67.2824C236.32 67.4317 235.99 67.5064 235.552 67.5064C235.296 67.5064 235.11 67.4211 234.992 67.2504C234.875 67.0797 234.816 66.8664 234.816 66.6104C234.816 65.8957 234.918 65.1117 235.12 64.2584C235.334 63.3944 235.579 62.5144 235.856 61.6184C235.963 61.2771 236.016 61.1011 236.016 61.0904C236.016 60.9411 235.931 60.8664 235.76 60.8664C235.526 60.8664 235.168 61.0317 234.688 61.3624C234.219 61.6931 233.734 62.2531 233.232 63.0424C232.731 63.8211 232.326 64.8451 232.016 66.1144C231.995 66.1784 231.968 66.2957 231.936 66.4664C231.904 66.6371 231.819 66.7597 231.68 66.8344C231.542 66.8984 231.318 66.9304 231.008 66.9304C230.656 66.9304 230.395 66.8931 230.224 66.8184C230.064 66.7437 229.984 66.5837 229.984 66.3384C230.016 66.1891 230.064 66.0077 230.128 65.7944C230.747 63.3091 231.222 61.3944 231.552 60.0504L231.136 59.5704ZM241.355 65.0904C241.355 65.3357 241.398 65.5064 241.483 65.6024C241.569 65.6984 241.729 65.7464 241.963 65.7464C242.273 65.7464 242.529 65.6824 242.731 65.5544C242.945 65.4157 243.201 65.2024 243.499 64.9144C243.585 64.8291 243.681 64.7864 243.787 64.7864C243.915 64.7864 244.017 64.8824 244.091 65.0744C244.166 65.2557 244.203 65.4424 244.203 65.6344C244.203 65.9011 244.097 66.1624 243.883 66.4184C243.67 66.6744 243.361 66.8824 242.955 67.0424C242.55 67.2024 242.075 67.2824 241.531 67.2824C240.806 67.2824 240.289 67.1171 239.979 66.7864C239.681 66.4557 239.531 65.9491 239.531 65.2664C239.531 65.1704 239.579 64.9197 239.675 64.5144C239.771 64.1091 239.894 63.6237 240.043 63.0584L240.491 61.2344L239.515 61.3144C239.387 61.3144 239.291 61.2664 239.227 61.1704C239.163 61.0744 239.131 60.9571 239.131 60.8184C239.131 60.5517 239.227 60.2851 239.419 60.0184C239.441 59.9864 239.547 59.9544 239.739 59.9224C239.931 59.8904 240.166 59.8584 240.443 59.8264L240.875 59.7784L241.243 58.1304C241.35 57.8531 241.51 57.6397 241.723 57.4904C241.947 57.3304 242.155 57.2504 242.347 57.2504C242.561 57.2504 242.742 57.3144 242.891 57.4424C243.041 57.5704 243.121 57.7197 243.131 57.8904L242.731 59.6024C243.147 59.5491 243.531 59.5064 243.883 59.4744C244.246 59.4317 244.529 59.4104 244.731 59.4104C245.137 59.4104 245.339 59.6451 245.339 60.1144C245.339 60.2957 245.259 60.4611 245.099 60.6104C244.95 60.7491 244.785 60.8344 244.603 60.8664L242.363 61.0904L241.355 65.0904ZM251.742 63.5544C250.995 63.6824 249.715 63.8317 247.902 64.0024H247.806C247.56 64.0024 247.358 63.9331 247.198 63.7944C247.048 63.6557 246.963 63.4904 246.942 63.2984L246.926 63.1064C246.926 62.8291 247.016 62.6157 247.198 62.4664C247.379 62.3064 247.694 62.2051 248.142 62.1624L249.822 62.0024L250.702 61.8904L251.678 61.7624H251.774C252.03 61.7624 252.238 61.8424 252.398 62.0024C252.558 62.1517 252.648 62.3384 252.67 62.5624V62.6424C252.67 62.8664 252.584 63.0584 252.414 63.2184C252.254 63.3784 252.03 63.4904 251.742 63.5544ZM256.47 61.6184C256.48 61.8317 256.571 62.0024 256.742 62.1304C256.912 62.2477 257.195 62.3917 257.59 62.5624C258.006 62.7437 258.347 62.9197 258.614 63.0904C258.88 63.2504 259.11 63.4851 259.302 63.7944C259.494 64.1037 259.59 64.4931 259.59 64.9624C259.59 65.7304 259.302 66.3171 258.726 66.7224C258.16 67.1171 257.392 67.3144 256.422 67.3144C255.942 67.3144 255.488 67.2291 255.062 67.0584C254.646 66.8984 254.315 66.6957 254.07 66.4504C253.824 66.2051 253.696 65.9597 253.686 65.7144C253.686 65.4477 253.782 65.2344 253.974 65.0744C254.176 64.9144 254.459 64.8077 254.822 64.7544C254.832 64.9677 254.939 65.1704 255.142 65.3624C255.344 65.5437 255.579 65.6931 255.846 65.8104C256.123 65.9171 256.363 65.9704 256.566 65.9704C256.971 65.9704 257.248 65.9011 257.398 65.7624C257.558 65.6131 257.638 65.4104 257.638 65.1544C257.638 64.8771 257.547 64.6157 257.366 64.3704C257.184 64.1144 256.907 63.9277 256.534 63.8104C255.958 63.6291 255.499 63.3357 255.158 62.9304C254.816 62.5144 254.646 62.0877 254.646 61.6504C254.646 60.8824 254.907 60.2904 255.43 59.8744C255.952 59.4584 256.688 59.2504 257.638 59.2504C258.118 59.2504 258.544 59.3357 258.918 59.5064C259.291 59.6771 259.579 59.8904 259.782 60.1464C259.984 60.4024 260.086 60.6531 260.086 60.8984C260.086 61.1544 259.979 61.3677 259.766 61.5384C259.563 61.6984 259.28 61.8051 258.918 61.8584C258.896 61.5171 258.774 61.2291 258.55 60.9944C258.336 60.7597 258.086 60.6424 257.798 60.6424C257.456 60.6424 257.147 60.7384 256.87 60.9304C256.603 61.1224 256.47 61.3517 256.47 61.6184ZM263.074 65.1224C263.074 65.3677 263.138 65.5651 263.266 65.7144C263.394 65.8531 263.576 65.9224 263.81 65.9224C264.13 65.9224 264.392 65.8317 264.594 65.6504C264.808 65.4584 265.032 65.1917 265.266 64.8504C265.437 64.6051 265.576 64.4291 265.682 64.3224C265.789 64.2157 265.912 64.1624 266.05 64.1624C266.328 64.1624 266.525 64.1997 266.642 64.2744C266.76 64.3384 266.818 64.4771 266.818 64.6904C266.818 64.7864 266.808 64.9037 266.786 65.0424C266.765 65.1704 266.738 65.2664 266.706 65.3304C266.45 65.8744 266.029 66.3437 265.442 66.7384C264.866 67.1331 264.21 67.3304 263.474 67.3304C262.738 67.3304 262.184 67.1544 261.81 66.8024C261.437 66.4397 261.25 65.9277 261.25 65.2664C261.25 65.1704 261.298 64.9197 261.394 64.5144C261.49 64.1091 261.613 63.6237 261.762 63.0584L262.21 61.2344L261.234 61.3144C261.106 61.3144 261.01 61.2664 260.946 61.1704C260.882 61.0744 260.85 60.9571 260.85 60.8184C260.85 60.5517 260.946 60.2851 261.138 60.0184C261.16 59.9864 261.266 59.9544 261.458 59.9224C261.65 59.8904 261.885 59.8584 262.162 59.8264L262.594 59.7784L263.138 57.4424C263.245 57.1651 263.405 56.9517 263.618 56.8024C263.842 56.6424 264.05 56.5624 264.242 56.5624C264.456 56.5624 264.637 56.6264 264.786 56.7544C264.936 56.8824 265.016 57.0317 265.026 57.2024L264.45 59.6024C264.866 59.5491 265.25 59.5064 265.602 59.4744C265.965 59.4317 266.248 59.4104 266.45 59.4104C266.856 59.4104 267.058 59.6451 267.058 60.1144C267.058 60.2957 266.978 60.4611 266.818 60.6104C266.669 60.7491 266.504 60.8344 266.322 60.8664L264.082 61.0904L263.074 65.1224ZM269.813 66.2744C269.802 66.3384 269.775 66.4664 269.733 66.6584C269.701 66.8397 269.61 66.9677 269.461 67.0424C269.322 67.1171 269.098 67.1544 268.789 67.1544C268.437 67.1544 268.181 67.1171 268.021 67.0424C267.861 66.9677 267.781 66.8077 267.781 66.5624C267.813 66.4344 268.042 65.5224 268.469 63.8264C268.778 62.5144 269.007 61.5917 269.157 61.0584C269.317 60.3011 269.503 59.8051 269.717 59.5704C269.93 59.3251 270.175 59.2024 270.453 59.2024C270.826 59.2024 271.066 59.2557 271.173 59.3624C271.29 59.4691 271.349 59.6077 271.349 59.7784L271.157 60.7224C271.498 60.3064 271.893 59.9651 272.341 59.6984C272.799 59.4211 273.205 59.2824 273.557 59.2824C274.015 59.2824 274.373 59.3624 274.629 59.5224C274.885 59.6824 275.013 59.8904 275.013 60.1464C275.013 60.3384 274.89 60.4931 274.645 60.6104C274.41 60.7171 274.101 60.7864 273.717 60.8184C273.141 60.8717 272.549 61.1224 271.941 61.5704C271.343 62.0184 270.895 62.5464 270.597 63.1544L269.813 66.2744ZM277.681 67.2184C276.636 67.2184 275.873 67.0104 275.393 66.5944C274.913 66.1784 274.673 65.6237 274.673 64.9304C274.673 63.9171 274.924 62.9784 275.425 62.1144C275.937 61.2504 276.614 60.5677 277.457 60.0664C278.31 59.5544 279.228 59.2984 280.209 59.2984C280.806 59.2984 281.308 59.4691 281.713 59.8104C282.118 60.1411 282.321 60.6317 282.321 61.2824C282.321 61.6557 282.198 61.9651 281.953 62.2104C281.718 62.4451 281.377 62.6584 280.929 62.8504C280.481 63.0317 279.756 63.2931 278.753 63.6344C277.846 63.9331 277.11 64.1837 276.545 64.3864C276.502 64.5464 276.481 64.7117 276.481 64.8824C276.481 65.1811 276.604 65.4104 276.849 65.5704C277.105 65.7304 277.462 65.8104 277.921 65.8104C278.209 65.8104 278.54 65.7517 278.913 65.6344C279.286 65.5171 279.521 65.3677 279.617 65.1864C279.98 64.5251 280.31 64.1944 280.609 64.1944C281.046 64.1944 281.34 64.2797 281.489 64.4504C281.649 64.6104 281.734 64.7917 281.745 64.9944C281.617 65.3357 281.366 65.6824 280.993 66.0344C280.62 66.3757 280.145 66.6584 279.569 66.8824C278.993 67.1064 278.364 67.2184 277.681 67.2184ZM276.993 62.9144C278.049 62.5731 278.918 62.2584 279.601 61.9704C280.284 61.6717 280.625 61.3784 280.625 61.0904C280.625 60.9624 280.556 60.8611 280.417 60.7864C280.278 60.7011 280.129 60.6584 279.969 60.6584C279.649 60.6584 279.281 60.7811 278.865 61.0264C278.46 61.2717 278.081 61.5704 277.729 61.9224C277.377 62.2744 277.132 62.6051 276.993 62.9144ZM284.102 61.3144C283.974 61.3144 283.878 61.2664 283.814 61.1704C283.75 61.0637 283.718 60.9304 283.718 60.7704C283.718 60.5464 283.803 60.2957 283.974 60.0184C284.07 59.9224 284.587 59.8211 285.526 59.7144L286.214 56.6104C286.288 56.2691 286.411 56.0184 286.582 55.8584C286.763 55.6877 286.96 55.6024 287.174 55.6024C287.43 55.6024 287.659 55.6931 287.862 55.8744C288.075 56.0557 288.187 56.2691 288.198 56.5144C288.198 56.5784 288.187 56.6637 288.166 56.7704L287.478 59.5224C288.182 59.4691 288.635 59.4424 288.838 59.4424C289.019 59.4424 289.19 59.4851 289.35 59.5704C289.52 59.6451 289.654 59.7357 289.75 59.8424C289.846 59.9491 289.894 60.0397 289.894 60.1144C289.894 60.2957 289.819 60.4611 289.67 60.6104C289.531 60.7491 289.371 60.8344 289.19 60.8664L287.094 61.0584L285.718 66.5624C285.558 67.0104 285.339 67.2344 285.062 67.2344C284.838 67.2344 284.635 67.0957 284.454 66.8184C284.283 66.5411 284.198 66.2264 284.198 65.8744C284.198 65.7357 284.214 65.5971 284.246 65.4584L285.19 61.2184L284.102 61.3144ZM296.917 64.9944C296.789 65.3357 296.538 65.6824 296.165 66.0344C295.792 66.3757 295.317 66.6584 294.741 66.8824C294.165 67.1064 293.536 67.2184 292.853 67.2184C291.808 67.2184 291.034 67.0051 290.533 66.5784C290.032 66.1411 289.781 65.5757 289.781 64.8824C289.781 63.8797 290.037 62.9517 290.549 62.0984C291.061 61.2344 291.749 60.5517 292.613 60.0504C293.477 59.5491 294.4 59.2984 295.381 59.2984C295.989 59.2984 296.49 59.4797 296.885 59.8424C297.29 60.1944 297.493 60.6744 297.493 61.2824C297.493 61.5171 297.397 61.7144 297.205 61.8744C297.013 62.0237 296.757 62.0984 296.437 62.0984C296.181 62.0984 296.005 62.0397 295.909 61.9224C295.824 61.8051 295.781 61.6504 295.781 61.4584L295.797 61.0904C295.797 60.9624 295.728 60.8611 295.589 60.7864C295.45 60.7011 295.301 60.6584 295.141 60.6584C294.81 60.6584 294.362 60.8557 293.797 61.2504C293.242 61.6451 292.752 62.1677 292.325 62.8184C291.909 63.4584 291.701 64.1464 291.701 64.8824C291.701 65.1811 291.818 65.4104 292.053 65.5704C292.288 65.7304 292.634 65.8104 293.093 65.8104C293.381 65.8104 293.712 65.7517 294.085 65.6344C294.458 65.5171 294.693 65.3677 294.789 65.1864C295.152 64.5251 295.482 64.1944 295.781 64.1944C296.218 64.1944 296.512 64.2797 296.661 64.4504C296.821 64.6104 296.906 64.7917 296.917 64.9944ZM300.623 61.6024C300.869 61.1224 301.178 60.7117 301.551 60.3704C301.925 60.0184 302.303 59.7571 302.687 59.5864C303.082 59.4051 303.418 59.3144 303.695 59.3144C304.357 59.3144 304.874 59.4797 305.247 59.8104C305.631 60.1411 305.823 60.5411 305.823 61.0104L304.623 65.9224V66.0344C304.623 66.5891 304.538 66.9731 304.367 67.1864C304.207 67.3997 303.898 67.5064 303.439 67.5064C303.194 67.5064 302.986 67.4264 302.815 67.2664C302.655 67.1064 302.575 66.9251 302.575 66.7224C302.575 66.6584 302.581 66.6104 302.591 66.5784C302.869 65.4051 303.098 64.4504 303.279 63.7144C303.386 63.2557 303.514 62.7064 303.663 62.0664C303.823 61.4264 303.903 61.0851 303.903 61.0424C303.903 60.8931 303.818 60.8184 303.647 60.8184C303.402 60.8184 303.061 60.9304 302.623 61.1544C302.186 61.3677 301.711 61.7784 301.199 62.3864C300.698 62.9944 300.271 63.8264 299.919 64.8824C299.77 65.3411 299.658 65.7411 299.583 66.0824L299.567 66.1464C299.525 66.3384 299.477 66.4877 299.423 66.5944C299.37 66.6904 299.269 66.7704 299.119 66.8344C298.981 66.8984 298.762 66.9304 298.463 66.9304C297.781 66.9304 297.439 66.6904 297.439 66.2104C297.471 66.0611 297.541 65.8477 297.647 65.5704C297.743 65.3571 297.823 65.1277 297.887 64.8824L300.367 55.7784C300.41 55.6291 300.527 55.5064 300.719 55.4104C300.911 55.3037 301.103 55.2504 301.295 55.2504C301.615 55.2504 301.839 55.3357 301.967 55.5064C302.106 55.6771 302.186 55.9117 302.207 56.2104L300.623 61.6024Z" fill="black"/>
<path d="M184.317 103.694C185.858 106.34 187.205 109.094 188.772 111.728C188.868 111.891 189.502 113.414 190.003 112.71C190.847 111.525 191.375 110.068 192.158 108.836C195.786 103.127 197.492 101.971 200.94 96.1417" stroke="#CBCBCB" stroke-width="4" stroke-linecap="round" stroke-linejoin="round"/>
<path d="M225.051 98.9001C225.435 99.1028 225.627 99.3588 225.627 99.6681C225.627 99.8601 225.525 100.041 225.323 100.212C225.12 100.372 224.891 100.489 224.635 100.564L224.443 100.58C223.067 100.655 221.808 100.756 220.667 100.884L219.771 104.468C220.56 104.34 221.259 104.249 221.867 104.196C222.475 104.143 222.837 104.111 222.955 104.1L223.579 104.052C223.995 104.233 224.203 104.479 224.203 104.788C224.203 104.98 224.107 105.167 223.915 105.348C223.723 105.529 223.504 105.657 223.259 105.732L223.019 105.764C222.539 105.817 222.091 105.86 221.675 105.892C220.587 105.988 219.813 106.073 219.355 106.148L218.587 109.236C218.533 109.46 218.475 109.625 218.411 109.732C218.357 109.828 218.256 109.897 218.107 109.94C217.968 109.993 217.755 110.02 217.467 110.02C217.136 110.02 216.891 109.961 216.731 109.844C216.581 109.737 216.507 109.551 216.507 109.284C216.507 109.167 216.523 109.055 216.555 108.948L218.747 100.292C218.864 99.8228 218.987 99.5135 219.115 99.3641C219.253 99.2041 219.499 99.1241 219.851 99.1241C220.224 99.1241 220.528 99.1721 220.763 99.2681C222.331 99.0655 223.76 98.9428 225.051 98.9001ZM228.723 110.148C227.785 110.148 227.054 109.828 226.531 109.188C226.009 108.548 225.747 107.732 225.747 106.74C225.747 105.908 225.945 105.124 226.339 104.388C226.745 103.652 227.294 103.06 227.987 102.612C228.681 102.164 229.443 101.94 230.275 101.94C231.097 101.94 231.769 102.212 232.291 102.756C232.825 103.289 233.091 104.079 233.091 105.124C233.091 105.86 232.889 106.623 232.483 107.412C232.078 108.201 231.534 108.857 230.851 109.38C230.179 109.892 229.47 110.148 228.723 110.148ZM228.963 108.868C229.305 108.868 229.646 108.655 229.987 108.228C230.339 107.801 230.627 107.263 230.851 106.612C231.075 105.961 231.187 105.327 231.187 104.708C231.187 103.759 230.793 103.284 230.003 103.284C229.566 103.284 229.166 103.492 228.803 103.908C228.441 104.324 228.153 104.841 227.939 105.46C227.726 106.068 227.619 106.639 227.619 107.172C227.619 107.481 227.689 107.769 227.827 108.036C227.966 108.292 228.137 108.495 228.339 108.644C228.553 108.793 228.761 108.868 228.963 108.868ZM235.034 102.5C235.002 102.468 234.986 102.431 234.986 102.388C234.986 102.281 235.104 102.196 235.338 102.132C235.573 102.057 235.898 102.02 236.314 102.02C236.698 102.02 236.981 102.121 237.162 102.324C237.344 102.516 237.45 102.751 237.482 103.028L237.194 104.068C237.418 103.759 237.733 103.465 238.138 103.188C238.544 102.9 238.954 102.671 239.37 102.5C239.786 102.329 240.128 102.244 240.394 102.244C240.96 102.244 241.37 102.351 241.626 102.564C241.882 102.767 242.01 103.092 242.01 103.54C241.381 105.183 240.965 106.953 240.762 108.852L240.986 109.636C240.858 109.881 240.677 110.073 240.442 110.212C240.218 110.361 239.888 110.436 239.45 110.436C239.194 110.436 239.008 110.351 238.89 110.18C238.773 110.009 238.714 109.796 238.714 109.54C238.714 108.825 238.816 108.041 239.018 107.188C239.232 106.324 239.477 105.444 239.754 104.548C239.861 104.207 239.914 104.031 239.914 104.02C239.914 103.871 239.829 103.796 239.658 103.796C239.424 103.796 239.066 103.961 238.586 104.292C238.117 104.623 237.632 105.183 237.13 105.972C236.629 106.751 236.224 107.775 235.914 109.044C235.893 109.108 235.866 109.225 235.834 109.396C235.802 109.567 235.717 109.689 235.578 109.764C235.44 109.828 235.216 109.86 234.906 109.86C234.554 109.86 234.293 109.823 234.122 109.748C233.962 109.673 233.882 109.513 233.882 109.268C233.914 109.119 233.962 108.937 234.026 108.724C234.645 106.239 235.12 104.324 235.45 102.98L235.034 102.5ZM245.253 108.02C245.253 108.265 245.296 108.436 245.381 108.532C245.467 108.628 245.627 108.676 245.861 108.676C246.171 108.676 246.427 108.612 246.629 108.484C246.843 108.345 247.099 108.132 247.397 107.844C247.483 107.759 247.579 107.716 247.685 107.716C247.813 107.716 247.915 107.812 247.989 108.004C248.064 108.185 248.101 108.372 248.101 108.564C248.101 108.831 247.995 109.092 247.781 109.348C247.568 109.604 247.259 109.812 246.853 109.972C246.448 110.132 245.973 110.212 245.429 110.212C244.704 110.212 244.187 110.047 243.877 109.716C243.579 109.385 243.429 108.879 243.429 108.196C243.429 108.1 243.477 107.849 243.573 107.444C243.669 107.039 243.792 106.553 243.941 105.988L244.389 104.164L243.413 104.244C243.285 104.244 243.189 104.196 243.125 104.1C243.061 104.004 243.029 103.887 243.029 103.748C243.029 103.481 243.125 103.215 243.317 102.948C243.339 102.916 243.445 102.884 243.637 102.852C243.829 102.82 244.064 102.788 244.341 102.756L244.773 102.708L245.141 101.06C245.248 100.783 245.408 100.569 245.621 100.42C245.845 100.26 246.053 100.18 246.245 100.18C246.459 100.18 246.64 100.244 246.789 100.372C246.939 100.5 247.019 100.649 247.029 100.82L246.629 102.532C247.045 102.479 247.429 102.436 247.781 102.404C248.144 102.361 248.427 102.34 248.629 102.34C249.035 102.34 249.237 102.575 249.237 103.044C249.237 103.225 249.157 103.391 248.997 103.54C248.848 103.679 248.683 103.764 248.501 103.796L246.261 104.02L245.253 108.02ZM255.64 106.484C254.893 106.612 253.613 106.761 251.8 106.932H251.704C251.458 106.932 251.256 106.863 251.096 106.724C250.946 106.585 250.861 106.42 250.84 106.228L250.824 106.036C250.824 105.759 250.914 105.545 251.096 105.396C251.277 105.236 251.592 105.135 252.04 105.092L253.72 104.932L254.6 104.82L255.576 104.692H255.672C255.928 104.692 256.136 104.772 256.296 104.932C256.456 105.081 256.546 105.268 256.568 105.492V105.572C256.568 105.796 256.482 105.988 256.312 106.148C256.152 106.308 255.928 106.42 255.64 106.484ZM260.368 104.548C260.378 104.761 260.469 104.932 260.64 105.06C260.81 105.177 261.093 105.321 261.488 105.492C261.904 105.673 262.245 105.849 262.512 106.02C262.778 106.18 263.008 106.415 263.2 106.724C263.392 107.033 263.488 107.423 263.488 107.892C263.488 108.66 263.2 109.247 262.624 109.652C262.058 110.047 261.29 110.244 260.32 110.244C259.84 110.244 259.386 110.159 258.96 109.988C258.544 109.828 258.213 109.625 257.968 109.38C257.722 109.135 257.594 108.889 257.584 108.644C257.584 108.377 257.68 108.164 257.872 108.004C258.074 107.844 258.357 107.737 258.72 107.684C258.73 107.897 258.837 108.1 259.04 108.292C259.242 108.473 259.477 108.623 259.744 108.74C260.021 108.847 260.261 108.9 260.464 108.9C260.869 108.9 261.146 108.831 261.296 108.692C261.456 108.543 261.536 108.34 261.536 108.084C261.536 107.807 261.445 107.545 261.264 107.3C261.082 107.044 260.805 106.857 260.432 106.74C259.856 106.559 259.397 106.265 259.056 105.86C258.714 105.444 258.544 105.017 258.544 104.58C258.544 103.812 258.805 103.22 259.328 102.804C259.85 102.388 260.586 102.18 261.536 102.18C262.016 102.18 262.442 102.265 262.816 102.436C263.189 102.607 263.477 102.82 263.68 103.076C263.882 103.332 263.984 103.583 263.984 103.828C263.984 104.084 263.877 104.297 263.664 104.468C263.461 104.628 263.178 104.735 262.816 104.788C262.794 104.447 262.672 104.159 262.448 103.924C262.234 103.689 261.984 103.572 261.696 103.572C261.354 103.572 261.045 103.668 260.768 103.86C260.501 104.052 260.368 104.281 260.368 104.548ZM266.972 108.052C266.972 108.297 267.036 108.495 267.164 108.644C267.292 108.783 267.473 108.852 267.708 108.852C268.028 108.852 268.289 108.761 268.492 108.58C268.705 108.388 268.929 108.121 269.164 107.78C269.335 107.535 269.473 107.359 269.58 107.252C269.687 107.145 269.809 107.092 269.948 107.092C270.225 107.092 270.423 107.129 270.54 107.204C270.657 107.268 270.716 107.407 270.716 107.62C270.716 107.716 270.705 107.833 270.684 107.972C270.663 108.1 270.636 108.196 270.604 108.26C270.348 108.804 269.927 109.273 269.34 109.668C268.764 110.063 268.108 110.26 267.372 110.26C266.636 110.26 266.081 110.084 265.708 109.732C265.335 109.369 265.148 108.857 265.148 108.196C265.148 108.1 265.196 107.849 265.292 107.444C265.388 107.039 265.511 106.553 265.66 105.988L266.108 104.164L265.132 104.244C265.004 104.244 264.908 104.196 264.844 104.1C264.78 104.004 264.748 103.887 264.748 103.748C264.748 103.481 264.844 103.215 265.036 102.948C265.057 102.916 265.164 102.884 265.356 102.852C265.548 102.82 265.783 102.788 266.06 102.756L266.492 102.708L267.036 100.372C267.143 100.095 267.303 99.8815 267.516 99.7321C267.74 99.5721 267.948 99.4921 268.14 99.4921C268.353 99.4921 268.535 99.5561 268.684 99.6841C268.833 99.8121 268.913 99.9615 268.924 100.132L268.348 102.532C268.764 102.479 269.148 102.436 269.5 102.404C269.863 102.361 270.145 102.34 270.348 102.34C270.753 102.34 270.956 102.575 270.956 103.044C270.956 103.225 270.876 103.391 270.716 103.54C270.567 103.679 270.401 103.764 270.22 103.796L267.98 104.02L266.972 108.052ZM273.903 107.54C273.871 107.668 273.855 107.796 273.855 107.924C273.855 108.148 273.913 108.329 274.031 108.468C274.148 108.607 274.335 108.676 274.591 108.676C274.921 108.676 275.279 108.58 275.663 108.388C276.047 108.196 276.372 107.961 276.639 107.684L276.943 106.42C277.145 105.567 277.38 104.644 277.647 103.652C277.764 103.225 277.913 102.879 278.095 102.612C278.287 102.335 278.585 102.196 278.991 102.196C279.556 102.196 279.839 102.367 279.839 102.708C279.839 102.761 279.823 102.831 279.791 102.916C279.769 102.991 279.753 103.055 279.743 103.108C279.369 104.687 279.161 105.567 279.119 105.748C278.617 107.988 278.239 109.545 277.983 110.42C277.609 111.711 277.076 112.628 276.383 113.172C275.689 113.716 274.724 113.988 273.487 113.988C272.74 113.988 272.239 113.876 271.983 113.652C271.727 113.439 271.599 113.172 271.599 112.852C271.599 112.66 271.673 112.495 271.823 112.356C271.983 112.217 272.159 112.148 272.351 112.148C272.511 112.148 272.633 112.164 272.719 112.196C272.815 112.239 272.916 112.297 273.023 112.372C273.151 112.468 273.279 112.537 273.407 112.58C273.535 112.633 273.721 112.66 273.967 112.66C274.148 112.66 274.367 112.585 274.623 112.436C274.879 112.287 275.124 112.047 275.359 111.716C275.604 111.396 275.796 111.001 275.935 110.532L276.335 109.14C275.972 109.481 275.62 109.732 275.279 109.892C274.937 110.063 274.553 110.148 274.127 110.148C273.423 110.148 272.879 109.929 272.495 109.492C272.121 109.055 271.935 108.473 271.935 107.748C271.935 107.535 271.967 107.3 272.031 107.044L273.055 102.98L272.639 102.5C272.607 102.468 272.591 102.431 272.591 102.388C272.591 102.281 272.708 102.196 272.943 102.132C273.177 102.057 273.503 102.02 273.919 102.02C274.601 102.02 274.975 102.345 275.039 102.996L273.903 107.54ZM282.849 97.9081C282.924 97.5668 283.047 97.3161 283.217 97.1561C283.399 96.9855 283.596 96.9001 283.809 96.9001C284.065 96.9001 284.295 96.9908 284.497 97.1721C284.711 97.3535 284.823 97.5668 284.833 97.8121C284.833 97.8761 284.823 97.9615 284.801 98.0681L281.985 109.492C281.825 109.94 281.607 110.164 281.329 110.164C281.105 110.164 280.903 110.025 280.721 109.748C280.551 109.471 280.465 109.156 280.465 108.804C280.465 108.665 280.481 108.527 280.513 108.388L282.849 97.9081ZM288.126 110.148C287.081 110.148 286.318 109.94 285.838 109.524C285.358 109.108 285.118 108.553 285.118 107.86C285.118 106.847 285.369 105.908 285.87 105.044C286.382 104.18 287.059 103.497 287.902 102.996C288.755 102.484 289.673 102.228 290.654 102.228C291.251 102.228 291.753 102.399 292.158 102.74C292.563 103.071 292.766 103.561 292.766 104.212C292.766 104.585 292.643 104.895 292.398 105.14C292.163 105.375 291.822 105.588 291.374 105.78C290.926 105.961 290.201 106.223 289.198 106.564C288.291 106.863 287.555 107.113 286.99 107.316C286.947 107.476 286.926 107.641 286.926 107.812C286.926 108.111 287.049 108.34 287.294 108.5C287.55 108.66 287.907 108.74 288.366 108.74C288.654 108.74 288.985 108.681 289.358 108.564C289.731 108.447 289.966 108.297 290.062 108.116C290.425 107.455 290.755 107.124 291.054 107.124C291.491 107.124 291.785 107.209 291.934 107.38C292.094 107.54 292.179 107.721 292.19 107.924C292.062 108.265 291.811 108.612 291.438 108.964C291.065 109.305 290.59 109.588 290.014 109.812C289.438 110.036 288.809 110.148 288.126 110.148ZM287.438 105.844C288.494 105.503 289.363 105.188 290.046 104.9C290.729 104.601 291.07 104.308 291.07 104.02C291.07 103.892 291.001 103.791 290.862 103.716C290.723 103.631 290.574 103.588 290.414 103.588C290.094 103.588 289.726 103.711 289.31 103.956C288.905 104.201 288.526 104.5 288.174 104.852C287.822 105.204 287.577 105.535 287.438 105.844Z" fill="black"/>
<path d="M184.317 147.67C185.858 150.316 187.205 153.07 188.772 155.704C188.868 155.867 189.502 157.39 190.003 156.686C190.847 155.501 191.375 154.044 192.158 152.812C195.786 147.103 197.492 145.947 200.94 140.118" stroke="#CBCBCB" stroke-width="4" stroke-linecap="round" stroke-linejoin="round"/>
<path d="M221.696 143.924C222.08 144.127 222.272 144.383 222.272 144.692C222.272 144.884 222.17 145.065 221.968 145.236C221.765 145.396 221.536 145.513 221.28 145.588L221.088 145.604C219.712 145.679 218.453 145.78 217.312 145.908L216.416 149.492C217.205 149.364 217.904 149.273 218.512 149.22C219.12 149.167 219.482 149.135 219.6 149.124L220.224 149.076C220.64 149.257 220.848 149.503 220.848 149.812C220.848 150.004 220.752 150.191 220.56 150.372C220.368 150.553 220.149 150.681 219.904 150.756L219.664 150.788C219.184 150.841 218.736 150.884 218.32 150.916C217.232 151.012 216.458 151.097 216 151.172L215.232 154.26C215.178 154.484 215.12 154.649 215.056 154.756C215.002 154.852 214.901 154.921 214.752 154.964C214.613 155.017 214.4 155.044 214.112 155.044C213.781 155.044 213.536 154.985 213.376 154.868C213.226 154.761 213.152 154.575 213.152 154.308C213.152 154.191 213.168 154.079 213.2 153.972L215.392 145.316C215.509 144.847 215.632 144.537 215.76 144.388C215.898 144.228 216.144 144.148 216.496 144.148C216.869 144.148 217.173 144.196 217.408 144.292C218.976 144.089 220.405 143.967 221.696 143.924ZM225.368 155.172C224.43 155.172 223.699 154.852 223.176 154.212C222.654 153.572 222.392 152.756 222.392 151.764C222.392 150.932 222.59 150.148 222.984 149.412C223.39 148.676 223.939 148.084 224.632 147.636C225.326 147.188 226.088 146.964 226.92 146.964C227.742 146.964 228.414 147.236 228.936 147.78C229.47 148.313 229.736 149.103 229.736 150.148C229.736 150.884 229.534 151.647 229.128 152.436C228.723 153.225 228.179 153.881 227.496 154.404C226.824 154.916 226.115 155.172 225.368 155.172ZM225.608 153.892C225.95 153.892 226.291 153.679 226.632 153.252C226.984 152.825 227.272 152.287 227.496 151.636C227.72 150.985 227.832 150.351 227.832 149.732C227.832 148.783 227.438 148.308 226.648 148.308C226.211 148.308 225.811 148.516 225.448 148.932C225.086 149.348 224.798 149.865 224.584 150.484C224.371 151.092 224.264 151.663 224.264 152.196C224.264 152.505 224.334 152.793 224.472 153.06C224.611 153.316 224.782 153.519 224.984 153.668C225.198 153.817 225.406 153.892 225.608 153.892ZM231.679 147.524C231.647 147.492 231.631 147.455 231.631 147.412C231.631 147.305 231.749 147.22 231.983 147.156C232.218 147.081 232.543 147.044 232.959 147.044C233.343 147.044 233.626 147.145 233.807 147.348C233.989 147.54 234.095 147.775 234.127 148.052L233.839 149.092C234.063 148.783 234.378 148.489 234.783 148.212C235.189 147.924 235.599 147.695 236.015 147.524C236.431 147.353 236.773 147.268 237.039 147.268C237.605 147.268 238.015 147.375 238.271 147.588C238.527 147.791 238.655 148.116 238.655 148.564C238.026 150.207 237.61 151.977 237.407 153.876L237.631 154.66C237.503 154.905 237.322 155.097 237.087 155.236C236.863 155.385 236.533 155.46 236.095 155.46C235.839 155.46 235.653 155.375 235.535 155.204C235.418 155.033 235.359 154.82 235.359 154.564C235.359 153.849 235.461 153.065 235.663 152.212C235.877 151.348 236.122 150.468 236.399 149.572C236.506 149.231 236.559 149.055 236.559 149.044C236.559 148.895 236.474 148.82 236.303 148.82C236.069 148.82 235.711 148.985 235.231 149.316C234.762 149.647 234.277 150.207 233.775 150.996C233.274 151.775 232.869 152.799 232.559 154.068C232.538 154.132 232.511 154.249 232.479 154.42C232.447 154.591 232.362 154.713 232.223 154.788C232.085 154.852 231.861 154.884 231.551 154.884C231.199 154.884 230.938 154.847 230.767 154.772C230.607 154.697 230.527 154.537 230.527 154.292C230.559 154.143 230.607 153.961 230.671 153.748C231.29 151.263 231.765 149.348 232.095 148.004L231.679 147.524ZM241.898 153.044C241.898 153.289 241.941 153.46 242.026 153.556C242.112 153.652 242.272 153.7 242.506 153.7C242.816 153.7 243.072 153.636 243.274 153.508C243.488 153.369 243.744 153.156 244.042 152.868C244.128 152.783 244.224 152.74 244.33 152.74C244.458 152.74 244.56 152.836 244.634 153.028C244.709 153.209 244.746 153.396 244.746 153.588C244.746 153.855 244.64 154.116 244.426 154.372C244.213 154.628 243.904 154.836 243.498 154.996C243.093 155.156 242.618 155.236 242.074 155.236C241.349 155.236 240.832 155.071 240.522 154.74C240.224 154.409 240.074 153.903 240.074 153.22C240.074 153.124 240.122 152.873 240.218 152.468C240.314 152.063 240.437 151.577 240.586 151.012L241.034 149.188L240.058 149.268C239.93 149.268 239.834 149.22 239.77 149.124C239.706 149.028 239.674 148.911 239.674 148.772C239.674 148.505 239.77 148.239 239.962 147.972C239.984 147.94 240.09 147.908 240.282 147.876C240.474 147.844 240.709 147.812 240.986 147.78L241.418 147.732L241.786 146.084C241.893 145.807 242.053 145.593 242.266 145.444C242.49 145.284 242.698 145.204 242.89 145.204C243.104 145.204 243.285 145.268 243.434 145.396C243.584 145.524 243.664 145.673 243.674 145.844L243.274 147.556C243.69 147.503 244.074 147.46 244.426 147.428C244.789 147.385 245.072 147.364 245.274 147.364C245.68 147.364 245.882 147.599 245.882 148.068C245.882 148.249 245.802 148.415 245.642 148.564C245.493 148.703 245.328 148.788 245.146 148.82L242.906 149.044L241.898 153.044ZM252.285 151.508C251.538 151.636 250.258 151.785 248.445 151.956H248.349C248.103 151.956 247.901 151.887 247.741 151.748C247.591 151.609 247.506 151.444 247.485 151.252L247.469 151.06C247.469 150.783 247.559 150.569 247.741 150.42C247.922 150.26 248.237 150.159 248.685 150.116L250.365 149.956L251.245 149.844L252.221 149.716H252.317C252.573 149.716 252.781 149.796 252.941 149.956C253.101 150.105 253.191 150.292 253.213 150.516V150.596C253.213 150.82 253.127 151.012 252.957 151.172C252.797 151.332 252.573 151.444 252.285 151.508ZM259.589 151.38C259.237 152.553 258.773 153.471 258.197 154.132C257.631 154.793 257.05 155.124 256.453 155.124C255.354 155.124 254.805 154.068 254.805 151.956C254.805 151.188 254.831 150.543 254.885 150.02C254.938 149.497 255.029 148.937 255.157 148.34C255.189 148.148 255.29 147.988 255.461 147.86C255.642 147.732 255.877 147.668 256.165 147.668C256.719 147.668 257.002 147.913 257.013 148.404C257.013 148.457 256.986 148.633 256.933 148.932C256.826 149.54 256.735 150.084 256.661 150.564C256.597 151.044 256.565 151.529 256.565 152.02C256.565 153.023 256.719 153.524 257.029 153.524C257.317 153.524 257.605 153.204 257.893 152.564C258.191 151.913 258.458 151.14 258.693 150.244C258.927 149.348 259.103 148.532 259.221 147.796C259.242 147.657 259.343 147.535 259.525 147.428C259.717 147.321 259.882 147.268 260.021 147.268C260.33 147.268 260.586 147.337 260.789 147.476C261.002 147.604 261.109 147.791 261.109 148.036C261.109 148.1 261.077 148.308 261.013 148.66C260.725 150.217 260.581 151.407 260.581 152.228C260.581 152.612 260.634 152.927 260.741 153.172C260.858 153.407 261.007 153.524 261.189 153.524C261.541 153.524 261.861 153.156 262.149 152.42C262.447 151.684 262.687 150.799 262.869 149.764C263.05 148.729 263.151 147.796 263.173 146.964C263.183 146.825 263.253 146.724 263.381 146.66C263.519 146.585 263.685 146.548 263.877 146.548C264.111 146.548 264.341 146.591 264.565 146.676C264.789 146.751 264.906 146.836 264.917 146.932C264.522 152.393 263.221 155.124 261.013 155.124C260.469 155.124 260.09 154.9 259.877 154.452C259.663 154.004 259.557 153.401 259.557 152.644C259.557 152.356 259.589 151.935 259.653 151.38H259.589ZM268.677 155.172C267.632 155.172 266.869 154.964 266.389 154.548C265.909 154.132 265.669 153.577 265.669 152.884C265.669 151.871 265.92 150.932 266.421 150.068C266.933 149.204 267.611 148.521 268.453 148.02C269.307 147.508 270.224 147.252 271.205 147.252C271.803 147.252 272.304 147.423 272.709 147.764C273.115 148.095 273.317 148.585 273.317 149.236C273.317 149.961 273.045 150.537 272.501 150.964C271.968 151.38 271.291 151.689 270.469 151.892C269.659 152.084 268.683 152.233 267.541 152.34C267.499 152.5 267.477 152.665 267.477 152.836C267.477 153.135 267.6 153.364 267.845 153.524C268.101 153.684 268.459 153.764 268.917 153.764C269.259 153.764 269.648 153.695 270.085 153.556C270.533 153.417 270.875 153.188 271.109 152.868C271.237 152.687 271.397 152.543 271.589 152.436C271.792 152.329 271.984 152.276 272.165 152.276C272.336 152.276 272.475 152.335 272.581 152.452C272.688 152.559 272.741 152.724 272.741 152.948C272.613 153.289 272.363 153.636 271.989 153.988C271.616 154.329 271.141 154.612 270.565 154.836C269.989 155.06 269.36 155.172 268.677 155.172ZM267.989 150.868C268.363 150.857 268.832 150.799 269.397 150.692C269.963 150.585 270.475 150.399 270.933 150.132C271.392 149.855 271.621 149.492 271.621 149.044C271.621 148.916 271.552 148.815 271.413 148.74C271.275 148.655 271.125 148.612 270.965 148.612C270.645 148.612 270.277 148.735 269.861 148.98C269.456 149.225 269.077 149.524 268.725 149.876C268.373 150.228 268.128 150.559 267.989 150.868ZM275.994 145.332C275.994 144.991 276.122 144.671 276.378 144.372C276.634 144.073 276.949 143.924 277.322 143.924C277.706 143.924 278.005 144.041 278.218 144.276C278.442 144.511 278.559 144.793 278.57 145.124C278.57 145.444 278.431 145.737 278.154 146.004C277.877 146.271 277.546 146.404 277.162 146.404C276.778 146.404 276.485 146.308 276.282 146.116C276.09 145.913 275.994 145.652 275.994 145.332ZM274.618 153.764C274.618 153.497 275.061 151.577 275.946 148.004C275.957 147.62 276.026 147.364 276.154 147.236C276.293 147.108 276.522 147.044 276.842 147.044C277.109 147.044 277.322 147.129 277.482 147.3C277.653 147.46 277.738 147.668 277.738 147.924C277.738 147.977 277.727 148.057 277.706 148.164L276.394 153.924L276.33 154.356C276.319 154.527 276.293 154.644 276.25 154.708C276.207 154.772 276.101 154.815 275.93 154.836C275.77 154.868 275.482 154.884 275.066 154.884C274.863 154.884 274.725 154.847 274.65 154.772C274.575 154.697 274.538 154.591 274.538 154.452C274.538 154.324 274.554 154.207 274.586 154.1C274.607 153.929 274.618 153.817 274.618 153.764ZM280.65 158.468C280.159 158.468 279.695 158.361 279.258 158.148C278.831 157.935 278.474 157.657 278.186 157.316C277.887 156.985 277.674 156.649 277.546 156.308C277.556 156.116 277.652 155.924 277.834 155.732C278.004 155.551 278.308 155.46 278.746 155.46C278.884 155.46 279.002 155.513 279.098 155.62C279.204 155.727 279.322 155.897 279.45 156.132C279.62 156.452 279.796 156.697 279.978 156.868C280.17 157.049 280.431 157.14 280.762 157.14C281.135 157.14 281.492 156.991 281.834 156.692C282.186 156.404 282.484 156.009 282.73 155.508C282.986 155.007 283.162 154.452 283.258 153.844C283.023 154.164 282.751 154.409 282.442 154.58C282.143 154.751 281.86 154.836 281.594 154.836C280.74 154.836 280.063 154.649 279.562 154.276C279.071 153.892 278.826 153.215 278.826 152.244C278.826 151.369 279.066 150.553 279.546 149.796C280.036 149.039 280.687 148.436 281.498 147.988C282.308 147.54 283.178 147.316 284.106 147.316C284.714 147.316 285.162 147.439 285.45 147.684C285.748 147.929 285.93 148.239 285.994 148.612C286.175 148.697 286.271 148.783 286.282 148.868C286.282 148.9 286.26 149.012 286.218 149.204C286.015 150.079 285.588 151.807 284.938 154.388L284.762 155.092C284.495 156.127 283.983 156.948 283.226 157.556C282.479 158.164 281.62 158.468 280.65 158.468ZM284.266 148.964C284.18 148.815 284.095 148.719 284.01 148.676C283.935 148.633 283.818 148.612 283.658 148.612C283.156 148.612 282.671 148.777 282.202 149.108C281.732 149.428 281.354 149.849 281.066 150.372C280.778 150.884 280.634 151.412 280.634 151.956C280.634 152.351 280.703 152.692 280.842 152.98C280.991 153.268 281.226 153.433 281.546 153.476C281.972 153.401 282.372 153.209 282.746 152.9C283.13 152.591 283.391 152.191 283.53 151.7L284.266 148.964ZM289.682 149.556C289.927 149.076 290.237 148.665 290.61 148.324C290.983 147.972 291.362 147.711 291.746 147.54C292.141 147.359 292.477 147.268 292.754 147.268C293.415 147.268 293.933 147.433 294.306 147.764C294.69 148.095 294.882 148.495 294.882 148.964L293.682 153.876V153.988C293.682 154.543 293.597 154.927 293.426 155.14C293.266 155.353 292.957 155.46 292.498 155.46C292.253 155.46 292.045 155.38 291.874 155.22C291.714 155.06 291.634 154.879 291.634 154.676C291.634 154.612 291.639 154.564 291.65 154.532C291.927 153.359 292.157 152.404 292.338 151.668C292.445 151.209 292.573 150.66 292.722 150.02C292.882 149.38 292.962 149.039 292.962 148.996C292.962 148.847 292.877 148.772 292.706 148.772C292.461 148.772 292.119 148.884 291.682 149.108C291.245 149.321 290.77 149.732 290.258 150.34C289.757 150.948 289.33 151.78 288.978 152.836C288.829 153.295 288.717 153.695 288.642 154.036L288.626 154.1C288.583 154.292 288.535 154.441 288.482 154.548C288.429 154.644 288.327 154.724 288.178 154.788C288.039 154.852 287.821 154.884 287.522 154.884C286.839 154.884 286.498 154.644 286.498 154.164C286.53 154.015 286.599 153.801 286.706 153.524C286.802 153.311 286.882 153.081 286.946 152.836L289.426 143.732C289.469 143.583 289.586 143.46 289.778 143.364C289.97 143.257 290.162 143.204 290.354 143.204C290.674 143.204 290.898 143.289 291.026 143.46C291.165 143.631 291.245 143.865 291.266 144.164L289.682 149.556ZM296.739 149.268C296.611 149.268 296.515 149.22 296.451 149.124C296.387 149.017 296.355 148.884 296.355 148.724C296.355 148.5 296.44 148.249 296.611 147.972C296.707 147.876 297.224 147.775 298.163 147.668L298.851 144.564C298.925 144.223 299.048 143.972 299.219 143.812C299.4 143.641 299.597 143.556 299.811 143.556C300.067 143.556 300.296 143.647 300.499 143.828C300.712 144.009 300.824 144.223 300.835 144.468C300.835 144.532 300.824 144.617 300.803 144.724L300.115 147.476C300.819 147.423 301.272 147.396 301.475 147.396C301.656 147.396 301.827 147.439 301.987 147.524C302.157 147.599 302.291 147.689 302.387 147.796C302.483 147.903 302.531 147.993 302.531 148.068C302.531 148.249 302.456 148.415 302.307 148.564C302.168 148.703 302.008 148.788 301.827 148.82L299.731 149.012L298.355 154.516C298.195 154.964 297.976 155.188 297.699 155.188C297.475 155.188 297.272 155.049 297.091 154.772C296.92 154.495 296.835 154.18 296.835 153.828C296.835 153.689 296.851 153.551 296.883 153.412L297.827 149.172L296.739 149.268Z" fill="black"/>
<defs>
<filter id="filter0_d" x="0" y="0" width="348" height="201.691" filterUnits="userSpaceOnUse" color-interpolation-filters="sRGB">
<feFlood flood-opacity="0" result="BackgroundImageFix"/>
<feColorMatrix in="SourceAlpha" type="matrix" values="0 0 0 0 0 0 0 0 0 0 0 0 0 0 0 0 0 0 127 0"/>
<feOffset dy="4"/>
<feGaussianBlur stdDeviation="2"/>
<feColorMatrix type="matrix" values="0 0 0 0 0 0 0 0 0 0 0 0 0 0 0 0 0 0 0.25 0"/>
<feBlend mode="normal" in2="BackgroundImageFix" result="effect1_dropShadow"/>
<feBlend mode="normal" in="SourceGraphic" in2="effect1_dropShadow" result="shape"/>
</filter>
<filter id="filter1_d" x="164" y="19" width="167" height="171" filterUnits="userSpaceOnUse" color-interpolation-filters="sRGB">
<feFlood flood-opacity="0" result="BackgroundImageFix"/>
<feColorMatrix in="SourceAlpha" type="matrix" values="0 0 0 0 0 0 0 0 0 0 0 0 0 0 0 0 0 0 127 0"/>
<feOffset dy="4"/>
<feGaussianBlur stdDeviation="2"/>
<feColorMatrix type="matrix" values="0 0 0 0 0 0 0 0 0 0 0 0 0 0 0 0 0 0 0.25 0"/>
<feBlend mode="normal" in2="BackgroundImageFix" result="effect1_dropShadow"/>
<feBlend mode="normal" in="SourceGraphic" in2="effect1_dropShadow" result="shape"/>
</filter>
</defs>
</svg>
