<svg width="350" height="204" viewBox="0 0 350 204" fill="none" xmlns="http://www.w3.org/2000/svg">
<g filter="url(#filter0_d)">
<rect x="6" y="2" width="340" height="193.691" rx="8" fill="#EEEEEE"/>
<rect x="6.5" y="2.5" width="339" height="192.691" rx="7.5" stroke="black"/>
</g>
<mask id="mask0" mask-type="alpha" maskUnits="userSpaceOnUse" x="4" y="0" width="340" height="194">
<rect x="4.5" y="0.5" width="339" height="192.691" rx="7.5" fill="white" stroke="black"/>
</mask>
<g mask="url(#mask0)">
<line x1="-191" y1="150.504" x2="368" y2="150.504" stroke="#DFDFDF" stroke-opacity="0.5"/>
<line x1="-191" y1="40.7002" x2="368" y2="40.7002" stroke="#DFDFDF" stroke-opacity="0.5"/>
<line x1="-191" y1="95.6015" x2="368" y2="95.6015" stroke="#DFDFDF" stroke-opacity="0.5"/>
<line x1="-191" y1="177.955" x2="368" y2="177.955" stroke="#DFDFDF" stroke-opacity="0.5"/>
<line x1="-191" y1="68.1509" x2="368" y2="68.1509" stroke="#DFDFDF" stroke-opacity="0.5"/>
<line x1="-191" y1="123.052" x2="368" y2="123.052" stroke="#DFDFDF" stroke-opacity="0.5"/>
<line x1="-191" y1="13.2496" x2="368" y2="13.2496" stroke="#DFDFDF" stroke-opacity="0.5"/>
<line x1="319.058" y1="-132" x2="319.058" y2="422.008" stroke="#DFDFDF" stroke-opacity="0.5"/>
<line x1="71.9995" y1="-132" x2="71.9995" y2="422.008" stroke="#DFDFDF" stroke-opacity="0.5"/>
<line x1="181.804" y1="-132" x2="181.804" y2="422.008" stroke="#DFDFDF" stroke-opacity="0.5"/>
<line x1="264.156" y1="-132" x2="264.156" y2="422.008" stroke="#DFDFDF" stroke-opacity="0.5"/>
<line x1="17.0986" y1="-132" x2="17.0986" y2="422.008" stroke="#DFDFDF" stroke-opacity="0.5"/>
<line x1="126.902" y1="-132" x2="126.902" y2="422.008" stroke="#DFDFDF" stroke-opacity="0.5"/>
<line x1="291.607" y1="-132" x2="291.607" y2="422.008" stroke="#DFDFDF" stroke-opacity="0.5"/>
<line x1="44.5488" y1="-132" x2="44.5488" y2="422.008" stroke="#DFDFDF" stroke-opacity="0.5"/>
<line x1="154.353" y1="-132" x2="154.353" y2="422.008" stroke="#DFDFDF" stroke-opacity="0.5"/>
<line x1="236.705" y1="-132" x2="236.705" y2="422.008" stroke="#DFDFDF" stroke-opacity="0.5"/>
<line x1="99.4502" y1="-132" x2="99.4502" y2="422.008" stroke="#DFDFDF" stroke-opacity="0.5"/>
<line x1="209.254" y1="-132" x2="209.254" y2="422.008" stroke="#DFDFDF" stroke-opacity="0.5"/>
</g>
<g filter="url(#filter1_d)">
<rect x="106" y="24" width="136" height="136" rx="8" fill="white" fill-opacity="0.24"/>
<rect x="106.5" y="24.5" width="135" height="135" rx="7.5" stroke="black" stroke-dasharray="4 4"/>
</g>
<g filter="url(#filter2_d)">
<rect x="118" y="37" width="136" height="136" rx="8" fill="#E5E5E5"/>
<rect x="118.5" y="37.5" width="135" height="135" rx="7.5" stroke="black"/>
</g>
<path opacity="0.87" d="M174.43 106.375H156.266L151.227 117H136.5L166.617 60.125H179.195L189.703 117H175.797L174.43 106.375ZM161.266 95.7891H173.062L170.562 76.1797L161.266 95.7891ZM217.805 117C217.44 115.984 217.258 114.708 217.258 113.172C214.367 116.349 210.917 117.885 206.906 117.781C203.234 117.729 200.188 116.505 197.766 114.109C195.344 111.714 194.211 108.81 194.367 105.398C194.497 100.815 196.411 97.2995 200.109 94.8516C203.807 92.3776 208.859 91.1406 215.266 91.1406L219.562 91.2188L220.031 88.8359L220.188 86.7656C220.083 84.3958 218.898 83.1719 216.633 83.0938C213.82 83.0417 212.089 84.5911 211.438 87.7422L198.547 87.7812C198.677 84.9427 199.602 82.4818 201.32 80.3984C203.039 78.2891 205.37 76.6745 208.312 75.5547C211.281 74.4089 214.432 73.875 217.766 73.9531C220.969 74.0312 223.768 74.7083 226.164 75.9844C228.586 77.2344 230.396 78.9922 231.594 81.2578C232.792 83.4974 233.247 86.0885 232.961 89.0312L229.797 108.914L229.602 111.336C229.497 113.263 229.745 114.904 230.344 116.258L230.305 117H217.805ZM210.461 108.484C213.091 108.589 215.396 107.43 217.375 105.008L218.664 98.2109L215.344 98.1719C213.286 98.224 211.516 98.8359 210.031 100.008C208.547 101.154 207.674 102.729 207.414 104.734C207.284 105.802 207.479 106.688 208 107.391C208.547 108.068 209.367 108.432 210.461 108.484Z" fill="black"/>
<path opacity="0.87" d="M175.332 156H163.766L164.188 153.281L170.258 147.645L171.09 146.812C172.395 145.5 172.992 144.262 172.883 143.098C172.797 142.191 172.328 141.727 171.477 141.703C170.875 141.688 170.363 141.934 169.941 142.441C169.527 142.941 169.27 143.598 169.168 144.41L165.336 144.434C165.398 143.363 165.723 142.387 166.309 141.504C166.895 140.613 167.676 139.918 168.652 139.418C169.637 138.918 170.684 138.672 171.793 138.68C173.457 138.711 174.746 139.164 175.66 140.039C176.574 140.906 176.973 142.082 176.855 143.566C176.785 144.441 176.496 145.293 175.988 146.121C175.488 146.949 174.758 147.82 173.797 148.734L172.016 150.375L169.367 152.93L175.812 152.953L175.332 156ZM182.695 145.816L184.418 145.828C185.121 145.812 185.699 145.609 186.152 145.219C186.605 144.82 186.875 144.266 186.961 143.555C187.023 143.023 186.918 142.586 186.645 142.242C186.371 141.898 185.961 141.723 185.414 141.715C184.906 141.699 184.457 141.84 184.066 142.137C183.676 142.434 183.426 142.828 183.316 143.32L179.449 143.344C179.496 142.422 179.793 141.605 180.34 140.895C180.887 140.184 181.613 139.637 182.52 139.254C183.434 138.863 184.414 138.672 185.461 138.68C187.18 138.719 188.531 139.172 189.516 140.039C190.5 140.898 190.949 142.047 190.863 143.484C190.762 145.094 189.711 146.367 187.711 147.305C188.469 147.68 189.035 148.199 189.41 148.863C189.785 149.527 189.953 150.277 189.914 151.113C189.859 152.16 189.527 153.074 188.918 153.855C188.309 154.629 187.492 155.227 186.469 155.648C185.445 156.062 184.348 156.258 183.176 156.234C182.152 156.227 181.223 156.012 180.387 155.59C179.559 155.16 178.922 154.57 178.477 153.82C178.031 153.07 177.812 152.211 177.82 151.242H181.664C181.672 151.797 181.836 152.254 182.156 152.613C182.477 152.973 182.926 153.16 183.504 153.176C184.152 153.191 184.727 153 185.227 152.602C185.727 152.203 186.023 151.68 186.117 151.031C186.211 150.336 186.105 149.793 185.801 149.402C185.504 149.004 185.004 148.793 184.301 148.77L182.238 148.758L182.695 145.816ZM202.633 149.332H204.309L203.781 152.379H202.105L201.473 156H197.617L198.25 152.379H191.863L192.074 149.777L200.453 138.973V138.891L204.438 138.949L202.633 149.332ZM195.871 149.309L198.777 149.332L199.809 144.035L195.871 149.309Z" fill="black"/>
<path d="M42.1502 23.9336C42.1502 29.7006 37.5228 34.3672 31.8251 34.3672C26.1274 34.3672 21.5 29.7006 21.5 23.9336C21.5 18.1666 26.1274 13.5 31.8251 13.5C37.5228 13.5 42.1502 18.1666 42.1502 23.9336Z" fill="#DA311A" stroke="black"/>
<path fill-rule="evenodd" clip-rule="evenodd" d="M38.0899 32.116C40.5483 30.2247 42.135 27.2368 42.135 23.8745C42.135 18.1563 37.5454 13.5208 31.8839 13.5208C28.5556 13.5208 25.5978 15.1229 23.7251 17.6052C25.4478 16.2798 27.5984 15.4929 29.9311 15.4929C35.5925 15.4929 40.1821 20.1285 40.1821 25.8467C40.1821 28.2033 39.4026 30.3759 38.0899 32.116Z" fill="#AA310B"/>
<path d="M26.956 17.7055L25.0987 21.3148C24.7494 21.9117 24.3846 23.1441 25.7198 23.2982C27.3887 23.4907 28.5789 20.4417 29.3172 19.2524C30.0555 18.0631 30.2743 17.1962 29.0057 16.6675C27.9908 16.2445 27.2164 17.1833 26.956 17.7055Z" fill="#EFEFEF"/>
<path d="M24.4727 26.8504C23.3283 26.7184 23.6708 25.3984 23.9851 24.7549C25.5977 23.3096 26.0875 24.3177 26.1309 25.0025C26.055 25.6734 25.6171 26.9824 24.4727 26.8504Z" fill="#EFEFEF"/>
<path d="M26.956 17.7055L25.0987 21.3148C24.7494 21.9117 24.3846 23.1441 25.7198 23.2982C27.3887 23.4907 28.5789 20.4417 29.3172 19.2524C30.0555 18.0631 30.2743 17.1962 29.0057 16.6675C27.9908 16.2445 27.2164 17.1833 26.956 17.7055Z" stroke="black"/>
<path d="M24.4727 26.8504C23.3283 26.7184 23.6708 25.3984 23.9851 24.7549C25.5977 23.3096 26.0875 24.3177 26.1309 25.0025C26.055 25.6734 25.6171 26.9824 24.4727 26.8504Z" stroke="black"/>
<defs>
<filter id="filter0_d" x="2" y="2" width="348" height="201.691" filterUnits="userSpaceOnUse" color-interpolation-filters="sRGB">
<feFlood flood-opacity="0" result="BackgroundImageFix"/>
<feColorMatrix in="SourceAlpha" type="matrix" values="0 0 0 0 0 0 0 0 0 0 0 0 0 0 0 0 0 0 127 0"/>
<feOffset dy="4"/>
<feGaussianBlur stdDeviation="2"/>
<feColorMatrix type="matrix" values="0 0 0 0 0 0 0 0 0 0 0 0 0 0 0 0 0 0 0.25 0"/>
<feBlend mode="normal" in2="BackgroundImageFix" result="effect1_dropShadow"/>
<feBlend mode="normal" in="SourceGraphic" in2="effect1_dropShadow" result="shape"/>
</filter>
<filter id="filter1_d" x="102" y="24" width="144" height="144" filterUnits="userSpaceOnUse" color-interpolation-filters="sRGB">
<feFlood flood-opacity="0" result="BackgroundImageFix"/>
<feColorMatrix in="SourceAlpha" type="matrix" values="0 0 0 0 0 0 0 0 0 0 0 0 0 0 0 0 0 0 127 0"/>
<feOffset dy="4"/>
<feGaussianBlur stdDeviation="2"/>
<feColorMatrix type="matrix" values="0 0 0 0 0 0 0 0 0 0 0 0 0 0 0 0 0 0 0.25 0"/>
<feBlend mode="normal" in2="BackgroundImageFix" result="effect1_dropShadow"/>
<feBlend mode="normal" in="SourceGraphic" in2="effect1_dropShadow" result="shape"/>
</filter>
<filter id="filter2_d" x="114" y="37" width="144" height="144" filterUnits="userSpaceOnUse" color-interpolation-filters="sRGB">
<feFlood flood-opacity="0" result="BackgroundImageFix"/>
<feColorMatrix in="SourceAlpha" type="matrix" values="0 0 0 0 0 0 0 0 0 0 0 0 0 0 0 0 0 0 127 0"/>
<feOffset dy="4"/>
<feGaussianBlur stdDeviation="2"/>
<feColorMatrix type="matrix" values="0 0 0 0 0 0 0 0 0 0 0 0 0 0 0 0 0 0 0.25 0"/>
<feBlend mode="normal" in2="BackgroundImageFix" result="effect1_dropShadow"/>
<feBlend mode="normal" in="SourceGraphic" in2="effect1_dropShadow" result="shape"/>
</filter>
</defs>
</svg>
