<svg width="547" height="285" viewBox="0 0 547 285" fill="none" xmlns="http://www.w3.org/2000/svg">
<line x1="70.5" y1="1" x2="70.5" y2="279" stroke="black" stroke-dasharray="4 4"/>
<circle cx="539" cy="69" r="7" fill="white" stroke="black"/>
<line x1="206.5" y1="1" x2="206.5" y2="279" stroke="black" stroke-dasharray="4 4"/>
<circle cx="539" cy="213" r="7" fill="white" stroke="black"/>
<line x1="348.5" y1="1" x2="348.5" y2="278" stroke="black" stroke-dasharray="4 4"/>
<line x1="486.5" y1="3" x2="486.5" y2="279" stroke="black" stroke-dasharray="4 4"/>
<path d="M241.605 130.471C241.605 118.986 244.294 109.826 249.672 102.99C255.095 96.1087 262.273 92.668 271.205 92.668C279.636 92.668 286.267 95.6074 291.098 101.486L291.85 94.0352H306.82V165.744C306.82 175.451 303.79 183.107 297.729 188.713C291.713 194.318 283.578 197.121 273.324 197.121C267.901 197.121 262.592 195.982 257.396 193.703C252.247 191.47 248.327 188.531 245.639 184.885L253.5 174.904C258.604 180.965 264.893 183.996 272.367 183.996C277.882 183.996 282.234 182.492 285.424 179.484C288.614 176.522 290.209 172.147 290.209 166.359V161.369C285.424 166.701 279.044 169.367 271.068 169.367C262.41 169.367 255.323 165.926 249.809 159.045C244.34 152.163 241.605 142.639 241.605 130.471ZM258.148 131.906C258.148 139.335 259.652 145.191 262.66 149.475C265.714 153.713 269.929 155.832 275.307 155.832C282.006 155.832 286.973 152.961 290.209 147.219V114.68C287.064 109.074 282.143 106.271 275.443 106.271C269.975 106.271 265.714 108.436 262.66 112.766C259.652 117.095 258.148 123.475 258.148 131.906Z" fill="black"/>
<line y1="68.8145" x2="530.941" y2="68.8145" stroke="black" stroke-dasharray="4 4"/>
<line y1="213.528" x2="530.941" y2="213.528" stroke="black" stroke-dasharray="4 4"/>
<path d="M101.539 130.471C101.539 122.997 102.769 116.389 105.23 110.646C107.691 104.904 111.223 100.484 115.826 97.3848C120.429 94.2402 125.784 92.668 131.89 92.668C139.592 92.668 145.608 95.2656 149.937 100.461L150.758 94.0352H171.676V165.197C171.676 171.714 170.149 177.365 167.095 182.15C164.088 186.981 159.713 190.673 153.97 193.225C148.228 195.822 141.575 197.121 134.01 197.121C128.586 197.121 123.323 196.096 118.219 194.045C113.16 191.994 109.286 189.328 106.597 186.047L116.236 172.512C120.52 177.57 126.171 180.1 133.189 180.1C143.398 180.1 148.502 174.859 148.502 164.377V162.053C144.081 166.929 138.498 169.367 131.754 169.367C122.73 169.367 115.439 165.926 109.879 159.045C104.319 152.118 101.539 142.867 101.539 131.291V130.471ZM124.644 131.906C124.644 137.967 125.784 142.775 128.062 146.33C130.341 149.839 133.531 151.594 137.633 151.594C142.6 151.594 146.223 149.93 148.502 146.604V115.5C146.269 112.128 142.691 110.441 137.769 110.441C133.668 110.441 130.455 112.287 128.131 115.979C125.806 119.624 124.644 124.934 124.644 131.906Z" fill="black"/>
<ellipse cx="486" cy="277.5" rx="7" ry="6.5" fill="white" stroke="black"/>
<ellipse cx="348" cy="277.5" rx="7" ry="6.5" fill="white" stroke="black"/>
<ellipse cx="487" cy="7.5" rx="7" ry="6.5" fill="white" stroke="black"/>
<ellipse cx="349" cy="7.5" rx="7" ry="6.5" fill="white" stroke="black"/>
<g filter="url(#filter0_d)">
<circle cx="416.5" cy="140.5" r="83" stroke="black"/>
</g>
<path d="M384.383 130.334C384.383 118.758 386.935 109.598 392.039 102.854C397.189 96.0632 404.161 92.668 412.957 92.668C423.029 92.668 430.685 96.6784 435.926 104.699L436.336 94.0352H443.992V166.496C443.992 176.021 441.326 183.563 435.994 189.123C430.662 194.683 423.439 197.463 414.324 197.463C409.174 197.463 404.253 196.301 399.559 193.977C394.91 191.698 391.242 188.645 388.553 184.816L393.133 179.895C398.921 187.004 405.802 190.559 413.777 190.559C420.613 190.559 425.945 188.531 429.773 184.475C433.602 180.464 435.584 174.882 435.721 167.727V158.43C430.48 165.721 422.846 169.367 412.82 169.367C404.253 169.367 397.371 165.949 392.176 159.113C386.98 152.277 384.383 143.049 384.383 131.428V130.334ZM392.654 131.77C392.654 141.203 394.546 148.654 398.328 154.123C402.111 159.546 407.443 162.258 414.324 162.258C424.396 162.258 431.528 157.746 435.721 148.723V114.338C433.807 109.598 431.049 105.998 427.449 103.537C423.849 101.031 419.52 99.7773 414.461 99.7773C407.579 99.7773 402.225 102.489 398.396 107.912C394.568 113.29 392.654 121.242 392.654 131.77Z" fill="black"/>
<defs>
<filter id="filter0_d" x="329" y="57" width="175" height="175" filterUnits="userSpaceOnUse" color-interpolation-filters="sRGB">
<feFlood flood-opacity="0" result="BackgroundImageFix"/>
<feColorMatrix in="SourceAlpha" type="matrix" values="0 0 0 0 0 0 0 0 0 0 0 0 0 0 0 0 0 0 127 0"/>
<feOffset dy="4"/>
<feGaussianBlur stdDeviation="2"/>
<feColorMatrix type="matrix" values="0 0 0 0 0 0 0 0 0 0 0 0 0 0 0 0 0 0 0.25 0"/>
<feBlend mode="normal" in2="BackgroundImageFix" result="effect1_dropShadow"/>
<feBlend mode="normal" in="SourceGraphic" in2="effect1_dropShadow" result="shape"/>
</filter>
</defs>
</svg>
